#N canvas 142 199 444 425 10;
#N canvas 0 0 426 446 license 0;
#X text 8 47 All rights reserved.;
#X text 8 227 The names of its contributors may not be used to endorse
or promote products derived from this software without specific prior
written permission.;
#X text 8 87 Redistribution and use in source and binary forms \, with
or without modification \, are permitted provided that the following
conditions are met:;
#X text 8 127 Redistributions of source code must retain the above
copyright notice \, this list of conditions and the following disclaimer.
;
#X text 8 297 THIS SOFTWARE IS PROVIDED BY THE COPYRIGHT HOLDERS AND
CONTRIBUTORS "AS IS" AND ANY EXPRESS OR IMPLIED WARRANTIES \, INCLUDING
\, BUT NOT LIMITED TO \, THE IMPLIED WARRANTIES OF MERCHANTABILITY
AND FITNESS FOR A PARTICULAR PURPOSE ARE DISCLAIMED. IN NO EVENT SHALL
THE COPYRIGHT OWNER OR CONTRIBUTORS BE LIABLE FOR ANY DIRECT \, INDIRECT
\, INCIDENTAL \, SPECIAL \, EXEMPLARY \, OR CONSEQUENTIAL DAMAGES (INCLUDING
\, BUT NOT LIMITED TO \, PROCUREMENT OF SUBSTITUTE GOODS OR SERVICES
;
#X text 8 167 Redistributions in binary form must reproduce the above
copyright notice \, this list of conditions and the following disclaimer
in the documentation and/or other materials provided with the distribution.
;
#X text 8 27 jmmmpais@gmail.com;
#X text 8 7 Copyright 2020 \, João Pais;
#X restore 12 388 pd license;
#X obj 16 338 outlet;
#X obj 16 78 inlet;
#X text 9 368 (C) 2020 João Pais - jmmmpais@gmail.com;
#X obj 96 338 outlet;
#X obj 176 338 outlet;
#X obj 256 338 outlet;
#N canvas 174 75 499 429 init 0;
#X obj 15 28 loadbang;
#X obj 75 68 bng 15 250 50 0 empty empty empty 17 7 0 10 -262144 -1
-1;
#N canvas 552 111 298 108 \$0-text-define-dyn 0;
#X obj 20 20 r 1327-coll-receive;
#X obj 20 50 text define 1327-coll;
#X connect 0 0 1 0;
#X restore 106 388 pd \$0-text-define-dyn;
#X obj 106 368 s pd-\$0-text-define-dyn;
#X text 15 8 Init and coll creation;
#X obj 79 248 s \$0-set;
#X msg 54 288 clear;
#X obj 15 68 t b b b;
#X obj 34 138 pdcontrol;
#X msg 34 118 args;
#X msg 106 288 obj 20 20 r \$1-receive \, obj 20 50 text define \$1
\, connect 0 0 1 0;
#X msg 126 198 read \$1;
#X obj 126 218 s \$0-coll-receive;
#X obj 34 178 symbol \$0-coll;
#X obj 145 248 pack s \$0;
#X msg 145 328 obj 20 20 r \$2-coll-receive \, obj 20 50 text define
\$1 \, connect 0 0 1 0;
#X obj 126 178 t s s s;
#X obj 34 158 route bang float symbol list;
#X obj 187 178 unpack s f;
#X obj 186 198 t s s;
#N canvas 554 86 727 569 check-instances 0;
#X obj 75 504 list \$0 \$1;
#X obj 18 84 inlet;
#X obj 57 144 text define \$0-check-inst;
#X obj 37 214 text insert \$0-check-inst;
#X obj 18 104 t b b b;
#X msg 57 124 clear;
#X obj 75 324 text search \$0-check-inst 1;
#X obj 18 264 pdcontrol;
#X msg 18 244 args 0;
#X obj 75 304 list split 1;
#X obj 75 344 sel -1;
#X obj 321 134 route bang;
#X obj 37 174 s jp.coll-CoLLective-INStances-tesT-ReCeIvE;
#X obj 321 114 r jp.coll-CoLLective-INStances-tesT-ReCeIvE;
#X obj 37 194 r jp.coll-CoLLective-INStances-tesT-SeNd;
#X obj 321 334 s jp.coll-CoLLective-INStances-tesT-SeNd;
#X obj 75 524 s jp.coll-CoLLective-INStances-tesT-ReCeIvE;
#X obj 378 154 list prepend add2;
#X obj 378 174 list trim;
#X msg 378 214 addcomma;
#X obj 18 284 route bang;
#X text 356 246 LISTA TEM QUE ESTAR SEMPRE VAZIA ANTES DE GRAVAR;
#X text 77 18 A general buffer saved in a message checks for existence
of jp.colls \; - clears individual saving place \; - loads current
version \; - if \$1 argument is found \, searches if \$1 already exists
in other instances \; - if it exists \, replace individual text with
send to \$0 from other abstraction;
#X obj 378 194 t b a;
#X obj 108 475 s pd-\$0-text-define-dyn;
#X obj 142 404 s \$0-set;
#X obj 108 364 text get \$0-check-inst;
#X obj 108 384 list split 1;
#X obj 108 424 pack f \$0;
#X msg 108 444 clear \, obj 20 20 r \$2-coll-receive \, obj 20 50 s
\$1-coll-receive \, connect 0 0 1 0;
#X obj 95 284 r \$0-refer;
#X msg 321 264;
#X connect 0 0 16 0;
#X connect 1 0 4 0;
#X connect 4 0 8 0;
#X connect 4 1 12 0;
#X connect 4 2 5 0;
#X connect 5 0 2 0;
#X connect 6 0 10 0;
#X connect 7 0 20 0;
#X connect 8 0 7 0;
#X connect 9 0 6 0;
#X connect 10 0 0 0;
#X connect 10 1 26 0;
#X connect 11 0 31 0;
#X connect 11 1 17 0;
#X connect 13 0 11 0;
#X connect 14 0 3 0;
#X connect 17 0 18 0;
#X connect 18 0 23 0;
#X connect 19 0 31 0;
#X connect 20 1 9 0;
#X connect 23 0 19 0;
#X connect 23 1 31 0;
#X connect 26 0 27 0;
#X connect 27 0 28 0;
#X connect 27 1 25 0;
#X connect 28 0 29 0;
#X connect 29 0 24 0;
#X connect 30 0 9 0;
#X connect 31 0 15 0;
#X restore 15 88 pd check-instances;
#X obj 25 48 r \$0-loadbang;
#X connect 0 0 7 0;
#X connect 1 0 7 0;
#X connect 6 0 3 0;
#X connect 7 0 20 0;
#X connect 7 1 9 0;
#X connect 7 2 6 0;
#X connect 8 0 17 0;
#X connect 9 0 8 0;
#X connect 10 0 3 0;
#X connect 11 0 12 0;
#X connect 13 0 5 0;
#X connect 13 0 10 0;
#X connect 14 0 15 0;
#X connect 15 0 3 0;
#X connect 16 0 11 0;
#X connect 16 1 14 0;
#X connect 16 2 5 0;
#X connect 17 0 13 0;
#X connect 17 1 5 0;
#X connect 17 1 10 0;
#X connect 17 2 16 0;
#X connect 17 3 18 0;
#X connect 18 0 19 0;
#X connect 19 0 14 0;
#X connect 19 1 5 0;
#X connect 21 0 7 0;
#X restore 16 38 pd init;
#N canvas 0 50 450 300 zutun 0;
#X text 16 145 # funciona usar floats como nomes de colls? ou têm
que ser transformados em símbolos primeiro?;
#X text 18 77 # features desligadas - enviar mensagem de aviso \, e
mencionar no help;
#X restore 150 63 pd zutun;
#N canvas 127 16 408 242 list 0;
#X obj 16 198 text set;
#X obj 31 128 text search dummy 0;
#X obj 31 108 list split 1;
#X obj 31 148 sel -1;
#X obj 31 168 1e+009;
#X obj 142 108 r \$0-set;
#X obj 16 48 inlet;
#X text 16 8 list - 1st element is an int address to store remaining
data to messages;
#X obj 16 88 t l l;
#X obj 16 68 list;
#X connect 1 0 3 0;
#X connect 2 0 1 0;
#X connect 3 0 4 0;
#X connect 3 1 0 1;
#X connect 4 0 0 1;
#X connect 5 0 1 1;
#X connect 5 0 0 3;
#X connect 6 0 9 0;
#X connect 8 0 0 0;
#X connect 8 1 2 0;
#X connect 9 0 8 0;
#X restore 16 128 pd list;
#X obj 187 218 route dump clear open wclose;
#X obj 269 278 s \$0-coll-receive;
#X msg 269 248 click;
#X msg 310 248 close;
#X msg 228 248 clear;
#N canvas 0 50 484 300 dump 0;
#X obj 67 108 r \$0-set;
#X obj 22 128 text get;
#X obj 22 168 list split 1;
#X obj 22 208 list;
#X obj 22 228 list trim;
#X obj 22 188 t b a;
#X obj 22 48 inlet;
#X obj 22 248 s \$0-outlet1;
#X obj 62 208 s \$0-outlet2;
#X obj 107 128 sel 2;
#X obj 22 68 t b b;
#X obj 22 88 until;
#X obj 22 108 f+;
#X obj 107 148 s \$0-outlet4;
#X text 23 28 dumps all values (1st outlet) \, addresses (2nd) and
bangs (4th) when done, f 72;
#X connect 0 0 1 3;
#X connect 1 0 2 0;
#X connect 1 1 9 0;
#X connect 2 0 5 0;
#X connect 2 1 3 1;
#X connect 3 0 4 0;
#X connect 4 0 7 0;
#X connect 5 0 3 0;
#X connect 5 1 8 0;
#X connect 6 0 10 0;
#X connect 9 0 11 1;
#X connect 9 0 13 0;
#X connect 10 0 11 0;
#X connect 10 1 12 1;
#X connect 11 0 12 0;
#X connect 12 0 1 0;
#X restore 187 268 pd dump;
#X obj 16 318 r \$0-outlet1;
#X obj 96 318 r \$0-outlet2;
#X obj 176 318 r \$0-outlet3;
#X obj 256 318 r \$0-outlet4;
#N canvas 288 28 335 300 file-ops 0;
#X obj 12 21 inlet;
#X obj 12 41 route read readagain write writeagain;
#X obj 12 91 route bang;
#X obj 79 221 s \$0-coll-receive;
#X obj 79 201 list trim;
#X obj 22 161 list prepend read;
#X obj 132 91 route bang;
#X obj 142 161 list prepend write;
#X obj 22 141 symbol;
#X obj 142 141 symbol;
#X obj 12 111 openpanel;
#X obj 132 111 savepanel;
#X obj 22 251 s \$0-outlet3;
#X obj 22 181 t b l;
#X obj 231 81 outlet;
#X obj 231 61 list;
#X connect 0 0 1 0;
#X connect 1 0 2 0;
#X connect 1 1 8 0;
#X connect 1 2 6 0;
#X connect 1 3 9 0;
#X connect 1 4 15 0;
#X connect 2 0 10 0;
#X connect 2 1 8 0;
#X connect 4 0 3 0;
#X connect 5 0 13 0;
#X connect 6 0 11 0;
#X connect 6 1 9 0;
#X connect 7 0 4 0;
#X connect 8 0 5 0;
#X connect 9 0 7 0;
#X connect 10 0 8 0;
#X connect 11 0 9 0;
#X connect 13 0 12 0;
#X connect 13 1 4 0;
#X connect 15 0 14 0;
#X restore 314 128 pd file-ops;
#N canvas 0 50 450 421 navigation-ops 0;
#N canvas 224 23 397 263 f+s 0;
#X obj 22 78 text search dummy 0;
#X obj 133 58 r \$0-set;
#X obj 22 118 text get;
#X obj 22 138 list split 1;
#X obj 22 178 list;
#X obj 22 198 list trim;
#X obj 22 158 t b a;
#X obj 22 58 inlet;
#X obj 22 218 s \$0-outlet1;
#X obj 62 178 s \$0-outlet2;
#X obj 32 98 outlet;
#X text 22 18 float/symbol - an "int float" or "symbol" address: outputs
the stored data;
#X connect 0 0 2 0;
#X connect 0 0 10 0;
#X connect 1 0 0 1;
#X connect 1 0 2 3;
#X connect 2 0 3 0;
#X connect 3 0 6 0;
#X connect 3 1 4 1;
#X connect 4 0 5 0;
#X connect 5 0 8 0;
#X connect 6 0 4 0;
#X connect 6 1 9 0;
#X connect 7 0 0 0;
#X restore 40 99 pd f+s;
#X obj 15 29 inlet;
#X obj 15 49 route symbol float;
#X obj 120 69 route bang next prev goto start end;
#X obj 327 89 outlet;
#X obj 165 239 r \$0-set;
#X obj 120 259 text get;
#X obj 120 279 list split 1;
#X obj 120 319 list;
#X obj 120 339 list trim;
#X obj 120 299 t b a;
#X obj 120 179 f+ 0 1;
#X obj 120 359 s \$0-outlet1;
#X obj 160 319 s \$0-outlet2;
#X obj 90 139 + 1;
#X obj 190 119 f;
#X obj 190 139 - 1;
#X obj 156 119 - 1;
#X obj 343 119 r \$0-set;
#X obj 292 139 text size;
#X obj 258 89 1;
#N canvas 127 16 408 166 length-check 0;
#X obj 103 48 r \$0-set;
#X obj 16 48 inlet;
#X obj 16 68 text size dummy;
#X text 16 8 length - sends number of stored values to the left outlet
;
#X obj 16 108 outlet;
#X obj 16 88 change;
#X connect 0 0 2 1;
#X connect 1 0 2 0;
#X connect 2 0 5 0;
#X connect 5 0 4 0;
#X restore 147 219 pd length-check;
#X obj 120 239 mod;
#X obj 120 199 t f b;
#X connect 0 0 14 0;
#X connect 1 0 2 0;
#X connect 2 0 0 0;
#X connect 2 1 0 0;
#X connect 2 2 3 0;
#X connect 3 0 11 0;
#X connect 3 1 11 0;
#X connect 3 2 15 0;
#X connect 3 3 17 0;
#X connect 3 3 15 1;
#X connect 3 4 20 0;
#X connect 3 5 19 0;
#X connect 3 6 4 0;
#X connect 5 0 6 3;
#X connect 6 0 7 0;
#X connect 7 0 10 0;
#X connect 7 1 8 1;
#X connect 8 0 9 0;
#X connect 9 0 12 0;
#X connect 10 0 8 0;
#X connect 10 1 13 0;
#X connect 11 0 15 1;
#X connect 11 0 23 0;
#X connect 14 0 11 1;
#X connect 15 0 16 0;
#X connect 16 0 11 0;
#X connect 17 0 11 1;
#X connect 18 0 19 1;
#X connect 19 0 15 1;
#X connect 19 0 17 0;
#X connect 20 0 15 1;
#X connect 20 0 17 0;
#X connect 21 0 22 1;
#X connect 22 0 6 0;
#X connect 23 0 22 0;
#X connect 23 1 21 0;
#X restore 187 188 pd navigation-ops;
#N canvas 0 50 528 300 element-ops 0;
#N canvas 127 16 388 151 remove 0;
#X obj 16 88 text search dummy 0;
#X obj 127 68 r \$0-set;
#X obj 16 48 inlet;
#X text 16 8 removes address and its data without renumbering (unlike
delete);
#X obj 16 108 text delete;
#X obj 16 68 list;
#X connect 0 0 4 0;
#X connect 1 0 0 1;
#X connect 1 0 4 1;
#X connect 2 0 5 0;
#X connect 5 0 0 0;
#X restore 16 168 pd remove;
#N canvas 127 16 408 318 merge 0;
#X obj 54 271 text set;
#X obj 31 128 text search dummy 0;
#X obj 31 148 sel -1;
#X obj 48 238 1e+009;
#X obj 142 108 r \$0-set;
#X obj 16 48 inlet;
#X obj 16 68 list;
#X obj 64 188 text get;
#X obj 16 108 list split 1;
#X obj 64 208 list append;
#X obj 64 168 t f f;
#X obj 16 88 t l l;
#X obj 21 218 list;
#X obj 21 198 t b b;
#X text 16 8 merge - sets address and any message to be appended to
the stored message;
#X connect 1 0 2 0;
#X connect 2 0 13 0;
#X connect 2 1 10 0;
#X connect 3 0 0 1;
#X connect 4 0 1 1;
#X connect 4 0 0 3;
#X connect 4 0 7 3;
#X connect 5 0 6 0;
#X connect 6 0 11 0;
#X connect 7 0 9 0;
#X connect 8 0 1 0;
#X connect 8 1 9 1;
#X connect 9 0 0 0;
#X connect 10 0 7 0;
#X connect 10 1 0 1;
#X connect 11 0 8 0;
#X connect 11 1 12 1;
#X connect 12 0 0 0;
#X connect 13 0 12 0;
#X connect 13 1 3 0;
#X restore 45 148 pd merge;
#X obj 16 78 inlet;
#X obj 365 148 outlet;
#N canvas 127 16 408 318 nub+sub 0;
#X obj 59 278 text set;
#X obj 26 188 text search dummy 0;
#X obj 26 208 sel -1;
#X obj 147 158 r \$0-set;
#X obj 26 68 inlet;
#X obj 26 118 list;
#X obj 26 138 list split 1;
#X obj 60 158 list split 1;
#X obj 59 248 list;
#X obj 59 228 t b f;
#X obj 86 68 inlet;
#X obj 86 88 t b a;
#X obj 165 255 list;
#X obj 165 275 outlet;
#X text 16 8 nsub - the address \, an element (starts at 1) and any
value to substitute it to \; sub - same as nsub \, but the substituted
message is sent out;
#X connect 1 0 2 0;
#X connect 2 1 9 0;
#X connect 3 0 1 1;
#X connect 3 0 0 3;
#X connect 4 0 5 0;
#X connect 5 0 6 0;
#X connect 6 0 1 0;
#X connect 6 0 12 1;
#X connect 6 1 7 0;
#X connect 7 0 0 2;
#X connect 7 1 8 1;
#X connect 8 0 0 0;
#X connect 9 0 8 0;
#X connect 9 1 0 1;
#X connect 10 0 11 0;
#X connect 11 0 12 0;
#X connect 11 1 5 0;
#X connect 12 0 13 0;
#X restore 85 168 pd nub+sub;
#N canvas 127 16 408 240 nth 0;
#X obj 26 98 text search dummy 0;
#X obj 26 118 sel -1;
#X obj 127 68 r \$0-set;
#X obj 26 38 inlet;
#X obj 26 58 list;
#X obj 26 78 list split 1;
#X obj 59 138 text get;
#X obj 59 158 s \$0-outlet1;
#X text 16 8 nth - address and nth element to be output (starts at
1);
#X connect 0 0 1 0;
#X connect 1 1 6 0;
#X connect 2 0 0 1;
#X connect 2 0 6 3;
#X connect 3 0 4 0;
#X connect 4 0 5 0;
#X connect 5 0 0 0;
#X connect 5 1 6 1;
#X connect 6 0 7 0;
#X restore 149 148 pd nth;
#N canvas 292 26 469 540 min 0;
#X obj 108 47 inlet;
#X obj 108 67 route bang float;
#X obj 83 197 r \$0-set;
#X obj 38 217 text get;
#X obj 38 237 list split 1;
#X obj 105 97 r \$0-set;
#X obj 18 117 text size dummy;
#X obj 38 157 until;
#X obj 38 177 f+ 0 1;
#X obj 72 257 route float;
#X obj 162 317 route float;
#X obj 135 277 list split 1;
#X obj 72 347 min;
#X obj 57 407 f;
#X obj 18 137 t b f b b;
#X obj 72 387 t f f b;
#X obj 57 427 list append;
#X obj 129 387 spigot 0;
#X obj 164 357 1;
#X obj 129 407 t b a;
#X obj 194 357 0;
#X obj 87 157 1e+038;
#X obj 125 317 list;
#X obj 135 297 t b a;
#X obj 72 367 change;
#X msg 97 177 set \$1;
#X obj 167 467 list split 1;
#X obj 167 507 s \$0-outlet1;
#X obj 201 487 s \$0-outlet2;
#X text 18 15 min - sends min value of all <nth> elements (starts at
1 \, default) on left outlet;
#X obj 313 197 r \$0-set;
#X obj 268 217 text get;
#X obj 268 237 list split 1;
#X obj 335 97 r \$0-set;
#X obj 248 117 text size dummy;
#X obj 268 157 until;
#X obj 268 177 f+ 0 1;
#X obj 293 347 min;
#X obj 278 407 f;
#X obj 248 137 t b f b b;
#X obj 293 387 t f f b;
#X obj 278 427 list append;
#X obj 350 387 spigot 0;
#X obj 385 357 1;
#X obj 350 407 t b a;
#X obj 415 357 0;
#X obj 317 157 1e+038;
#X obj 293 367 change;
#X msg 327 177 set \$1;
#X msg 293 327 \$3;
#X msg 283 307 set \, adddollar \$1;
#X obj 248 97 t b f;
#X connect 0 0 1 0;
#X connect 1 0 6 0;
#X connect 1 1 51 0;
#X connect 2 0 3 3;
#X connect 3 0 4 0;
#X connect 4 0 17 0;
#X connect 4 1 9 0;
#X connect 5 0 6 1;
#X connect 6 0 14 0;
#X connect 7 0 8 0;
#X connect 8 0 3 0;
#X connect 9 0 12 0;
#X connect 9 1 11 0;
#X connect 10 0 12 0;
#X connect 11 0 23 0;
#X connect 11 1 22 1;
#X connect 12 0 24 0;
#X connect 13 0 16 0;
#X connect 14 0 13 0;
#X connect 14 1 7 0;
#X connect 14 2 8 1;
#X connect 14 3 21 0;
#X connect 15 0 13 1;
#X connect 15 1 12 1;
#X connect 15 2 18 0;
#X connect 16 0 26 0;
#X connect 17 0 19 0;
#X connect 18 0 17 1;
#X connect 19 0 20 0;
#X connect 19 1 16 1;
#X connect 20 0 17 1;
#X connect 21 0 12 1;
#X connect 21 0 25 0;
#X connect 22 0 11 0;
#X connect 23 0 22 0;
#X connect 23 1 10 0;
#X connect 24 0 15 0;
#X connect 25 0 24 0;
#X connect 26 0 27 0;
#X connect 26 1 28 0;
#X connect 30 0 31 3;
#X connect 31 0 32 0;
#X connect 32 0 42 0;
#X connect 32 1 49 0;
#X connect 33 0 34 1;
#X connect 34 0 39 0;
#X connect 35 0 36 0;
#X connect 36 0 31 0;
#X connect 37 0 47 0;
#X connect 38 0 41 0;
#X connect 39 0 38 0;
#X connect 39 1 35 0;
#X connect 39 2 36 1;
#X connect 39 3 46 0;
#X connect 40 0 38 1;
#X connect 40 1 37 1;
#X connect 40 2 43 0;
#X connect 41 0 26 0;
#X connect 42 0 44 0;
#X connect 43 0 42 1;
#X connect 44 0 45 0;
#X connect 44 1 41 1;
#X connect 45 0 42 1;
#X connect 46 0 37 1;
#X connect 46 0 48 0;
#X connect 47 0 40 0;
#X connect 48 0 47 0;
#X connect 49 0 37 0;
#X connect 50 0 49 0;
#X connect 51 0 34 0;
#X connect 51 1 50 0;
#X restore 189 168 pd min;
#N canvas 292 26 469 548 max 0;
#X obj 108 47 inlet;
#X obj 108 67 route bang float;
#X obj 83 197 r \$0-set;
#X obj 38 217 text get;
#X obj 38 237 list split 1;
#X obj 105 97 r \$0-set;
#X obj 18 117 text size dummy;
#X obj 38 157 until;
#X obj 38 177 f+ 0 1;
#X obj 72 257 route float;
#X obj 162 317 route float;
#X obj 135 277 list split 1;
#X obj 57 407 f;
#X obj 18 137 t b f b b;
#X obj 72 387 t f f b;
#X obj 57 427 list append;
#X obj 129 387 spigot 0;
#X obj 164 357 1;
#X obj 129 407 t b a;
#X obj 194 357 0;
#X obj 125 317 list;
#X obj 135 297 t b a;
#X obj 72 367 change;
#X msg 97 177 set \$1;
#X obj 167 467 list split 1;
#X obj 167 507 s \$0-outlet1;
#X obj 201 487 s \$0-outlet2;
#X obj 313 197 r \$0-set;
#X obj 268 217 text get;
#X obj 268 237 list split 1;
#X obj 335 97 r \$0-set;
#X obj 248 117 text size dummy;
#X obj 268 157 until;
#X obj 268 177 f+ 0 1;
#X obj 278 407 f;
#X obj 248 137 t b f b b;
#X obj 293 387 t f f b;
#X obj 278 427 list append;
#X obj 350 387 spigot 0;
#X obj 385 357 1;
#X obj 350 407 t b a;
#X obj 415 357 0;
#X obj 293 367 change;
#X msg 327 177 set \$1;
#X msg 293 327 \$2;
#X msg 283 307 set \, adddollar \$1;
#X obj 248 97 t b f;
#X obj 72 347 max;
#X obj 293 347 max;
#X obj 87 157 -1e+038;
#X obj 317 157 -1e+038;
#X text 18 15 max - sends max value of all <nth> elements (starts at
1 \, default) on left outlet;
#X connect 0 0 1 0;
#X connect 1 0 6 0;
#X connect 1 1 46 0;
#X connect 2 0 3 3;
#X connect 3 0 4 0;
#X connect 4 0 16 0;
#X connect 4 1 9 0;
#X connect 5 0 6 1;
#X connect 6 0 13 0;
#X connect 7 0 8 0;
#X connect 8 0 3 0;
#X connect 9 0 47 0;
#X connect 9 1 11 0;
#X connect 10 0 47 0;
#X connect 11 0 21 0;
#X connect 11 1 20 1;
#X connect 12 0 15 0;
#X connect 13 0 12 0;
#X connect 13 1 7 0;
#X connect 13 2 8 1;
#X connect 13 3 49 0;
#X connect 14 0 12 1;
#X connect 14 1 47 1;
#X connect 14 2 17 0;
#X connect 15 0 24 0;
#X connect 16 0 18 0;
#X connect 17 0 16 1;
#X connect 18 0 19 0;
#X connect 18 1 15 1;
#X connect 19 0 16 1;
#X connect 20 0 11 0;
#X connect 21 0 20 0;
#X connect 21 1 10 0;
#X connect 22 0 14 0;
#X connect 23 0 22 0;
#X connect 24 0 25 0;
#X connect 24 1 26 0;
#X connect 27 0 28 3;
#X connect 28 0 29 0;
#X connect 29 0 38 0;
#X connect 29 1 44 0;
#X connect 30 0 31 1;
#X connect 31 0 35 0;
#X connect 32 0 33 0;
#X connect 33 0 28 0;
#X connect 34 0 37 0;
#X connect 35 0 34 0;
#X connect 35 1 32 0;
#X connect 35 2 33 1;
#X connect 35 3 50 0;
#X connect 36 0 34 1;
#X connect 36 1 48 1;
#X connect 36 2 39 0;
#X connect 37 0 24 0;
#X connect 38 0 40 0;
#X connect 39 0 38 1;
#X connect 40 0 41 0;
#X connect 40 1 37 1;
#X connect 41 0 38 1;
#X connect 42 0 36 0;
#X connect 43 0 42 0;
#X connect 44 0 48 0;
#X connect 45 0 44 0;
#X connect 46 0 31 0;
#X connect 46 1 45 0;
#X connect 47 0 22 0;
#X connect 48 0 42 0;
#X connect 49 0 23 0;
#X connect 49 0 47 1;
#X connect 50 0 43 0;
#X connect 50 0 48 1;
#X restore 219 148 pd max;
#N canvas 127 16 408 312 renumber 0;
#X obj 115 169 r \$0-set;
#X obj 26 48 inlet;
#X obj 26 188 text get;
#X obj 26 148 f+;
#X obj 26 128 until;
#X obj 26 208 list split 1;
#X obj 26 108 t b b f;
#X obj 87 147 sel 2;
#X obj 26 268 text set 0 0;
#X obj 26 168 t f f;
#X obj 26 68 route bang;
#X obj 26 88 0;
#X obj 26 248 f+ 0 1;
#X obj 26 228 bang;
#X text 16 8 renumber - lists int addresses consecutively \, argument
sets starting value (default 0);
#X connect 0 0 2 3;
#X connect 0 0 8 3;
#X connect 1 0 10 0;
#X connect 2 0 5 0;
#X connect 2 1 7 0;
#X connect 3 0 9 0;
#X connect 4 0 3 0;
#X connect 5 0 13 0;
#X connect 6 0 4 0;
#X connect 6 1 3 1;
#X connect 6 2 12 1;
#X connect 7 0 4 1;
#X connect 9 0 2 0;
#X connect 9 1 8 1;
#X connect 10 0 11 0;
#X connect 10 1 6 0;
#X connect 11 0 6 0;
#X connect 12 0 8 0;
#X connect 13 0 12 0;
#X restore 269 148 pd renumber;
#N canvas 127 16 405 354 separate+renumber2 0;
#X obj 115 159 r \$0-set;
#X obj 26 78 inlet;
#X obj 26 178 text get;
#X obj 26 138 f+;
#X obj 26 118 until;
#X obj 26 198 list split 1;
#X obj 26 238 >=;
#X obj 26 98 t b b f;
#X obj 87 137 sel 2;
#X obj 26 318 text set 0 0;
#X obj 26 298 + 1;
#X obj 26 218 t f f;
#X obj 26 258 sel 1;
#X obj 26 278 f;
#X obj 26 158 t f f;
#X text 16 8 separate - increments by 1 addresses from the given <int>
and above (opening a slot);
#X text 16 38 renumber2 - increments int addresses by one \, starting
from the given address (default 0);
#X connect 0 0 2 3;
#X connect 0 0 9 3;
#X connect 1 0 7 0;
#X connect 2 0 5 0;
#X connect 2 1 8 0;
#X connect 3 0 14 0;
#X connect 4 0 3 0;
#X connect 5 0 11 0;
#X connect 6 0 12 0;
#X connect 7 0 4 0;
#X connect 7 1 3 1;
#X connect 7 2 6 1;
#X connect 8 0 4 1;
#X connect 10 0 9 0;
#X connect 11 0 6 0;
#X connect 11 1 13 1;
#X connect 12 0 13 0;
#X connect 13 0 10 0;
#X connect 14 0 2 0;
#X connect 14 1 9 1;
#X restore 249 188 pd separate+renumber2;
#N canvas 127 16 448 360 insert+insert2 0;
#X obj 173 188 r \$0-set;
#X obj 26 78 inlet;
#X obj 26 98 list;
#X obj 26 118 t l l;
#X obj 53 138 list split 1;
#X obj 26 318 text insert;
#X obj 72 218 text search dummy 0;
#X obj 72 198 list split 1;
#X obj 53 158 route float;
#X text 16 8 insert - an int address and any message to insert \, increments
equal/greater addresses;
#X obj 72 258 <;
#X obj 53 178 t f f f;
#X obj 72 238 t f f;
#X obj 72 278 f;
#X obj 72 298 + 1;
#X obj 13 218 outlet;
#X obj 246 78 inlet;
#X obj 246 98 list;
#X obj 246 228 text set;
#X obj 261 158 text search dummy 0;
#X obj 261 138 list split 1;
#X obj 261 178 sel -1;
#X obj 261 198 1e+009;
#X obj 372 138 r \$0-set;
#X obj 246 118 t l l l;
#X obj 314 218 list;
#X obj 314 198 bang;
#X text 16 38 insert2 - insert - an int address and any message to
insert \, increments equal/greater addresses;
#X connect 0 0 5 2;
#X connect 0 0 6 1;
#X connect 1 0 2 0;
#X connect 2 0 3 0;
#X connect 3 0 5 0;
#X connect 3 1 4 0;
#X connect 4 0 8 0;
#X connect 6 0 12 0;
#X connect 7 0 6 0;
#X connect 8 0 11 0;
#X connect 10 0 13 0;
#X connect 11 0 15 0;
#X connect 11 1 7 0;
#X connect 11 2 10 1;
#X connect 12 0 10 0;
#X connect 12 1 13 1;
#X connect 13 0 14 0;
#X connect 14 0 5 1;
#X connect 16 0 17 0;
#X connect 17 0 24 0;
#X connect 19 0 21 0;
#X connect 20 0 19 0;
#X connect 21 0 22 0;
#X connect 21 1 26 0;
#X connect 22 0 18 1;
#X connect 23 0 19 1;
#X connect 23 0 18 3;
#X connect 24 0 18 0;
#X connect 24 1 20 0;
#X connect 24 2 25 1;
#X connect 25 0 3 0;
#X connect 26 0 25 0;
#X restore 259 168 pd insert+insert2;
#N canvas 127 16 401 232 subsym 0;
#X obj 121 78 r \$0-set;
#X obj 36 58 inlet;
#X obj 36 78 list split 1;
#X obj 46 108 text search dummy 0;
#X obj 46 128 sel -1;
#X obj 36 148 text set 0 0;
#X text 16 8 subsym - substitutes an address symbol (2nd element) by
the first given symbol;
#X connect 0 0 3 1;
#X connect 0 0 5 3;
#X connect 1 0 2 0;
#X connect 2 0 5 0;
#X connect 2 1 3 0;
#X connect 3 0 4 0;
#X connect 4 1 5 1;
#X restore 338 228 pd subsym;
#N canvas 127 16 313 232 swap 0;
#X obj 170 108 text search dummy 0;
#X obj 170 148 sel -1;
#X obj 171 58 r \$0-set;
#X obj 86 38 inlet;
#X obj 86 58 list split 1;
#X text 16 8 swap - swaps data between two addresses;
#X obj 171 188 text set 0 0;
#X obj 170 88 t l l;
#X obj 171 168 list;
#X obj 16 108 text search dummy 0;
#X obj 35 148 sel -1;
#X obj 16 188 text set 0 0;
#X obj 16 88 t l l;
#X obj 16 168 list;
#X obj 16 128 t b f b;
#X connect 0 0 1 0;
#X connect 1 1 6 1;
#X connect 2 0 0 1;
#X connect 2 0 6 3;
#X connect 2 0 9 1;
#X connect 2 0 11 3;
#X connect 3 0 4 0;
#X connect 4 0 12 0;
#X connect 4 1 7 0;
#X connect 7 0 0 0;
#X connect 7 1 13 1;
#X connect 8 0 6 0;
#X connect 9 0 14 0;
#X connect 10 1 11 1;
#X connect 12 0 9 0;
#X connect 12 1 8 1;
#X connect 13 0 11 0;
#X connect 14 0 13 0;
#X connect 14 1 10 0;
#X connect 14 2 8 0;
#X restore 328 208 pd swap;
#N canvas 127 16 388 407 delete 0;
#X obj 16 88 text search dummy 0;
#X obj 127 68 r \$0-set;
#X obj 16 48 inlet;
#X obj 16 128 text delete;
#X obj 16 68 list;
#X obj 16 108 t f f;
#X obj 195 209 r \$0-set;
#X obj 106 228 text get;
#X obj 106 188 f+;
#X obj 106 168 until;
#X obj 106 248 list split 1;
#X obj 106 148 t b b f;
#X obj 167 187 sel 2;
#X obj 106 368 text set 0 0;
#X obj 106 268 t f f;
#X obj 106 308 sel 1;
#X obj 106 328 f;
#X obj 106 208 t f f;
#X obj 106 348 - 1;
#X obj 106 288 >;
#X obj 106 128 route float;
#X text 16 8 delete - deletes the address (if an int \, higher addresses
are decremented by 1);
#X connect 0 0 5 0;
#X connect 1 0 0 1;
#X connect 1 0 3 1;
#X connect 2 0 4 0;
#X connect 4 0 0 0;
#X connect 5 0 3 0;
#X connect 5 1 20 0;
#X connect 6 0 7 3;
#X connect 6 0 13 3;
#X connect 7 0 10 0;
#X connect 7 1 12 0;
#X connect 8 0 17 0;
#X connect 9 0 8 0;
#X connect 10 0 14 0;
#X connect 11 0 9 0;
#X connect 11 1 8 1;
#X connect 11 2 19 1;
#X connect 12 0 9 1;
#X connect 14 0 19 0;
#X connect 14 1 16 1;
#X connect 15 0 16 0;
#X connect 16 0 18 0;
#X connect 17 0 7 0;
#X connect 17 1 13 1;
#X connect 18 0 13 0;
#X connect 19 0 15 0;
#X connect 20 0 11 0;
#X restore 386 168 pd delete;
#X obj 16 98 route remove merge nsub sub nth min max separate renumber
renumber2 insert insert2 swap subsym delete;
#X connect 2 0 14 0;
#X connect 4 0 3 0;
#X connect 10 0 9 0;
#X connect 14 0 0 0;
#X connect 14 1 1 0;
#X connect 14 2 4 0;
#X connect 14 3 4 1;
#X connect 14 4 5 0;
#X connect 14 5 6 0;
#X connect 14 6 7 0;
#X connect 14 7 9 0;
#X connect 14 8 8 0;
#X connect 14 9 9 0;
#X connect 14 10 10 0;
#X connect 14 11 10 1;
#X connect 14 12 12 0;
#X connect 14 13 11 0;
#X connect 14 14 13 0;
#X connect 14 15 3 0;
#X restore 187 158 pd element-ops;
#N canvas 127 16 408 166 length 0;
#X obj 103 48 r \$0-set;
#X obj 16 48 inlet;
#X obj 16 68 text size dummy;
#X obj 16 88 s \$0-outlet1;
#X text 16 8 length - sends number of stored values to the left outlet
;
#X connect 0 0 2 1;
#X connect 1 0 2 0;
#X connect 2 0 3 0;
#X restore 86 128 pd length;
#X obj 16 98 route list store length refer;
#N canvas 0 50 357 157 refer 0;
#X obj 24 32 inlet;
#X obj 24 52 s \$0-refer;
#X connect 0 0 1 0;
#X restore 80 171 pd refer;
#X text 67 38 LISTA EM check-instances TEM QUE ESTAR SEMPRE VAZIA ANTES
DE GRAVAR;
#N canvas 486 191 404 166 coll-init 0;
#X obj 19 46 inlet;
#X obj 19 66 route coll.init;
#X obj 106 86 outlet;
#X text 19 15 New operation in Pd: added so that coll can be initiated
in dynamic patching situations;
#X obj 19 86 s \$0-loadbang;
#X connect 0 0 1 0;
#X connect 1 0 4 0;
#X connect 1 1 2 0;
#X restore 187 127 pd coll-init;
#X text 11 8 [jp.coll] - store/edit message collections \, in vanilla
;
#X connect 2 0 24 0;
#X connect 10 0 15 0;
#X connect 10 1 14 0;
#X connect 10 2 12 0;
#X connect 10 3 13 0;
#X connect 10 4 20 0;
#X connect 12 0 11 0;
#X connect 13 0 11 0;
#X connect 14 0 11 0;
#X connect 16 0 1 0;
#X connect 17 0 4 0;
#X connect 18 0 5 0;
#X connect 19 0 6 0;
#X connect 20 0 24 0;
#X connect 21 0 10 0;
#X connect 22 0 21 0;
#X connect 24 0 9 0;
#X connect 24 1 9 0;
#X connect 24 2 23 0;
#X connect 24 3 25 0;
#X connect 24 4 27 0;
#X connect 27 0 22 0;
