#N canvas 0 50 648 361 10;
#N canvas 0 50 396 416 license 0;
#X text 8 47 All rights reserved.;
#X text 8 227 The names of its contributors may not be used to endorse
or promote products derived from this software without specific prior
written permission.;
#X text 8 87 Redistribution and use in source and binary forms \, with
or without modification \, are permitted provided that the following
conditions are met:;
#X text 8 127 Redistributions of source code must retain the above
copyright notice \, this list of conditions and the following disclaimer.
;
#X text 8 297 THIS SOFTWARE IS PROVIDED BY THE COPYRIGHT HOLDERS AND
CONTRIBUTORS "AS IS" AND ANY EXPRESS OR IMPLIED WARRANTIES \, INCLUDING
\, BUT NOT LIMITED TO \, THE IMPLIED WARRANTIES OF MERCHANTABILITY
AND FITNESS FOR A PARTICULAR PURPOSE ARE DISCLAIMED. IN NO EVENT SHALL
THE COPYRIGHT OWNER OR CONTRIBUTORS BE LIABLE FOR ANY DIRECT \, INDIRECT
\, INCIDENTAL \, SPECIAL \, EXEMPLARY \, OR CONSEQUENTIAL DAMAGES (INCLUDING
\, BUT NOT LIMITED TO \, PROCUREMENT OF SUBSTITUTE GOODS OR SERVICES
;
#X text 8 167 Redistributions in binary form must reproduce the above
copyright notice \, this list of conditions and the following disclaimer
in the documentation and/or other materials provided with the distribution.
;
#X text 8 27 jmmmpais@gmail.com;
#X text 8 7 Copyright 2019 \, João Pais;
#X restore 12 321 pd license;
#N canvas 564 268 494 240 META 0;
#X text 12 55 AUTHOR João Pais <jmmmpais@gmail.com>;
#X text 12 95 LICENSE BSD;
#X text 12 75 LIBRARY jmmmp;
#X text 13 115 WEBSITE http://puredata.info/Members/jmmmp;
#X text 14 165 INLET_0 - all operations;
#X text 14 205 OUTLET_0 - all output;
#X text 12 135 VERSION 0.58;
#X text 12 6 DESCRIPTION split a symbol \, using a character as separator.
;
#X text 12 36 KEYWORDS symbol split;
#X text 14 185 INLET_1 - all operations;
#X restore 102 321 pd META;
#X text 10 301 (C) 2019 João Pais - jmmmpais@gmail.com;
#X obj 22 261 print first;
#X msg 22 131 symbol 123.456.789;
#X msg 32 151 symbol c:/test/path/file.txt;
#X obj 133 261 print last;
#X text 452 131 Inlet;
#X text 452 201 Outlet;
#X text 452 221 - serialized list;
#X text 452 151 - symbol to split;
#X msg 153 221 7;
#X text 452 171 - separator (symbol or float);
#X text 11 11 [jp.split-symb-first] and [jp.split-symb-last]- split
a symbol \, using a character as separator.;
#X msg 133 181 symbol .;
#X msg 143 201 symbol /;
#X obj 242 241 jp.split-symb-last;
#X obj 242 261 print first;
#X msg 242 131 symbol 123.456.789;
#X msg 252 151 symbol c:/test/path/file.txt;
#X obj 347 261 print last;
#X msg 367 221 7;
#X msg 347 181 symbol .;
#X msg 357 201 symbol /;
#X obj 22 241 jp.split-symb-first;
#X text 11 41 The separator can be a single-letter symbol or a single-digit
float.;
#X text 11 71 In case the separator element is used more than once
in the symbol \, the first or last one is relevant - as well as the
output choice.;
#X connect 4 0 24 0;
#X connect 5 0 24 0;
#X connect 11 0 24 1;
#X connect 14 0 24 1;
#X connect 15 0 24 1;
#X connect 16 0 17 0;
#X connect 16 1 20 0;
#X connect 18 0 16 0;
#X connect 19 0 16 0;
#X connect 21 0 16 1;
#X connect 22 0 16 1;
#X connect 23 0 16 1;
#X connect 24 0 3 0;
#X connect 24 1 6 0;
