#N canvas 300 95 730 535 10;
#X obj 20 52 inlet;
#X obj 133 92 outlet;
#X obj 168 342 jp.coll;
#X obj 141 302 list prepend;
#X obj 141 322 t l l;
#X obj 311 492 netsend -u -b;
#X obj 321 452 list prepend send;
#X obj 321 472 list trim;
#X msg 311 412 disconnect \, connect \$1 \$2;
#X obj 210 282 f+ 1 1;
#X text 148 241 assign id (1->);
#X msg 260 322 open;
#X msg 260 302 clear;
#X obj 168 372 list prepend;
#X obj 311 372 symbol \$2;
#X obj 311 392 pack s \$3;
#X obj 82 92 t b b;
#X msg 109 112 init;
#N canvas 560 280 349 164 once 0;
#X obj 23 48 spigot 1;
#X obj 23 68 t b b;
#X obj 23 108 outlet;
#X obj 50 88 0;
#X text 46 8 Once;
#X obj 23 28 r \$0-init;
#X connect 0 0 1 0;
#X connect 1 0 2 0;
#X connect 1 1 3 0;
#X connect 3 0 0 1;
#X connect 5 0 0 0;
#X restore 226 162 pd once;
#X obj 141 392 list prepend \$4;
#X msg 188 222 coll.init;
#X obj 258 202 1;
#X obj 20 182 route resend remove;
#X msg 75 202 remove \$1;
#X text 30 162 feedback commands from sender;
#X text 20 32 Parameters: username \, ip \, port \, sendername \, \$0.
;
#X obj 82 132 s \$0-init;
#X obj 439 92 inlet;
#X obj 484 132 outlet;
#X obj 439 152 t l l;
#X obj 449 172 list split 1;
#X obj 466 352 t f f f;
#X text 480 152 check if id is the next in order;
#X text 515 352 sends confirmation to sender;
#X obj 466 292 list split 1;
#X obj 594 222 + 1;
#X msg 485 372 remove \$1;
#X obj 510 312 s \$5-osc-local;
#X obj 485 392 list prepend \$4;
#X text 60 52 SEND;
#X text 389 92 RECEIVE;
#X obj 258 222 s \$0-init1;
#X obj 243 262 r \$0-init1;
#X obj 624 222 r \$0-init1;
#X text 20 12 Abstraction for sorting of GD user;
#X obj 485 412 oscformat landini/msg/GD-reply;
#X obj 141 412 oscformat landini/msg/GD;
#X msg 610 332 resend;
#X obj 449 242 expr if($f1 == $f2 \, -1 \, $f1);
#X obj 449 262 sel -1;
#X obj 610 312 t b f;
#X text 496 262 If Id doesn't match sequence \, adjust and resend hanging
messages., f 35;
#N canvas 0 50 353 215 perf_GD_IDs 0;
#X obj 105 130 array define \$0-GD-performed_GD_IDs;
#X obj 85 70 t f f;
#X obj 85 50 expr max($f1 \, $f2);
#X obj 85 90 + 1;
#X obj 85 110 array size \$0-GD-performed_GD_IDs;
#X obj 16 30 inlet;
#X text 17 10 stores performed GD IDs. If performed \, ID = 1;
#X obj 16 170 array set \$0-GD-performed_GD_IDs;
#X obj 16 150 1;
#X obj 16 50 t b f f;
#X connect 1 0 3 0;
#X connect 1 1 2 1;
#X connect 2 0 1 0;
#X connect 3 0 4 0;
#X connect 5 0 9 0;
#X connect 8 0 7 0;
#X connect 9 0 8 0;
#X connect 9 1 7 1;
#X connect 9 2 2 0;
#X restore 476 212 pd perf_GD_IDs;
#X obj 449 192 t f f;
#N canvas 196 62 326 331 resend 0;
#X obj 17 30 inlet;
#X text 17 10 finds out which indexes weren't written;
#X obj 98 40 inlet;
#X obj 44 140 f+ 1 1;
#X obj 17 60 expr $f3 - $f2;
#X obj 44 180 array get \$0-GD-performed_GD_IDs 1 1;
#X obj 17 80 sel 0;
#X obj 44 100 until;
#X obj 60 120 r \$0-init1;
#X obj 44 200 sel 0;
#X obj 44 220 f;
#X obj 44 160 t f f f;
#X msg 106 140 0;
#X obj 44 240 outlet;
#X connect 0 0 4 0;
#X connect 2 0 4 2;
#X connect 3 0 11 0;
#X connect 4 0 6 0;
#X connect 5 0 9 0;
#X connect 6 1 7 0;
#X connect 7 0 3 0;
#X connect 8 0 3 1;
#X connect 8 0 12 0;
#X connect 9 0 10 0;
#X connect 10 0 13 0;
#X connect 11 0 5 0;
#X connect 11 1 10 1;
#X connect 11 2 4 1;
#X connect 12 0 4 1;
#X restore 20 282 pd resend;
#X msg 288 182 const 0;
#X obj 288 202 s \$0-GD-performed_GD_IDs;
#X obj 278 162 r \$5-gd-reset;
#X obj 260 282 r \$5-gd-reset;
#X obj 439 112 route \$1;
#X obj 20 72 route \$1 \$2 init;
#X obj 141 262 t a b;
#X connect 0 0 60 0;
#X connect 2 0 13 0;
#X connect 2 1 13 1;
#X connect 3 0 4 0;
#X connect 4 0 19 0;
#X connect 4 1 2 0;
#X connect 6 0 7 0;
#X connect 7 0 5 0;
#X connect 8 0 5 0;
#X connect 9 0 3 1;
#X connect 9 0 54 1;
#X connect 11 0 2 0;
#X connect 12 0 2 0;
#X connect 13 0 19 0;
#X connect 14 0 15 0;
#X connect 15 0 8 0;
#X connect 16 0 26 0;
#X connect 16 1 17 0;
#X connect 17 0 1 0;
#X connect 18 0 14 0;
#X connect 18 0 21 0;
#X connect 18 0 20 0;
#X connect 18 0 9 1;
#X connect 19 0 46 0;
#X connect 20 0 2 0;
#X connect 21 0 41 0;
#X connect 22 0 54 0;
#X connect 22 1 23 0;
#X connect 22 2 61 0;
#X connect 23 0 2 0;
#X connect 27 0 59 0;
#X connect 29 0 30 0;
#X connect 29 1 34 0;
#X connect 30 0 53 0;
#X connect 31 1 36 0;
#X connect 31 2 35 0;
#X connect 34 0 31 0;
#X connect 34 1 37 0;
#X connect 35 0 48 1;
#X connect 36 0 38 0;
#X connect 38 0 45 0;
#X connect 42 0 9 2;
#X connect 43 0 48 1;
#X connect 45 0 6 0;
#X connect 46 0 6 0;
#X connect 47 0 38 0;
#X connect 48 0 49 0;
#X connect 49 1 50 0;
#X connect 50 0 47 0;
#X connect 50 1 35 0;
#X connect 53 0 48 0;
#X connect 53 1 52 0;
#X connect 54 0 2 0;
#X connect 55 0 56 0;
#X connect 57 0 21 0;
#X connect 57 0 55 0;
#X connect 58 0 12 0;
#X connect 58 0 9 1;
#X connect 59 0 29 0;
#X connect 59 1 28 0;
#X connect 60 0 22 0;
#X connect 60 1 22 0;
#X connect 60 2 16 0;
#X connect 60 3 1 0;
#X connect 61 0 3 0;
#X connect 61 1 9 0;
