#N canvas 547 93 740 535 10;
#X obj 12 52 inlet;
#X obj 125 92 outlet;
#X obj 160 342 jp.coll;
#X obj 133 302 list prepend;
#X obj 133 322 t l l;
#X obj 303 492 netsend -u -b;
#X obj 313 452 list prepend send;
#X obj 313 472 list trim;
#X msg 303 412 disconnect \, connect \$1 \$2;
#X obj 202 282 f+ 1 1;
#X text 150 241 assign id (1->);
#X obj 133 412 oscformat landini/msg/OGD;
#X msg 252 332 open;
#X msg 252 302 clear;
#X obj 160 372 list prepend;
#X obj 12 252 until;
#X obj 12 272 f+ 1 1;
#X obj 12 212 t f f;
#X obj 12 232 expr $f2 - $f1 + 1;
#X obj 303 372 symbol \$2;
#X obj 303 392 pack s \$3;
#X obj 74 92 t b b;
#X msg 101 112 init;
#N canvas 560 280 349 164 once 0;
#X obj 23 48 spigot 1;
#X obj 23 68 t b b;
#X obj 23 108 outlet;
#X obj 50 88 0;
#X text 46 8 Once;
#X obj 23 28 r \$0-init;
#X connect 0 0 1 0;
#X connect 1 0 2 0;
#X connect 1 1 3 0;
#X connect 3 0 0 1;
#X connect 5 0 0 0;
#X restore 218 162 pd once;
#X text 12 12 Abstraction for sorting of OGD user;
#X obj 133 392 list prepend \$4;
#X obj 270 162 r \$5-ogd-reset;
#X msg 230 222 coll.init;
#X obj 270 182 1;
#X obj 12 182 route resend remove;
#X msg 57 202 remove \$1;
#X text 22 162 feedback commands from sender;
#X text 12 32 Parameters: username \, ip \, port \, sendername \, \$0.
;
#X obj 74 132 s \$0-init;
#X obj 432 52 inlet;
#X obj 495 92 outlet;
#X obj 432 112 t l l;
#X obj 432 132 list split 1;
#X obj 461 282 jp.coll;
#X obj 461 222 list;
#X obj 432 202 sel 0 1;
#X obj 474 352 t f f f;
#X text 473 112 check if id is the next in order;
#X text 523 352 sends confirmation to sender;
#X msg 392 333 open;
#X msg 392 303 clear;
#X obj 461 262 list split 1;
#X obj 461 242 t l l;
#X obj 540 152 + 1;
#X msg 392 262 resend \$1;
#X obj 392 242 f 1;
#X obj 493 412 oscformat landini/msg/OGD-reply;
#X msg 414 372 remove \$1;
#X msg 493 372 remove \$1;
#X obj 461 302 s \$5-osc-local;
#X obj 493 392 list prepend \$4;
#X text 52 52 SEND;
#X text 382 52 RECEIVE;
#X obj 432 162 f;
#X obj 513 132 t b f;
#X obj 270 202 s \$0-init1;
#X obj 235 262 r \$0-init1;
#X obj 55 252 r \$0-init1;
#X obj 603 162 r \$0-init1;
#X obj 311 283 r \$5-ogd-reset;
#X obj 432 182 expr if($f1 == $f2 \, 1 \, $f1-1);
#X text 489 202 If Id doesn't match sequence \, adjust.;
#X obj 432 72 route \$1 \$2;
#X obj 12 72 route \$1 \$2 init;
#X obj 133 262 t a b;
#X connect 0 0 68 0;
#X connect 2 0 14 0;
#X connect 2 1 14 1;
#X connect 3 0 4 0;
#X connect 4 0 25 0;
#X connect 4 1 2 0;
#X connect 6 0 7 0;
#X connect 7 0 5 0;
#X connect 8 0 5 0;
#X connect 9 0 3 1;
#X connect 9 0 18 1;
#X connect 11 0 6 0;
#X connect 12 0 2 0;
#X connect 13 0 2 0;
#X connect 14 0 25 0;
#X connect 15 0 16 0;
#X connect 16 0 2 0;
#X connect 17 0 18 0;
#X connect 17 1 16 1;
#X connect 18 0 15 0;
#X connect 19 0 20 0;
#X connect 20 0 8 0;
#X connect 21 0 33 0;
#X connect 21 1 22 0;
#X connect 22 0 1 0;
#X connect 23 0 19 0;
#X connect 23 0 28 0;
#X connect 23 0 27 0;
#X connect 23 0 9 1;
#X connect 25 0 11 0;
#X connect 26 0 28 0;
#X connect 27 0 2 0;
#X connect 27 0 38 0;
#X connect 28 0 60 0;
#X connect 29 0 17 0;
#X connect 29 1 30 0;
#X connect 29 2 69 0;
#X connect 30 0 2 0;
#X connect 34 0 67 0;
#X connect 36 0 37 0;
#X connect 36 1 39 1;
#X connect 37 0 58 0;
#X connect 38 0 54 0;
#X connect 38 1 41 0;
#X connect 39 0 47 0;
#X connect 40 0 50 0;
#X connect 40 1 39 0;
#X connect 40 2 59 0;
#X connect 41 0 52 0;
#X connect 41 1 53 0;
#X connect 41 2 48 0;
#X connect 44 0 38 0;
#X connect 45 0 38 0;
#X connect 46 0 38 0;
#X connect 47 0 46 0;
#X connect 47 1 38 0;
#X connect 48 0 50 1;
#X connect 48 0 65 1;
#X connect 49 0 55 0;
#X connect 50 0 49 0;
#X connect 51 0 6 0;
#X connect 52 0 38 0;
#X connect 53 0 55 0;
#X connect 55 0 51 0;
#X connect 58 0 65 0;
#X connect 59 0 58 0;
#X connect 59 1 48 0;
#X connect 61 0 9 2;
#X connect 62 0 16 2;
#X connect 63 0 65 1;
#X connect 64 0 13 0;
#X connect 64 0 45 0;
#X connect 64 0 9 1;
#X connect 65 0 40 0;
#X connect 67 0 36 0;
#X connect 67 1 36 0;
#X connect 67 2 35 0;
#X connect 68 0 29 0;
#X connect 68 1 29 0;
#X connect 68 2 21 0;
#X connect 68 3 1 0;
#X connect 69 0 3 0;
#X connect 69 1 9 0;
