#N canvas 756 38 756 916 12;
#X obj 176 250 r pa1;
#X obj 176 274 vline~;
#X obj 176 319 *~;
#X obj 260 360 *~ 0.25;
#X obj 260 388 dac~;
#X obj 258 247 r pa2;
#X obj 258 271 vline~;
#X obj 258 320 *~;
#X obj 193 296 osc~ 200;
#X obj 349 273 vline~;
#X obj 349 322 *~;
#X obj 367 297 osc~ 600;
#X obj 437 274 vline~;
#X obj 437 323 *~;
#X obj 276 295 osc~ 400;
#X obj 455 298 osc~ 800;
#X obj 349 249 r pa3;
#X obj 437 250 r pa4;
#X obj 5 521 spectrogram~;
#X obj 587 621 spectrogram~;
#X obj 635 333 spectrogram~;
#X obj 681 67 spectrogram~;
#X msg 167 114 \; pa1 0.8 5 0 \, 1 200 50 \, 0.5 900 250 \, 0 1000 1150 \; pa2 0.8 1 0 \, 0.35 200 100 \, 0.2 1200 1200 \, 0 2000 1400 \; pa3 0.9 1 0 \, 0.45 500 120 \, 0 1000 2000 \; pa4 0.95 4 0 \, 0.2 400 500 \, 0.3 900 900 \, 0 100 1900;
#X connect 0 0 1 0;
#X connect 1 0 2 0;
#X connect 2 0 3 0;
#X connect 2 0 18 0;
#X connect 3 0 4 0;
#X connect 3 0 4 1;
#X connect 5 0 6 0;
#X connect 6 0 7 0;
#X connect 7 0 3 0;
#X connect 7 0 19 0;
#X connect 8 0 2 1;
#X connect 9 0 10 0;
#X connect 10 0 3 0;
#X connect 10 0 20 0;
#X connect 11 0 10 1;
#X connect 12 0 13 0;
#X connect 13 0 3 0;
#X connect 13 0 21 0;
#X connect 14 0 7 1;
#X connect 15 0 13 1;
#X connect 16 0 9 0;
#X connect 17 0 12 0;
