#N canvas 0 38 756 916 12;
#N canvas 0 38 756 916 discrete-summation 1;
#X floatatom 37 68 5 0 0 0 - - -, f 5;
#X obj 37 99 sig~;
#X obj 37 173 phasor~;
#X obj 36 234 -~ 0.25;
#X obj 36 290 cos~;
#X obj 36 369 -~;
#X obj 37 451 /~;
#X obj 38 528 *~ 0.25;
#X obj 39 592 dac~;
#X obj 222 103 sig~;
#X obj 223 52 r dist;
#X obj 204 140 *~;
#X obj 205 166 phasor~;
#X obj 121 209 -~;
#X obj 121 233 -~ 0.25;
#X obj 121 289 cos~;
#X obj 121 327 *~;
#X obj 202 227 r index;
#X obj 202 283 sig~;
#X obj 201 356 *~;
#X obj 149 385 +~;
#X obj 149 409 -~;
#X obj 150 353 sig~ 1;
#X obj 260 327 *~ 2;
#X obj 260 362 *~;
#X obj 278 234 cos~;
#X floatatom 364 282 5 0 0 0 - - -, f 5;
#X obj 364 305 / 100;
#X obj 364 329 s dist;
#X floatatom 463 280 5 0 0 0 - - -, f 5;
#X obj 463 327 s index;
#X obj 396 85 vsl 19 162 -500 500 0 0 empty empty empty 0 -9 0 12 #fcfcfc
#000000 #000000 9300 1;
#X obj 466 86 vsl 19 162 0 200 0 0 empty empty empty 0 -9 0 12 #fcfcfc
#000000 #000000 9400 1;
#X obj 102 583 spectrogram~;
#X obj 37 40 bng 19 250 50 0 empty empty empty 0 -10 0 12 #fcfcfc #000000
#000000;
#X obj 332 252 bng 19 250 50 0 empty empty empty 0 -10 0 12 #fcfcfc
#000000 #000000;
#X obj 429 245 bng 19 250 50 0 empty empty empty 0 -10 0 12 #fcfcfc
#000000 #000000;
#X floatatom 223 78 5 0 0 0 - - -, f 5;
#X floatatom 202 257 5 0 0 0 - - -, f 5;
#N canvas 0 22 450 300 (subpatch) 0;
#X array oscilloscope 64 float 0 black black;
#X coords 0 1 63 -1 200 140 1;
#X restore 389 409 graph;
#X floatatom 102 474 5 0 0 0 - - -, f 5;
#X obj 38 504 lop~;
#X obj 151 554 tabwrite~ oscilloscope;
#X obj 152 505 metro 80;
#X obj 168 466 bng 15 250 50 0 empty empty empty 17 7 0 10 #fcfcfc
#000000 #000000;
#X floatatom 219 455 5 0 0 0 - - -, f 5;
#X obj 463 303 / 100;
#X obj 281 177 inlet distance;
#X obj 520 206 inlet index;
#X obj 80 38 inlet fundamental;
#X connect 0 0 1 0;
#X connect 1 0 2 0;
#X connect 1 0 11 0;
#X connect 2 0 3 0;
#X connect 2 0 13 0;
#X connect 3 0 4 0;
#X connect 4 0 5 0;
#X connect 5 0 6 0;
#X connect 6 0 41 0;
#X connect 7 0 8 0;
#X connect 7 0 8 1;
#X connect 7 0 33 0;
#X connect 7 0 42 0;
#X connect 9 0 11 1;
#X connect 10 0 37 0;
#X connect 11 0 12 0;
#X connect 12 0 25 0;
#X connect 12 0 13 1;
#X connect 13 0 14 0;
#X connect 14 0 15 0;
#X connect 15 0 16 0;
#X connect 16 0 5 1;
#X connect 17 0 38 0;
#X connect 18 0 19 0;
#X connect 18 0 16 1;
#X connect 18 0 23 0;
#X connect 18 0 19 1;
#X connect 19 0 20 0;
#X connect 20 0 21 0;
#X connect 21 0 6 1;
#X connect 22 0 20 0;
#X connect 23 0 24 0;
#X connect 24 0 21 1;
#X connect 25 0 24 1;
#X connect 26 0 27 0;
#X connect 27 0 28 0;
#X connect 29 0 46 0;
#X connect 31 0 26 0;
#X connect 32 0 29 0;
#X connect 34 0 0 0;
#X connect 35 0 26 0;
#X connect 36 0 29 0;
#X connect 37 0 9 0;
#X connect 38 0 18 0;
#X connect 40 0 41 1;
#X connect 41 0 7 0;
#X connect 43 0 42 0;
#X connect 44 0 43 0;
#X connect 45 0 43 1;
#X connect 46 0 30 0;
#X connect 47 0 26 0;
#X connect 48 0 29 0;
#X connect 49 0 0 0;
#X restore 225 515 pd discrete-summation;
#X floatatom 181 446 5 0 0 0 - - -, f 5;
#X floatatom 277 437 5 0 0 0 - - -, f 5;
#X floatatom 373 438 5 0 0 0 - - -, f 5;
#X obj 242 471 bng 15 250 50 0 empty empty empty 17 7 0 10 #fcfcfc
#000000 #000000;
#X obj 324 467 bng 15 250 50 0 empty empty empty 17 7 0 10 #fcfcfc
#000000 #000000;
#X obj 407 470 bng 15 250 50 0 empty empty empty 17 7 0 10 #fcfcfc
#000000 #000000;
#X connect 1 0 0 0;
#X connect 2 0 0 1;
#X connect 3 0 0 2;
#X connect 4 0 0 0;
#X connect 5 0 0 1;
#X connect 6 0 0 2;
