#N canvas 590 49 756 916 12;
#X floatatom 124 77 5 0 0 0 - - -, f 5;
#X obj 124 107 sig~;
#X obj 124 181 phasor~;
#X obj 123 242 -~ 0.25;
#X obj 123 298 cos~;
#X obj 123 377 -~;
#X obj 124 459 /~;
#X obj 125 536 *~ 0.25;
#X obj 126 600 dac~;
#X obj 309 111 sig~;
#X obj 291 148 *~;
#X obj 292 174 phasor~;
#X obj 208 217 -~;
#X obj 208 241 -~ 0.25;
#X obj 208 297 cos~;
#X obj 208 335 *~;
#X obj 289 291 sig~;
#X obj 288 364 *~;
#X obj 236 393 +~;
#X obj 236 417 -~;
#X obj 237 361 sig~ 1;
#X obj 347 335 *~ 2;
#X obj 347 370 *~;
#X obj 365 242 cos~;
#X floatatom 451 290 5 0 0 0 - - -, f 5;
#X obj 451 313 / 100;
#X floatatom 550 288 5 0 0 0 - - -, f 5;
#X obj 484 103 vsl 19 162 -500 500 0 0 empty empty empty 0 -9 0 12
#fcfcfc #000000 #000000 8600 1;
#X obj 553 94 vsl 19 162 0 200 0 0 empty empty empty 0 -9 0 12 #fcfcfc
#000000 #000000 8800 1;
#X obj 189 591 spectrogram~;
#X obj 124 48 bng 19 250 50 0 empty empty empty 0 -10 0 12 #fcfcfc
#000000 #000000;
#X obj 419 260 bng 19 250 50 0 empty empty empty 0 -10 0 12 #fcfcfc
#000000 #000000;
#X obj 516 253 bng 19 250 50 0 empty empty empty 0 -10 0 12 #fcfcfc
#000000 #000000;
#X floatatom 310 86 5 0 0 0 - - -, f 5;
#X floatatom 289 265 5 0 0 0 - - -, f 5;
#N canvas 0 22 450 300 (subpatch) 0;
#X array oscilloscope 64 float 0 black black;
#X coords 0 1 63 -1 200 140 1;
#X restore 476 417 graph;
#X floatatom 189 482 5 0 0 0 - - -, f 5;
#X obj 125 512 lop~;
#X obj 238 562 tabwrite~ oscilloscope;
#X obj 239 513 metro 80;
#X obj 255 474 bng 15 250 50 0 empty empty empty 17 7 0 10 #fcfcfc
#000000 #000000;
#X floatatom 306 463 5 0 0 0 - - -, f 5;
#X obj 550 311 / 100;
#X obj 451 337 s \$0-dist;
#X obj 310 60 r \$0-dist;
#X obj 550 335 s \$0-index;
#X obj 289 235 r \$0-index;
#X connect 0 0 1 0;
#X connect 1 0 2 0;
#X connect 1 0 10 0;
#X connect 2 0 3 0;
#X connect 2 0 12 0;
#X connect 3 0 4 0;
#X connect 4 0 5 0;
#X connect 5 0 6 0;
#X connect 6 0 37 0;
#X connect 7 0 8 0;
#X connect 7 0 8 1;
#X connect 7 0 29 0;
#X connect 7 0 38 0;
#X connect 9 0 10 1;
#X connect 10 0 11 0;
#X connect 11 0 23 0;
#X connect 11 0 12 1;
#X connect 12 0 13 0;
#X connect 13 0 14 0;
#X connect 14 0 15 0;
#X connect 15 0 5 1;
#X connect 16 0 17 0;
#X connect 16 0 15 1;
#X connect 16 0 21 0;
#X connect 16 0 17 1;
#X connect 17 0 18 0;
#X connect 18 0 19 0;
#X connect 19 0 6 1;
#X connect 20 0 18 0;
#X connect 21 0 22 0;
#X connect 22 0 19 1;
#X connect 23 0 22 1;
#X connect 24 0 25 0;
#X connect 25 0 43 0;
#X connect 26 0 42 0;
#X connect 27 0 24 0;
#X connect 28 0 26 0;
#X connect 30 0 0 0;
#X connect 31 0 24 0;
#X connect 32 0 26 0;
#X connect 33 0 9 0;
#X connect 34 0 16 0;
#X connect 36 0 37 1;
#X connect 37 0 7 0;
#X connect 39 0 38 0;
#X connect 40 0 39 0;
#X connect 41 0 39 1;
#X connect 42 0 45 0;
#X connect 44 0 33 0;
#X connect 46 0 34 0;
