#N canvas 0 50 392 261 10;
#N canvas 0 50 396 416 license 0;
#X text 8 47 All rights reserved.;
#X text 8 227 The names of its contributors may not be used to endorse
or promote products derived from this software without specific prior
written permission.;
#X text 8 87 Redistribution and use in source and binary forms \, with
or without modification \, are permitted provided that the following
conditions are met:;
#X text 8 127 Redistributions of source code must retain the above
copyright notice \, this list of conditions and the following disclaimer.
;
#X text 8 297 THIS SOFTWARE IS PROVIDED BY THE COPYRIGHT HOLDERS AND
CONTRIBUTORS "AS IS" AND ANY EXPRESS OR IMPLIED WARRANTIES \, INCLUDING
\, BUT NOT LIMITED TO \, THE IMPLIED WARRANTIES OF MERCHANTABILITY
AND FITNESS FOR A PARTICULAR PURPOSE ARE DISCLAIMED. IN NO EVENT SHALL
THE COPYRIGHT OWNER OR CONTRIBUTORS BE LIABLE FOR ANY DIRECT \, INDIRECT
\, INCIDENTAL \, SPECIAL \, EXEMPLARY \, OR CONSEQUENTIAL DAMAGES (INCLUDING
\, BUT NOT LIMITED TO \, PROCUREMENT OF SUBSTITUTE GOODS OR SERVICES
;
#X text 8 167 Redistributions in binary form must reproduce the above
copyright notice \, this list of conditions and the following disclaimer
in the documentation and/or other materials provided with the distribution.
;
#X text 8 27 jmmmpais@gmail.com;
#X text 8 7 Copyright 2019 \, João Pais;
#X restore 12 221 pd license;
#N canvas 564 268 494 254 META 0;
#X text 12 55 AUTHOR João Pais <jmmmpais@gmail.com>;
#X text 12 95 LICENSE BSD;
#X text 12 75 LIBRARY jmmmp;
#X text 13 115 WEBSITE http://puredata.info/Members/jmmmp;
#X text 14 165 INLET_0 - all operations;
#X text 14 185 OUTLET_0 - all output;
#X text 12 6 DESCRIPTION similar to other versions of list-drip;
#X text 12 135 VERSION 0.58;
#X text 12 36 KEYWORDS list serialize;
#X restore 102 221 pd META;
#X text 10 201 (C) 2019 João Pais - jmmmpais@gmail.com;
#X text 12 41 Drips or serializes a list \, that is \, it sends all
elements one after another.;
#X text 241 111 - list to serialize;
#X text 242 91 Inlet;
#X text 241 161 - serialized list;
#X text 241 141 Outlet;
#X obj 22 141 jp.list-drip;
#X obj 22 161 print;
#X msg 22 91 1 2 3 4 5 6 7 8 9 10;
#X msg 32 111 a b c -1 -2 -3 g h i -7 -8 -9;
#X text 11 11 [jp.list-drip] - similar to other versions of list-drip
;
#X connect 8 0 9 0;
#X connect 10 0 8 0;
#X connect 11 0 8 0;
