#N canvas 120 223 624 356 10;
#N canvas 0 50 396 416 license 0;
#X text 8 47 All rights reserved.;
#X text 8 227 The names of its contributors may not be used to endorse
or promote products derived from this software without specific prior
written permission.;
#X text 8 87 Redistribution and use in source and binary forms \, with
or without modification \, are permitted provided that the following
conditions are met:;
#X text 8 127 Redistributions of source code must retain the above
copyright notice \, this list of conditions and the following disclaimer.
;
#X text 8 297 THIS SOFTWARE IS PROVIDED BY THE COPYRIGHT HOLDERS AND
CONTRIBUTORS "AS IS" AND ANY EXPRESS OR IMPLIED WARRANTIES \, INCLUDING
\, BUT NOT LIMITED TO \, THE IMPLIED WARRANTIES OF MERCHANTABILITY
AND FITNESS FOR A PARTICULAR PURPOSE ARE DISCLAIMED. IN NO EVENT SHALL
THE COPYRIGHT OWNER OR CONTRIBUTORS BE LIABLE FOR ANY DIRECT \, INDIRECT
\, INCIDENTAL \, SPECIAL \, EXEMPLARY \, OR CONSEQUENTIAL DAMAGES (INCLUDING
\, BUT NOT LIMITED TO \, PROCUREMENT OF SUBSTITUTE GOODS OR SERVICES
;
#X text 8 167 Redistributions in binary form must reproduce the above
copyright notice \, this list of conditions and the following disclaimer
in the documentation and/or other materials provided with the distribution.
;
#X text 8 27 jmmmpais@gmail.com;
#X text 8 7 Copyright 2020 \, João Pais;
#X restore 12 314 pd license;
#N canvas 139 65 384 225 META 0;
#X text 12 55 AUTHOR João Pais <jmmmpais@gmail.com>;
#X text 12 95 LICENSE BSD;
#X text 12 75 LIBRARY jmmmp;
#X text 13 115 WEBSITE http://puredata.info/Members/jmmmp;
#X text 12 6 DESCRIPTION like vanilla's change \, but for symbols;
#X text 12 36 KEYWORDS symbol;
#X text 12 135 VERSION 0.61;
#X text 14 165 INLET_0 - symbol \, bang \, set;
#X text 14 185 OUTLET_0 - symbol output;
#X restore 102 314 pd META;
#X text 249 251 ARGUMENTS;
#X text 9 296 (C) 2020 João Pais - jmmmpais@gmail.com;
#X text 249 111 INLETS;
#X text 249 201 OUTLETS;
#X text 271 151 bang - output current value;
#X text 250 131 0) symbol - outputs symbol if different than previous
one;
#X text 250 271 1) symbol - creation argument initializes first value
;
#X text 250 221 symbol - the scaled values according to output range
;
#X text 271 171 set \$1 - set the stored value;
#X floatatom 92 221 5 0 0 0 - - -;
#X obj 137 221 bng 15 250 50 0 empty empty empty 17 7 0 10 -262144
-1 -1;
#X msg 92 151 clear;
#X msg 142 151 seed \$1;
#X floatatom 142 131 5 0 0 0 - - -;
#X floatatom 137 181 5 0 0 0 - - -;
#X obj 62 151 bng 15 250 50 0 empty empty empty 17 7 0 10 -262144 -1
-1;
#X obj 92 201 jp.urn 4;
#X text 11 11 [jp.urn] - unrepeated random numbers. As in the cyclone
object but in vanilla.;
#X text 12 51 [urn] generates random numbers in a range defined by
the 'n' size (from 0 to n-1) without repeating them. When all numbers
have been output \, a bang is sent to the right outlet and it stops
generating numbers unless it receives a clear message.;
#X connect 13 0 18 0;
#X connect 14 0 18 0;
#X connect 15 0 14 0;
#X connect 16 0 18 1;
#X connect 17 0 18 0;
#X connect 18 0 11 0;
#X connect 18 1 12 0;
