#N canvas 0 50 389 187 10;
#X text 12 139 Released under the BSD License;
#N canvas 586 176 494 344 META 0;
#X text 12 95 LICENSE BSD;
#X text 12 75 LIBRARY jmmmp;
#X text 13 115 WEBSITE http://puredata.info/Members/jmmmp;
#X text 12 55 AUTHOR Jo„o Pais <jmmmpais@gmail.com>;
#X text 12 6 DESCRIPTION Synchronize Live and Reaper;
#X text 12 36 KEYWORDS synchronization transport Live Reaper OSC link~
;
#X text 12 135 VERSION 2020;
#X restore 262 146 pd META;
#X text 13 45 See the abstraction for further details.;
#X text 13 15 [live2reaper] - Synchronizer from Ableton Live to Cuckos
Reaper \, though Ableton Link.;
#X text 11 122 (C) 2020 Jo√£o Pais - jmmmpais@gmail.com;
#X obj 107 81 live2reaper;
