#N canvas 152 70 454 495 10;
#X text 115 254 <- 0dB;
#X text 12 457 Released under the BSD License;
#N canvas 0 0 396 219 signal 0;
#X obj 47 75 random 7;
#X obj 47 54 metrum 400 1;
#X obj 47 115 sig~;
#X obj 214 112 line;
#X obj 214 132 outlet;
#X obj 214 72 t b b;
#X obj 214 52 loadbang;
#X msg 214 92 0 \, 100 6000;
#X obj 254 112 del 9000;
#X obj 47 135 outlet~;
#X obj 47 95 / 4;
#X connect 0 0 10 0;
#X connect 1 0 0 0;
#X connect 2 0 9 0;
#X connect 3 0 4 0;
#X connect 5 0 7 0;
#X connect 5 1 8 0;
#X connect 6 0 5 0;
#X connect 7 0 3 0;
#X connect 8 0 5 0;
#X connect 10 0 2 0;
#X restore 16 105 pd signal;
#X obj 16 366 outlet~;
#X floatatom 139 276 8 0 0 0 - - -;
#X obj 114 133 bng 13 250 50 0 empty empty empty 0 -6 0 8 -262144 -1
-1;
#X text 132 130 <- Mute / Unmute;
#X text 191 276 Signal level;
#X msg 139 153 0;
#X msg 167 153 127;
#X text 196 153 Control level;
#X obj 46 346 outlet~;
#X obj 16 85 dsp01;
#N canvas 504 106 494 405 META 0;
#X text 12 55 AUTHOR João Pais <jmmmpais@gmail.com>;
#X text 12 95 LICENSE BSD;
#X text 12 75 LIBRARY jmmmp;
#X text 13 115 WEBSITE http://puredata.info/Members/jmmmp;
#X text 14 36 KEYWORDS level meter;
#X text 12 5 DESCRIPTION Level meter with amplitude control \, 4 channels
;
#X text 12 135 VERSION 2019;
#X text 14 165 INLET_0 - Signal 1;
#X text 14 185 INLET_1 - Signal 2;
#X text 14 205 INLET_2 - Signal 3;
#X text 14 225 INLET_3 - Signal 4;
#X text 14 285 OUTLET_0 - Amplified signal 1;
#X text 14 305 OUTLET_1 - Amplified signal 2;
#X text 14 325 OUTLET_2 - Amplified signal 3;
#X text 14 345 OUTLET_3 - Amplified signal 4;
#X text 14 365 OUTLET_4 - Signal level (0-1);
#X text 14 245 INLET_4 - Mute / Unmute (bang);
#X text 14 265 INLET_5 - Level (0-127);
#X restore 352 456 pd META;
#X text 12 437 (C) 2006-2019 João Pais - jmmmpais@gmail.com;
#X obj 16 183 mat4-~;
#X obj 77 326 outlet~;
#X obj 108 306 outlet~;
#X text 290 125 Inlets;
#X text 290 275 Outlets;
#X text 290 375 - Signal level (0-1);
#X text 290 245 - Level (0-127);
#X text 290 225 - Mute / Unmute (bang);
#X text 290 95 - Level (0-127);
#X text 290 75 Arguments;
#X text 290 145 - Signal 1;
#X text 290 165 - Signal 2;
#X text 290 185 - Signal 3;
#X text 290 205 - Signal 4;
#X text 290 295 - Amplified signal 1;
#X text 290 315 - Amplified signal 2;
#X text 290 335 - Amplified signal 3;
#X text 290 355 - Amplified signal 4;
#X text 11 38 Controls the amplitude of a quadro signal with values
between 0 and 127 Lighter as met~.;
#X text 12 407 Related objects: [mat~] [mat-~] [maat~] [maat-~] [mat4~]
[met~] [dacm~];
#X text 11 8 [mat4-~] - Level meter with amplitude control \, 4 channels
\, horizontal;
#X connect 2 0 15 0;
#X connect 2 0 15 2;
#X connect 2 0 15 3;
#X connect 2 0 15 1;
#X connect 2 1 15 5;
#X connect 5 0 15 4;
#X connect 8 0 15 5;
#X connect 9 0 15 5;
#X connect 15 0 3 0;
#X connect 15 1 11 0;
#X connect 15 2 16 0;
#X connect 15 3 17 0;
#X connect 15 4 4 0;
#X coords 0 0 1 1 31 130 0;
