#N struct 1013-refline float x float y float color float thick float
vis;
#N struct 1013-background float x float y float y1 float x2 float y2
float color;
#N struct 1016-color float x float y float farbe;
#N struct 1016-color-display float x float y float farbe;
#N struct 1022-multiarray float x float y float color float thick float
x-scale float id float vis array 1022-multiarray-a 1022-ma-element
;
#N struct 1022-ma-element float y;
#N struct 1022-refline float x float y float color float thick float
vis;
#N struct 1022-background float x float y float y1 float x2 float y2
float color;
#N struct 1022-ma-id float x float y;
#N struct 1025-color float x float y float farbe;
#N struct 1025-color-display float x float y float farbe;
#N struct 1029-multiarray float x float y float color float thick float
x-scale float id float vis array 1029-multiarray-a 1029-ma-element
;
#N struct 1029-ma-element float y;
#N struct 1029-refline float x float y float color float thick float
vis;
#N struct 1029-background float x float y float y1 float x2 float y2
float color;
#N struct 1029-ma-id float x float y;
#N struct 1032-color float x float y float farbe;
#N struct 1032-color-display float x float y float farbe;
#N struct 1037-multiarray float x float y float color float thick float
x-scale float id float vis array 1037-multiarray-a 1037-ma-element
;
#N struct 1037-ma-element float y;
#N struct 1037-background float x float y float y1 float x2 float y2
float color;
#N struct 1037-refline float x float y float color float thick float
vis;
#N struct 1037-ma-id float x float y;
#N struct 1040-color float x float y float farbe;
#N struct 1040-color-display float x float y float farbe;
#N canvas 50 136 712 551 10;
#X obj 22 171 multiarray;
#N canvas 0 50 396 416 license 0;
#X text 8 47 All rights reserved.;
#X text 8 227 The names of its contributors may not be used to endorse
or promote products derived from this software without specific prior
written permission.;
#X text 8 87 Redistribution and use in source and binary forms \, with
or without modification \, are permitted provided that the following
conditions are met:;
#X text 8 127 Redistributions of source code must retain the above
copyright notice \, this list of conditions and the following disclaimer.
;
#X text 8 297 THIS SOFTWARE IS PROVIDED BY THE COPYRIGHT HOLDERS AND
CONTRIBUTORS "AS IS" AND ANY EXPRESS OR IMPLIED WARRANTIES \, INCLUDING
\, BUT NOT LIMITED TO \, THE IMPLIED WARRANTIES OF MERCHANTABILITY
AND FITNESS FOR A PARTICULAR PURPOSE ARE DISCLAIMED. IN NO EVENT SHALL
THE COPYRIGHT OWNER OR CONTRIBUTORS BE LIABLE FOR ANY DIRECT \, INDIRECT
\, INCIDENTAL \, SPECIAL \, EXEMPLARY \, OR CONSEQUENTIAL DAMAGES (INCLUDING
\, BUT NOT LIMITED TO \, PROCUREMENT OF SUBSTITUTE GOODS OR SERVICES
;
#X text 8 167 Redistributions in binary form must reproduce the above
copyright notice \, this list of conditions and the following disclaimer
in the documentation and/or other materials provided with the distribution.
;
#X text 8 27 jmmmpais@gmail.com;
#X text 8 7 Copyright 2019 \, João Pais;
#X restore 22 514 pd license;
#N canvas 564 268 494 344 META 0;
#X text 12 55 AUTHOR João Pais <jmmmpais@gmail.com>;
#X text 12 95 LICENSE BSD;
#X text 12 75 LIBRARY jmmmp;
#X text 13 115 WEBSITE http://puredata.info/Members/jmmmp;
#X text 12 6 DESCRIPTION store and operate several graphical arrays
in one graphical container;
#X text 12 36 KEYWORDS array table graph;
#N canvas 0 50 450 300 paypal 0;
#X obj 13 54 pdcontrol;
#X msg 13 34 browse https://www.paypal.me/jmmmp;
#X obj 13 14 r \$0-paypal;
#X connect 1 0 0 0;
#X connect 2 0 1 0;
#X restore 15 316 pd paypal;
#X text 14 165 INLET_0 - all operations;
#X text 14 185 OUTLET_0 - all output;
#X text 12 135 VERSION 0.57;
#X restore 112 514 pd META;
#X text 329 136 - window X size;
#X text 329 156 - window Y size;
#X text 329 116 ARGUMENTS;
#X text 19 496 (C) 2019 João Pais - jmmmpais@gmail.com;
#X text 11 11 [multiarray] - store and operate several graphical arrays
in one graphical container;
#X text 330 236 MESSAGES;
#N canvas 717 268 561 319 CREATE+DELETE 0;
#X msg 18 107 create 1;
#X msg 28 127 create 2 900 2;
#X msg 68 247 2 del;
#X msg 118 247 all del;
#X msg 18 247 1 del;
#X obj 477 127 pd-colors;
#X text 129 127 - color - following the data structures color scheme
\, see;
#X text 19 197 DELETE ARRAYS;
#X text 19 7 CREATE ARRAYS;
#X text 19 217 To delete an array \, send the message "\$1 del" \,
being \$1 the identifier for the array. "all del" will delete all arrays.
;
#X text 129 107 Possible extra arguments are:;
#X obj 68 277 s \$0-messages;
#X obj 18 147 s \$0-messages;
#X text 129 147 - line thickness (minimum is 1);
#X text 19 167 The default size of an array is 100 points.;
#X text 19 27 To create an array \, send the message "create \$1" \,
being \$1 the number that identifies the array. Any float can be used
\, but it's advised to use positive integers starting from 1 Each array
must have a different identifier and can't be repeated \, a warning
will be output in case that happens.;
#X connect 0 0 12 0;
#X connect 1 0 12 0;
#X connect 2 0 11 0;
#X connect 3 0 11 0;
#X connect 4 0 11 0;
#X restore 330 276 pd CREATE+DELETE;
#X text 434 276 Create and delete arrays;
#X obj 22 141 r \$0-messages;
#N canvas 895 65 413 366 SIZE 0;
#X obj 18 247 s \$0-messages;
#X obj 18 117 s \$0-messages;
#X text 19 7 SET ARRAY SIZE;
#X msg 18 87 1 size \$1;
#X floatatom 18 68 5 0 0 0 - - -;
#X floatatom 97 68 5 0 0 0 - - -;
#X text 19 27 When created \, arrays have size of 1 To change the size
of an array \, send the message "\$1 size \$2":;
#X text 169 67 \$1 - array identifier;
#X text 169 87 \$2 - array size;
#X text 19 157 GET ARRAY SIZE;
#X msg 18 217 1 size;
#X msg 68 217 2 size;
#X text 20 177 To get the size of an array \, send the message "\$1
size". The message "\$1 size \$2" will be outputted:;
#X text 119 217 \$1 - array identifier;
#X text 119 237 \$2 - array size;
#X obj 18 327 s \$0-messages;
#X msg 18 307 all size;
#X text 19 287 GET SIZE OF ALL ARRAYS;
#X msg 97 87 4 size \$1;
#X connect 3 0 1 0;
#X connect 4 0 3 0;
#X connect 5 0 18 0;
#X connect 10 0 0 0;
#X connect 11 0 0 0;
#X connect 16 0 15 0;
#X connect 18 0 1 0;
#X restore 330 296 pd SIZE;
#N canvas 718 35 387 269 COPY 0;
#X obj 18 117 s \$0-messages;
#X text 119 67 \$1 - array identifier;
#X text 19 7 COPY ARRAY;
#X text 119 87 \$2 - name of array to be copied;
#X msg 18 67 1 copy array1;
#X msg 28 87 2 copy array2;
#N canvas 0 50 450 250 (subpatch) 0;
#X array array1 100 float 3;
#A 0 0 0 0 0 0 -0.0285714 0.0428571 0.142857 0.2 0.242857 0.357143
0.378571 0.428571 0.428571 0.457143 0.457143 0.457143 0.428571 0.407143
0.385714 0.3 0.264286 0.2 0.1 0.0571429 -0.0142857 -0.0857143 -0.157143
-0.228571 -0.314286 -0.385714 -0.428571 -0.442857 -0.442857 -0.442857
-0.442857 -0.457143 -0.457143 -0.4 -0.371429 -0.3 -0.142857 -0.0857143
-0.0642857 -0.0285714 -0.00714285 0.0142857 0.0714286 0.0857143 0.1
0.142857 0.185714 0.228571 0.271429 0.314286 0.342857 0.378571 0.414286
0.485714 0.528571 0.628572 0.671429 0.671429 0.628572 0.585714 0.55
0.514286 0.428571 0.4 0.314286 0.257143 0.2 0.142857 0.0428572 0.0142858
-0.0714285 -0.114286 -0.2 -0.228571 -0.257143 -0.328571 -0.4 -0.442857
-0.471429 -0.485714 -0.485714 -0.485714 -0.478571 -0.471429 -0.464286
-0.457143 -0.428571 -0.428571 -0.414286 -0.385714 -0.371429 -0.371429
-0.342857 -0.314286 -0.157143;
#X coords 0 1 100 -1 100 70 1 0 0;
#X restore 18 167 graph;
#N canvas 0 50 589 250 (subpatch) 0;
#X array array2 70 float 3;
#A 0 0.628571 0.542857 0.542857 0.457143 0.428571 0.371429 0.314286
0.257143 0.171429 0.142857 0.0285714 0.0285714 -0.0285714 -0.0857143
-0.114286 -0.171429 -0.185714 -0.257143 -0.285714 -0.314286 -0.342857
-0.4 -0.428571 -0.428571 -0.428571 -0.457143 -0.485714 -0.485714 -0.514286
-0.514286 -0.542857 -0.542857 -0.571429 -0.571429 -0.571429 -0.6 -0.628571
-0.628571 -0.628571 -0.657143 -0.685714 -0.685714 -0.696 -0.696 -0.696
-0.696 -0.688 -0.68 -0.664 -0.648 -0.64 -0.632 -0.632 -0.624 -0.616
-0.616 -0.6 -0.6 -0.576 -0.552 -0.552 -0.528 -0.512 -0.504 -0.496 -0.488
-0.48 -0.472 -0.464 -0.4;
#X coords 0 1 70 -1 100 70 1 0 0;
#X restore 148 167 graph;
#X text 19 27 An existing array (including size) can be copied into
the multiarray \, with the message "\$1 copy \$2":;
#X connect 4 0 0 0;
#X connect 5 0 0 0;
#X restore 330 356 pd COPY;
#X text 384 356 Copy data from existing arrays;
#X text 404 376 Set and get array values;
#N canvas 735 31 513 555 SET+GET 0;
#X obj 18 207 s \$0-messages;
#X text 19 7 SET ARRAY VALUES;
#X obj 18 107 pack;
#X msg 18 127 1 set \$1 \$2;
#X floatatom 18 67 5 0 0 0 - - -;
#X floatatom 39 87 5 0 0 0 - - -;
#X text 29 47 - with individual values;
#X text 79 67 \$1 - value;
#X text 79 87 \$2 - index;
#X msg 28 187 2 set 0.1 0 0.1 0 0.1 0 60;
#X text 199 187 - at the end \, the first index to write into;
#X text 199 167 - at the start \, the array identifier and "set";
#X text 199 207 - in between \, a list with all the values to add;
#X obj 18 517 s \$0-messages;
#X floatatom 18 327 5 0 0 0 - - -;
#X msg 18 347 1 get \$1;
#X text 59 327 \$1 - index;
#X text 19 267 GET ARRAY VALUES;
#X text 29 147 - with groups of values;
#X msg 28 387 1 get 5 10;
#X msg 28 407 2 get 15 20;
#X text 39 307 - individual values;
#X text 39 367 - groups of values;
#X text 39 427 - dump whole array;
#X msg 38 447 2 dump;
#X text 109 387 \$1 - first index to read;
#X text 109 407 \$2 - number of values;
#X text 19 27 Array values can be set in 3 ways:;
#X text 29 227 - or the drawing with the mouse + click;
#X text 39 467 - dump all arrays;
#X msg 38 487 all dump;
#X text 19 287 Array values can be outputted as:;
#X msg 28 167 1 set 0.1 0 0.1 0 0.1 0 10;
#X connect 2 0 3 0;
#X connect 3 0 0 0;
#X connect 4 0 2 0;
#X connect 5 0 2 1;
#X connect 9 0 0 0;
#X connect 14 0 15 0;
#X connect 15 0 13 0;
#X connect 19 0 13 0;
#X connect 20 0 13 0;
#X connect 24 0 13 0;
#X connect 30 0 13 0;
#X connect 32 0 0 0;
#X restore 330 376 pd SET+GET;
#X text 384 296 Set and get array sizes;
#N canvas 323 27 463 488 SUM-MAX-MIN 0;
#X obj 18 217 s \$0-messages;
#X floatatom 28 107 5 0 0 0 - - -;
#X text 69 107 \$1 - index;
#X text 39 147 - groups of values;
#X text 109 167 \$1 - first index to read;
#X text 19 7 SUM OF ARRAY VALUES;
#X text 19 27 The sum of all array values can be outputted in 3 ways:
;
#X msg 28 167 1 sum 5 10;
#X msg 28 187 2 sum 15 20;
#X msg 18 67 1 sum;
#X text 39 47 - complete array;
#X text 39 87 - starting from an index;
#X msg 28 127 2 sum \$1;
#X obj 18 447 s \$0-messages;
#X floatatom 28 337 5 0 0 0 - - -;
#X text 219 357 \$1 - index;
#X text 219 397 \$1 - first index to read;
#X text 199 337 - starting from an index;
#X msg 18 307 1 max;
#X msg 28 357 2 max \$1;
#X msg 28 397 1 max 5 10;
#X msg 28 417 2 max 15 20;
#X text 199 307 - for the complete array;
#X text 199 377 - in a group of values;
#X text 199 447 The output is the value and its index.;
#X text 19 257 MAXIMUM AND MINIMUM VALUES OF AN ARRAY;
#X text 19 277 The maximum and minimum values of an array can be calculated
in 3 ways:;
#X obj 108 447 s \$0-messages;
#X floatatom 118 337 5 0 0 0 - - -;
#X msg 108 307 1 min;
#X msg 118 357 2 min \$1;
#X msg 118 397 1 min 5 10;
#X msg 118 417 2 min 15 20;
#X text 219 417 \$2 - number of values to read;
#X text 109 187 \$2 - number of values to read;
#X connect 1 0 12 0;
#X connect 7 0 0 0;
#X connect 8 0 0 0;
#X connect 9 0 0 0;
#X connect 12 0 0 0;
#X connect 14 0 19 0;
#X connect 18 0 13 0;
#X connect 19 0 13 0;
#X connect 20 0 13 0;
#X connect 21 0 13 0;
#X connect 28 0 30 0;
#X connect 29 0 27 0;
#X connect 30 0 27 0;
#X connect 31 0 27 0;
#X connect 32 0 27 0;
#X restore 330 396 pd SUM-MAX-MIN;
#X text 424 396 Sum \, max and min values;
#X text 404 476 Some case studies;
#N canvas 233 30 501 223 EXAMPLES 0;
#X text 19 7 EXAMPLE CASES;
#N canvas 192 240 276 234 example-1 0;
#X obj 17 20 inlet;
#X obj 17 190 outlet;
#X obj 27 150 loadbang;
#X msg 27 170 create 1;
#X obj 17 40 t f b;
#X obj 44 80 mod 100;
#X obj 44 60 f+ 0 1;
#X obj 17 100 pack;
#X msg 17 120 1 set \$1 \$2;
#X connect 0 0 4 0;
#X connect 2 0 3 0;
#X connect 3 0 1 0;
#X connect 4 0 7 0;
#X connect 4 1 6 0;
#X connect 5 0 7 1;
#X connect 6 0 5 0;
#X connect 7 0 8 0;
#X connect 8 0 1 0;
#X restore 20 75 pd example-1;
#X obj 23 55 hsl 75 12 -1 1 0 0 empty empty empty -2 -8 0 10 -262144
-1 -1 0 0;
#X obj 20 95 multiarray 200 100;
#X obj 273 55 hsl 75 12 -1 1 0 0 empty empty empty -2 -8 0 10 -262144
-1 -1 0 0;
#X obj 270 95 multiarray 200 100;
#X text 19 27 1 - Realtime multislider display;
#X text 269 27 2 - the same \, with more arrays;
#N canvas 192 240 276 234 example-2 0;
#X obj 17 20 inlet;
#X obj 17 190 outlet;
#X obj 27 150 loadbang;
#X obj 74 80 mod 100;
#X obj 74 60 f+ 0 1;
#X msg 28 170 create 1 50 \, create 2 900;
#X msg 17 120 1 set \$1 \$3 \, 2 set \$2 \$3;
#X obj 17 100 pack f f f;
#X obj 17 40 t f f b;
#X obj 36 60 * -1;
#X connect 0 0 8 0;
#X connect 2 0 5 0;
#X connect 3 0 7 2;
#X connect 4 0 3 0;
#X connect 5 0 1 0;
#X connect 6 0 1 0;
#X connect 7 0 6 0;
#X connect 8 0 7 0;
#X connect 8 1 9 0;
#X connect 8 2 4 0;
#X connect 9 0 7 1;
#X restore 270 75 pd example-2;
#X connect 1 0 3 0;
#X connect 2 0 1 0;
#X connect 4 0 8 0;
#X connect 8 0 5 0;
#X restore 330 476 pd EXAMPLES;
#N canvas 735 31 353 685 STATUS 0;
#X obj 18 187 s \$0-messages;
#X obj 18 287 s \$0-messages;
#X text 19 127 GET ACTIVE ID;
#X msg 18 167 id;
#X text 19 227 GET ALL STORED IDS;
#X text 19 247 A list of all stored IDs can be outputed with;
#X msg 18 267 all dump-id;
#X text 49 167 The array will momentarily turn thicker.;
#X text 19 147 To get the ID which was used last time \, send;
#X obj 18 87 s \$0-messages;
#X text 19 17 BLINK BUFFER;
#X msg 18 57 1 id;
#X msg 58 57 2 id;
#X obj 18 407 s \$0-messages;
#X text 19 327 GET COLORS;
#X msg 18 367 1 color get;
#X text 19 347 Get the color of one \, or of all arrays.;
#X msg 28 387 all color get;
#X obj 18 647 s \$0-messages;
#X text 19 587 Get the color of one \, or of all arrays.;
#X text 19 567 GET THICKNESS;
#X msg 28 627 all thick get;
#X msg 18 607 2 thick get;
#X obj 18 527 s \$0-messages;
#X text 19 467 Get the color of one \, or of all arrays.;
#X text 19 447 GET VISIBILITY;
#X msg 28 507 all vis get;
#X msg 18 487 1 vis get;
#X text 19 37 To see a particular array momentarily thicker \, send
;
#X connect 3 0 0 0;
#X connect 6 0 1 0;
#X connect 11 0 9 0;
#X connect 12 0 9 0;
#X connect 15 0 13 0;
#X connect 17 0 13 0;
#X connect 21 0 18 0;
#X connect 22 0 18 0;
#X connect 26 0 23 0;
#X connect 27 0 23 0;
#X restore 330 336 pd STATUS;
#X text 394 336 Get some information on the stored data;
#N canvas 735 31 406 622 SAVE+LOAD 0;
#X obj 18 107 s \$0-messages;
#X text 19 17 SAVE A MULTIARRAY;
#X msg 18 67 save;
#X text 19 37 Use the message "save" to save a multiarray. You can
use an argument for a filename.;
#X text 19 147 LOAD A MULTIARRAY;
#X text 19 167 Use the same logic as above \, only with "load".;
#X obj 18 227 s \$0-messages;
#X msg 18 187 load;
#X msg 28 87 save multiarray-example.txt;
#X msg 28 207 load multiarray-example.txt;
#X text 19 247 For internal reasons \, the file to load will be edited
to adapt to the current patch. Therefore \, its date will change.;
#X obj 18 497 multiarray 200 100 multiarray-example.txt;
#X text 19 357 When using the third argument \, you load a file at
starting time. This example is defined as [multiarray 200 100 multiarray-example.txt]
;
#X text 20 277 Important: loading a [multiarray] with audio files only
loads the display \, not the audio itself. You'll need to reload the
audio.;
#X text 19 337 LOAD A CONFIGURATION FILE AT STARTUP and BACKGROUND
BUG;
#X text 19 407 NOTE: there is a bug in Pd's GOP rendering of scalar
order. If a multiarray is redrawn (by moving or opening a closed subpatch)
\, the baground will overlap the arrays. Sending a message to redraw
the background will correct this. Click the "background 994" message
below to show the arrays.;
#X msg 18 477 background 990;
#X connect 2 0 0 0;
#X connect 7 0 6 0;
#X connect 8 0 0 0;
#X connect 9 0 6 0;
#X connect 16 0 11 0;
#X restore 330 416 pd SAVE+LOAD;
#X text 414 416 Save and load multiarray contents;
#X text 12 41 This abstraction allows to store and operate several
arrays on the same graphical unit \, thus allowing for an easier comparison
between different data. Each array is prefixed by a unique identifier
float.;
#N canvas 468 83 794 512 AUDIO 0;
#X obj 18 147 s \$0-messages;
#X obj 18 97 openpanel;
#X obj 18 77 bng 15 250 50 0 empty empty empty 17 7 0 10 -262144 -1
-1;
#X text 19 17 READ AUDIO FILE;
#X msg 18 117 create 1 \, 1 read \$1;
#X text 19 37 To read an audio file \, first the buffer has to be created.
Afterwards \, it can read a file into it.;
#X obj 158 97 openpanel;
#X obj 158 77 bng 15 250 50 0 empty empty empty 17 7 0 10 -262144 -1
-1;
#X msg 158 117 create 4 \, 4 read \$1;
#X text 19 167 After loading a file \, [multiarray] outputs a message
with:;
#X text 19 187 - array ID;
#X text 19 207 - the text "read";
#X text 19 227 - the name of the table where the sample is stored;
#X text 19 247 - the file size in samples (left output of soundfiler)
;
#X text 19 267 - the result of the right output from soundfiler;
#X text 19 297 For example \, "1 read 1004-table-1 483728 44100 54
1 2 b";
#X text 19 327 The table name is important \, so that you can acess
the samples. For example \, the patch below plays back the last loaded
sample:;
#X obj 18 407 tabplay~;
#N canvas 0 50 348 202 get-sample 0;
#X obj 14 43 r \$0-output;
#X text 14 13 This gets the table name of the last loaded sample (independently
of which array it was loaded to).;
#X obj 14 63 list split 1;
#X obj 48 103 route read;
#X obj 48 123 list split 1;
#X msg 48 143 set \$1;
#X obj 48 163 outlet;
#X obj 48 83 list trim;
#X connect 0 0 2 0;
#X connect 2 1 7 0;
#X connect 3 0 4 0;
#X connect 4 0 5 0;
#X connect 5 0 6 0;
#X connect 7 0 3 0;
#X restore 18 367 pd get-sample;
#X obj 18 428 dac~;
#X obj 38 387 bng 15 250 50 0 empty empty empty 17 7 0 10 -228856 -1
-1;
#X text 59 387 Turn audio on and press the bang to play;
#X text 409 237 WRITE AUDIO FILE;
#X text 409 17 UPDATE AUDIO FILE DISPLAY;
#X text 409 37 In case you access the audio file for any transformation
\, the GUI representation should be updated. With the following message
you can decide when to update the display:;
#X obj 408 97 s \$0-messages;
#X text 509 77 \$1 - array Id;
#X text 409 127 For example: move the slider to normalize the last
loaded sample \, and also refresh the display.;
#X obj 411 160 hsl 70 10 0 2 0 0 empty empty empty -2 -8 0 10 -228856
-1 -1 0 0;
#N canvas 402 82 348 296 normalize 0;
#X obj 24 43 r \$0-output;
#X text 14 13 This gets the table name of the last loaded sample (independently
of which array it was loaded to).;
#X obj 24 83 list split 1;
#X obj 58 123 route read;
#X obj 58 143 list split 1;
#X obj 58 103 list trim;
#X obj 16 143 inlet;
#X msg 43 183 normalize \$1;
#X obj 43 203 s;
#X obj 16 163 t b f;
#X obj 16 253 s \$0-messages;
#X obj 16 213 f;
#X msg 16 233 \$1 audio update;
#X obj 24 63 route id;
#X connect 0 0 13 0;
#X connect 2 0 11 1;
#X connect 2 1 5 0;
#X connect 3 0 4 0;
#X connect 4 0 8 1;
#X connect 5 0 3 0;
#X connect 6 0 9 0;
#X connect 7 0 8 0;
#X connect 9 0 11 0;
#X connect 9 1 7 0;
#X connect 11 0 12 0;
#X connect 12 0 10 0;
#X connect 13 0 2 0;
#X connect 13 1 2 0;
#X restore 408 177 pd normalize;
#X text 19 448 (Notice: the sound shown in the window is just a copy
with the resolution of 1000 points. Editing it by hand won't affect
the original sound.);
#X text 409 427 LIMITATIONS;
#X text 409 447 For now \, only loading mono files with default settings
is allowed \, as also writing in wave format. If you wish more options
\, please contact the developer.;
#X obj 408 347 s \$0-messages;
#X obj 408 277 bng 15 250 50 0 empty empty empty 17 7 0 10 -262144
-1 -1;
#X obj 498 277 bng 15 250 50 0 empty empty empty 17 7 0 10 -262144
-1 -1;
#X msg 408 317 1 write \$1;
#X obj 408 297 savepanel;
#X obj 498 297 savepanel;
#X msg 498 317 4 write \$1;
#X text 409 257 To write an audio file \, send the following message:
;
#X text 579 317 \$1 - audio filename;
#X msg 408 77 1 audio update;
#X text 409 367 After writing a file \, [multiarray] outputs a message
with the same parameters as loading \, except with the file path and
name after the text "write";
#X connect 1 0 4 0;
#X connect 2 0 1 0;
#X connect 4 0 0 0;
#X connect 6 0 8 0;
#X connect 7 0 6 0;
#X connect 8 0 0 0;
#X connect 17 0 19 0;
#X connect 18 0 17 0;
#X connect 20 0 17 0;
#X connect 28 0 29 0;
#X connect 34 0 37 0;
#X connect 35 0 38 0;
#X connect 36 0 33 0;
#X connect 37 0 36 0;
#X connect 38 0 39 0;
#X connect 39 0 33 0;
#X connect 42 0 25 0;
#X restore 330 446 pd AUDIO;
#X text 384 446 Load and save audio files;
#X obj 32 325 s \$0-output;
#X obj 22 345 print multiarray;
#X text 329 176 - configuration file to load at startup (see SAVE+LOAD)
;
#X obj 615 503 hradio 15 1 0 3 \$0-paypal empty empty 0 -8 0 10 -262144
-1 -1 0;
#X text 330 506 Donations can be made through paypal \, click on;
#X obj 615 518 cnv 1 1 1 24x37 24x37-i empty 0 0 0 10 -41475 -1 0;
#X obj 616 518 cnv 1 1 1 25x37 25x37-i empty 0 0 0 10 -116039 -1 0
;
#X obj 617 518 cnv 1 1 1 26x37 26x37-i empty 0 0 0 10 -223885 -1 0
;
#X obj 619 518 cnv 1 1 1 31x37 31x37-i empty 0 0 0 10 -227981 -1 0
;
#X obj 620 518 cnv 1 1 1 32x37 32x37-i empty 0 0 0 10 -227981 -1 0
;
#X obj 621 518 cnv 1 1 1 33x37 33x37-i empty 0 0 0 10 -227981 -1 0
;
#X obj 622 518 cnv 1 1 1 34x37 34x37-i empty 0 0 0 10 -227981 -1 0
;
#X obj 623 518 cnv 1 1 1 35x37 35x37-i empty 0 0 0 10 -227981 -1 0
;
#X obj 624 518 cnv 1 1 1 36x37 36x37-i empty 0 0 0 10 -227981 -1 0
;
#X obj 625 518 cnv 1 1 1 37x37 37x37-i empty 0 0 0 10 -227981 -1 0
;
#X obj 626 518 cnv 1 1 1 38x37 38x37-i empty 0 0 0 10 -227981 -1 0
;
#X obj 627 518 cnv 1 1 1 39x37 39x37-i empty 0 0 0 10 -227981 -1 0
;
#X obj 628 518 cnv 1 1 1 40x37 40x37-i empty 0 0 0 10 -227981 -1 0
;
#X obj 629 518 cnv 1 1 1 41x37 41x37-i empty 0 0 0 10 -227981 -1 0
;
#X obj 630 518 cnv 1 1 1 42x37 42x37-i empty 0 0 0 10 -227981 -1 0
;
#X obj 631 518 cnv 1 1 1 43x37 43x37-i empty 0 0 0 10 -227981 -1 0
;
#X obj 632 518 cnv 1 1 1 44x37 44x37-i empty 0 0 0 10 -227981 -1 0
;
#X obj 633 518 cnv 1 1 1 45x37 45x37-i empty 0 0 0 10 -227981 -1 0
;
#X obj 634 518 cnv 1 1 1 46x37 46x37-i empty 0 0 0 10 -227981 -1 0
;
#X obj 635 518 cnv 1 1 1 47x37 47x37-i empty 0 0 0 10 -227981 -1 0
;
#X obj 636 518 cnv 1 1 1 48x37 48x37-i empty 0 0 0 10 -227981 -1 0
;
#X obj 637 518 cnv 1 1 1 49x37 49x37-i empty 0 0 0 10 -227981 -1 0
;
#X obj 638 518 cnv 1 1 1 50x37 50x37-i empty 0 0 0 10 -227981 -1 0
;
#X obj 639 518 cnv 1 1 1 51x37 51x37-i empty 0 0 0 10 -227981 -1 0
;
#X obj 640 518 cnv 1 1 1 52x37 52x37-i empty 0 0 0 10 -227981 -1 0
;
#X obj 641 518 cnv 1 1 1 53x37 53x37-i empty 0 0 0 10 -227981 -1 0
;
#X obj 642 518 cnv 1 1 1 54x37 54x37-i empty 0 0 0 10 -227981 -1 0
;
#X obj 643 518 cnv 1 1 1 55x37 55x37-i empty 0 0 0 10 -227981 -1 0
;
#X obj 644 518 cnv 1 1 1 56x37 56x37-i empty 0 0 0 10 -227981 -1 0
;
#X obj 645 518 cnv 1 1 1 57x37 57x37-i empty 0 0 0 10 -227981 -1 0
;
#X obj 646 518 cnv 1 1 1 58x37 58x37-i empty 0 0 0 10 -227981 -1 0
;
#X obj 647 518 cnv 1 1 1 59x37 59x37-i empty 0 0 0 10 -227981 -1 0
;
#X obj 648 518 cnv 1 1 1 60x37 60x37-i empty 0 0 0 10 -227981 -1 0
;
#X obj 649 518 cnv 1 1 1 61x37 61x37-i empty 0 0 0 10 -227981 -1 0
;
#X obj 650 518 cnv 1 1 1 62x37 62x37-i empty 0 0 0 10 -227981 -1 0
;
#X obj 651 518 cnv 1 1 1 63x37 63x37-i empty 0 0 0 10 -227981 -1 0
;
#X obj 652 518 cnv 1 1 1 64x37 64x37-i empty 0 0 0 10 -227981 -1 0
;
#X obj 653 518 cnv 1 1 1 65x37 65x37-i empty 0 0 0 10 -227981 -1 0
;
#X obj 654 518 cnv 1 1 1 66x37 66x37-i empty 0 0 0 10 -227981 -1 0
;
#X obj 655 518 cnv 1 1 1 67x37 67x37-i empty 0 0 0 10 -227981 -1 0
;
#X obj 656 518 cnv 1 1 1 71x37 71x37-i empty 0 0 0 10 -227981 -1 0
;
#X obj 657 518 cnv 1 1 1 72x37 72x37-i empty 0 0 0 10 -227981 -1 0
;
#X obj 658 518 cnv 1 1 1 73x37 73x37-i empty 0 0 0 10 -120199 -1 0
;
#X obj 659 518 cnv 1 1 1 74x37 74x37-i empty 0 0 0 10 -41475 -1 0;
#X obj 614 517 cnv 1 1 1 23x36 23x36-i empty 0 0 0 10 -70468 -1 0;
#X obj 615 517 cnv 1 1 1 24x36 24x36-i empty 0 0 0 10 -227981 -1 0
;
#X obj 616 517 cnv 1 1 1 25x36 25x36-i empty 0 0 0 10 -240398 -1 0
;
#X obj 617 517 cnv 1 1 1 26x36 26x36-i empty 0 0 0 10 -252878 -1 0
;
#X obj 619 517 cnv 1 1 1 31x36 31x36-i empty 0 0 0 10 -261135 -1 0
;
#X obj 620 517 cnv 1 1 1 32x36 32x36-i empty 0 0 0 10 -261135 -1 0
;
#X obj 621 517 cnv 1 1 1 33x36 33x36-i empty 0 0 0 10 -261135 -1 0
;
#X obj 622 517 cnv 1 1 1 34x36 34x36-i empty 0 0 0 10 -261135 -1 0
;
#X obj 623 517 cnv 1 1 1 35x36 35x36-i empty 0 0 0 10 -261135 -1 0
;
#X obj 624 517 cnv 1 1 1 36x36 36x36-i empty 0 0 0 10 -261135 -1 0
;
#X obj 625 517 cnv 1 1 1 37x36 37x36-i empty 0 0 0 10 -261135 -1 0
;
#X obj 626 517 cnv 1 1 1 38x36 38x36-i empty 0 0 0 10 -261135 -1 0
;
#X obj 627 517 cnv 1 1 1 39x36 39x36-i empty 0 0 0 10 -261135 -1 0
;
#X obj 628 517 cnv 1 1 1 40x36 40x36-i empty 0 0 0 10 -261135 -1 0
;
#X obj 629 517 cnv 1 1 1 41x36 41x36-i empty 0 0 0 10 -261135 -1 0
;
#X obj 630 517 cnv 1 1 1 42x36 42x36-i empty 0 0 0 10 -261135 -1 0
;
#X obj 631 517 cnv 1 1 1 43x36 43x36-i empty 0 0 0 10 -261135 -1 0
;
#X obj 632 517 cnv 1 1 1 44x36 44x36-i empty 0 0 0 10 -261135 -1 0
;
#X obj 633 517 cnv 1 1 1 45x36 45x36-i empty 0 0 0 10 -261135 -1 0
;
#X obj 634 517 cnv 1 1 1 46x36 46x36-i empty 0 0 0 10 -261135 -1 0
;
#X obj 635 517 cnv 1 1 1 47x36 47x36-i empty 0 0 0 10 -261135 -1 0
;
#X obj 636 517 cnv 1 1 1 48x36 48x36-i empty 0 0 0 10 -261135 -1 0
;
#X obj 637 517 cnv 1 1 1 49x36 49x36-i empty 0 0 0 10 -261135 -1 0
;
#X obj 638 517 cnv 1 1 1 50x36 50x36-i empty 0 0 0 10 -261135 -1 0
;
#X obj 639 517 cnv 1 1 1 51x36 51x36-i empty 0 0 0 10 -261135 -1 0
;
#X obj 640 517 cnv 1 1 1 52x36 52x36-i empty 0 0 0 10 -261135 -1 0
;
#X obj 641 517 cnv 1 1 1 53x36 53x36-i empty 0 0 0 10 -261135 -1 0
;
#X obj 642 517 cnv 1 1 1 54x36 54x36-i empty 0 0 0 10 -261135 -1 0
;
#X obj 643 517 cnv 1 1 1 55x36 55x36-i empty 0 0 0 10 -261135 -1 0
;
#X obj 644 517 cnv 1 1 1 56x36 56x36-i empty 0 0 0 10 -261135 -1 0
;
#X obj 645 517 cnv 1 1 1 57x36 57x36-i empty 0 0 0 10 -261135 -1 0
;
#X obj 646 517 cnv 1 1 1 58x36 58x36-i empty 0 0 0 10 -261135 -1 0
;
#X obj 647 517 cnv 1 1 1 59x36 59x36-i empty 0 0 0 10 -261135 -1 0
;
#X obj 648 517 cnv 1 1 1 60x36 60x36-i empty 0 0 0 10 -261135 -1 0
;
#X obj 649 517 cnv 1 1 1 61x36 61x36-i empty 0 0 0 10 -261135 -1 0
;
#X obj 650 517 cnv 1 1 1 62x36 62x36-i empty 0 0 0 10 -261135 -1 0
;
#X obj 651 517 cnv 1 1 1 63x36 63x36-i empty 0 0 0 10 -261135 -1 0
;
#X obj 652 517 cnv 1 1 1 64x36 64x36-i empty 0 0 0 10 -261135 -1 0
;
#X obj 653 517 cnv 1 1 1 65x36 65x36-i empty 0 0 0 10 -261135 -1 0
;
#X obj 654 517 cnv 1 1 1 66x36 66x36-i empty 0 0 0 10 -261135 -1 0
;
#X obj 655 517 cnv 1 1 1 67x36 67x36-i empty 0 0 0 10 -261135 -1 0
;
#X obj 656 517 cnv 1 1 1 71x36 71x36-i empty 0 0 0 10 -261135 -1 0
;
#X obj 657 517 cnv 1 1 1 72x36 72x36-i empty 0 0 0 10 -252878 -1 0
;
#X obj 658 517 cnv 1 1 1 73x36 73x36-i empty 0 0 0 10 -240398 -1 0
;
#X obj 659 517 cnv 1 1 1 74x36 74x36-i empty 0 0 0 10 -227981 -1 0
;
#X obj 613 516 cnv 1 1 1 22x35 22x35-i empty 0 0 0 10 -82885 -1 0;
#X obj 614 516 cnv 1 1 1 23x35 23x35-i empty 0 0 0 10 -223821 -1 0
;
#X obj 615 516 cnv 1 1 1 24x35 24x35-i empty 0 0 0 10 -252878 -1 0
;
#X obj 616 516 cnv 1 1 1 25x35 25x35-i empty 0 0 0 10 -261135 -1 0
;
#X obj 617 516 cnv 1 1 1 26x35 26x35-i empty 0 0 0 10 -261135 -1 0
;
#X obj 619 516 cnv 1 1 1 31x35 31x35-i empty 0 0 0 10 -261135 -1 0
;
#X obj 620 516 cnv 1 1 1 32x35 32x35-i empty 0 0 0 10 -261135 -1 0
;
#X obj 621 516 cnv 1 1 1 33x35 33x35-i empty 0 0 0 10 -261135 -1 0
;
#X obj 622 516 cnv 1 1 1 34x35 34x35-i empty 0 0 0 10 -261135 -1 0
;
#X obj 623 516 cnv 1 1 1 35x35 35x35-i empty 0 0 0 10 -261135 -1 0
;
#X obj 624 516 cnv 1 1 1 36x35 36x35-i empty 0 0 0 10 -261135 -1 0
;
#X obj 625 516 cnv 1 1 1 37x35 37x35-i empty 0 0 0 10 -261135 -1 0
;
#X obj 626 516 cnv 1 1 1 38x35 38x35-i empty 0 0 0 10 -261135 -1 0
;
#X obj 627 516 cnv 1 1 1 39x35 39x35-i empty 0 0 0 10 -261135 -1 0
;
#X obj 628 516 cnv 1 1 1 40x35 40x35-i empty 0 0 0 10 -261135 -1 0
;
#X obj 629 516 cnv 1 1 1 41x35 41x35-i empty 0 0 0 10 -261135 -1 0
;
#X obj 630 516 cnv 1 1 1 42x35 42x35-i empty 0 0 0 10 -261135 -1 0
;
#X obj 631 516 cnv 1 1 1 43x35 43x35-i empty 0 0 0 10 -261135 -1 0
;
#X obj 632 516 cnv 1 1 1 44x35 44x35-i empty 0 0 0 10 -261135 -1 0
;
#X obj 633 516 cnv 1 1 1 45x35 45x35-i empty 0 0 0 10 -261135 -1 0
;
#X obj 634 516 cnv 1 1 1 46x35 46x35-i empty 0 0 0 10 -261135 -1 0
;
#X obj 635 516 cnv 1 1 1 47x35 47x35-i empty 0 0 0 10 -261135 -1 0
;
#X obj 636 516 cnv 1 1 1 48x35 48x35-i empty 0 0 0 10 -261135 -1 0
;
#X obj 637 516 cnv 1 1 1 49x35 49x35-i empty 0 0 0 10 -261135 -1 0
;
#X obj 638 516 cnv 1 1 1 50x35 50x35-i empty 0 0 0 10 -261135 -1 0
;
#X obj 639 516 cnv 1 1 1 51x35 51x35-i empty 0 0 0 10 -261135 -1 0
;
#X obj 640 516 cnv 1 1 1 52x35 52x35-i empty 0 0 0 10 -261135 -1 0
;
#X obj 641 516 cnv 1 1 1 53x35 53x35-i empty 0 0 0 10 -261135 -1 0
;
#X obj 642 516 cnv 1 1 1 54x35 54x35-i empty 0 0 0 10 -261135 -1 0
;
#X obj 643 516 cnv 1 1 1 55x35 55x35-i empty 0 0 0 10 -261135 -1 0
;
#X obj 644 516 cnv 1 1 1 56x35 56x35-i empty 0 0 0 10 -261135 -1 0
;
#X obj 645 516 cnv 1 1 1 57x35 57x35-i empty 0 0 0 10 -261135 -1 0
;
#X obj 646 516 cnv 1 1 1 58x35 58x35-i empty 0 0 0 10 -261135 -1 0
;
#X obj 647 516 cnv 1 1 1 59x35 59x35-i empty 0 0 0 10 -261135 -1 0
;
#X obj 648 516 cnv 1 1 1 60x35 60x35-i empty 0 0 0 10 -261135 -1 0
;
#X obj 649 516 cnv 1 1 1 61x35 61x35-i empty 0 0 0 10 -261135 -1 0
;
#X obj 650 516 cnv 1 1 1 62x35 62x35-i empty 0 0 0 10 -261135 -1 0
;
#X obj 651 516 cnv 1 1 1 63x35 63x35-i empty 0 0 0 10 -261135 -1 0
;
#X obj 652 516 cnv 1 1 1 64x35 64x35-i empty 0 0 0 10 -261135 -1 0
;
#X obj 653 516 cnv 1 1 1 65x35 65x35-i empty 0 0 0 10 -261135 -1 0
;
#X obj 654 516 cnv 1 1 1 66x35 66x35-i empty 0 0 0 10 -261135 -1 0
;
#X obj 655 516 cnv 1 1 1 67x35 67x35-i empty 0 0 0 10 -261135 -1 0
;
#X obj 656 516 cnv 1 1 1 71x35 71x35-i empty 0 0 0 10 -261135 -1 0
;
#X obj 657 516 cnv 1 1 1 72x35 72x35-i empty 0 0 0 10 -261135 -1 0
;
#X obj 658 516 cnv 1 1 1 73x35 73x35-i empty 0 0 0 10 -261135 -1 0
;
#X obj 659 516 cnv 1 1 1 74x35 74x35-i empty 0 0 0 10 -252878 -1 0
;
#X obj 660 516 cnv 1 1 1 75x35 75x35-i empty 0 0 0 10 -227981 -1 0
;
#X obj 612 515 cnv 1 1 1 21x34 21x34-i empty 0 0 0 10 -74565 -1 0;
#X obj 613 515 cnv 1 1 1 22x34 22x34-i empty 0 0 0 10 -211468 -1 0
;
#X obj 614 515 cnv 1 1 1 23x34 23x34-i empty 0 0 0 10 -256974 -1 0
;
#X obj 615 515 cnv 1 1 1 24x34 24x34-i empty 0 0 0 10 -261135 -1 0
;
#X obj 616 515 cnv 1 1 1 25x34 25x34-i empty 0 0 0 10 -261135 -1 0
;
#X obj 617 515 cnv 1 1 1 26x34 26x34-i empty 0 0 0 10 -261135 -1 0
;
#X obj 619 515 cnv 1 1 1 31x34 31x34-i empty 0 0 0 10 -261135 -1 0
;
#X obj 620 515 cnv 1 1 1 32x34 32x34-i empty 0 0 0 10 -261135 -1 0
;
#X obj 621 515 cnv 1 1 1 33x34 33x34-i empty 0 0 0 10 -261135 -1 0
;
#X obj 622 515 cnv 1 1 1 34x34 34x34-i empty 0 0 0 10 -261135 -1 0
;
#X obj 623 515 cnv 1 1 1 35x34 35x34-i empty 0 0 0 10 -261135 -1 0
;
#X obj 624 515 cnv 1 1 1 36x34 36x34-i empty 0 0 0 10 -261135 -1 0
;
#X obj 625 515 cnv 1 1 1 37x34 37x34-i empty 0 0 0 10 -261135 -1 0
;
#X obj 626 515 cnv 1 1 1 38x34 38x34-i empty 0 0 0 10 -261135 -1 0
;
#X obj 627 515 cnv 1 1 1 39x34 39x34-i empty 0 0 0 10 -261135 -1 0
;
#X obj 628 515 cnv 1 1 1 40x34 40x34-i empty 0 0 0 10 -261135 -1 0
;
#X obj 629 515 cnv 1 1 1 41x34 41x34-i empty 0 0 0 10 -261135 -1 0
;
#X obj 630 515 cnv 1 1 1 42x34 42x34-i empty 0 0 0 10 -261135 -1 0
;
#X obj 631 515 cnv 1 1 1 43x34 43x34-i empty 0 0 0 10 -261135 -1 0
;
#X obj 632 515 cnv 1 1 1 44x34 44x34-i empty 0 0 0 10 -261135 -1 0
;
#X obj 633 515 cnv 1 1 1 45x34 45x34-i empty 0 0 0 10 -261135 -1 0
;
#X obj 634 515 cnv 1 1 1 46x34 46x34-i empty 0 0 0 10 -261135 -1 0
;
#X obj 635 515 cnv 1 1 1 47x34 47x34-i empty 0 0 0 10 -261135 -1 0
;
#X obj 636 515 cnv 1 1 1 48x34 48x34-i empty 0 0 0 10 -261135 -1 0
;
#X obj 637 515 cnv 1 1 1 49x34 49x34-i empty 0 0 0 10 -261135 -1 0
;
#X obj 638 515 cnv 1 1 1 50x34 50x34-i empty 0 0 0 10 -261135 -1 0
;
#X obj 639 515 cnv 1 1 1 51x34 51x34-i empty 0 0 0 10 -261135 -1 0
;
#X obj 640 515 cnv 1 1 1 52x34 52x34-i empty 0 0 0 10 -261135 -1 0
;
#X obj 641 515 cnv 1 1 1 53x34 53x34-i empty 0 0 0 10 -261135 -1 0
;
#X obj 642 515 cnv 1 1 1 54x34 54x34-i empty 0 0 0 10 -261135 -1 0
;
#X obj 643 515 cnv 1 1 1 55x34 55x34-i empty 0 0 0 10 -261135 -1 0
;
#X obj 644 515 cnv 1 1 1 56x34 56x34-i empty 0 0 0 10 -261135 -1 0
;
#X obj 645 515 cnv 1 1 1 57x34 57x34-i empty 0 0 0 10 -261135 -1 0
;
#X obj 646 515 cnv 1 1 1 58x34 58x34-i empty 0 0 0 10 -261135 -1 0
;
#X obj 647 515 cnv 1 1 1 59x34 59x34-i empty 0 0 0 10 -261135 -1 0
;
#X obj 648 515 cnv 1 1 1 60x34 60x34-i empty 0 0 0 10 -261135 -1 0
;
#X obj 649 515 cnv 1 1 1 61x34 61x34-i empty 0 0 0 10 -261135 -1 0
;
#X obj 650 515 cnv 1 1 1 62x34 62x34-i empty 0 0 0 10 -261135 -1 0
;
#X obj 651 515 cnv 1 1 1 63x34 63x34-i empty 0 0 0 10 -261135 -1 0
;
#X obj 652 515 cnv 1 1 1 64x34 64x34-i empty 0 0 0 10 -261135 -1 0
;
#X obj 653 515 cnv 1 1 1 65x34 65x34-i empty 0 0 0 10 -261135 -1 0
;
#X obj 654 515 cnv 1 1 1 66x34 66x34-i empty 0 0 0 10 -261135 -1 0
;
#X obj 655 515 cnv 1 1 1 67x34 67x34-i empty 0 0 0 10 -261135 -1 0
;
#X obj 656 515 cnv 1 1 1 71x34 71x34-i empty 0 0 0 10 -261135 -1 0
;
#X obj 657 515 cnv 1 1 1 72x34 72x34-i empty 0 0 0 10 -261135 -1 0
;
#X obj 658 515 cnv 1 1 1 73x34 73x34-i empty 0 0 0 10 -261135 -1 0
;
#X obj 659 515 cnv 1 1 1 74x34 74x34-i empty 0 0 0 10 -261135 -1 0
;
#X obj 660 515 cnv 1 1 1 75x34 75x34-i empty 0 0 0 10 -257039 -1 0
;
#X obj 612 514 cnv 1 1 1 21x33 21x33-i empty 0 0 0 10 -120263 -1 0
;
#X obj 613 514 cnv 1 1 1 22x33 22x33-i empty 0 0 0 10 -236302 -1 0
;
#X obj 614 514 cnv 1 1 1 23x33 23x33-i empty 0 0 0 10 -256974 -1 0
;
#X obj 615 514 cnv 1 1 1 24x33 24x33-i empty 0 0 0 10 -261135 -1 0
;
#X obj 616 514 cnv 1 1 1 25x33 25x33-i empty 0 0 0 10 -261135 -1 0
;
#X obj 617 514 cnv 1 1 1 26x33 26x33-i empty 0 0 0 10 -261135 -1 0
;
#X obj 619 514 cnv 1 1 1 31x33 31x33-i empty 0 0 0 10 -261135 -1 0
;
#X obj 620 514 cnv 1 1 1 32x33 32x33-i empty 0 0 0 10 -261135 -1 0
;
#X obj 621 514 cnv 1 1 1 33x33 33x33-i empty 0 0 0 10 -261135 -1 0
;
#X obj 622 514 cnv 1 1 1 34x33 34x33-i empty 0 0 0 10 -261135 -1 0
;
#X obj 623 514 cnv 1 1 1 35x33 35x33-i empty 0 0 0 10 -261135 -1 0
;
#X obj 624 514 cnv 1 1 1 36x33 36x33-i empty 0 0 0 10 -261135 -1 0
;
#X obj 625 514 cnv 1 1 1 37x33 37x33-i empty 0 0 0 10 -261135 -1 0
;
#X obj 626 514 cnv 1 1 1 38x33 38x33-i empty 0 0 0 10 -261135 -1 0
;
#X obj 627 514 cnv 1 1 1 39x33 39x33-i empty 0 0 0 10 -261135 -1 0
;
#X obj 628 514 cnv 1 1 1 40x33 40x33-i empty 0 0 0 10 -261135 -1 0
;
#X obj 629 514 cnv 1 1 1 41x33 41x33-i empty 0 0 0 10 -257039 -1 0
;
#X obj 630 514 cnv 1 1 1 42x33 42x33-i empty 0 0 0 10 -257039 -1 0
;
#X obj 631 514 cnv 1 1 1 43x33 43x33-i empty 0 0 0 10 -261135 -1 0
;
#X obj 632 514 cnv 1 1 1 44x33 44x33-i empty 0 0 0 10 -261135 -1 0
;
#X obj 633 514 cnv 1 1 1 45x33 45x33-i empty 0 0 0 10 -261135 -1 0
;
#X obj 634 514 cnv 1 1 1 46x33 46x33-i empty 0 0 0 10 -261135 -1 0
;
#X obj 635 514 cnv 1 1 1 47x33 47x33-i empty 0 0 0 10 -261135 -1 0
;
#X obj 636 514 cnv 1 1 1 48x33 48x33-i empty 0 0 0 10 -261135 -1 0
;
#X obj 637 514 cnv 1 1 1 49x33 49x33-i empty 0 0 0 10 -261135 -1 0
;
#X obj 638 514 cnv 1 1 1 50x33 50x33-i empty 0 0 0 10 -261135 -1 0
;
#X obj 639 514 cnv 1 1 1 51x33 51x33-i empty 0 0 0 10 -261135 -1 0
;
#X obj 640 514 cnv 1 1 1 52x33 52x33-i empty 0 0 0 10 -257039 -1 0
;
#X obj 641 514 cnv 1 1 1 53x33 53x33-i empty 0 0 0 10 -257039 -1 0
;
#X obj 642 514 cnv 1 1 1 54x33 54x33-i empty 0 0 0 10 -261135 -1 0
;
#X obj 643 514 cnv 1 1 1 55x33 55x33-i empty 0 0 0 10 -261135 -1 0
;
#X obj 644 514 cnv 1 1 1 56x33 56x33-i empty 0 0 0 10 -261135 -1 0
;
#X obj 645 514 cnv 1 1 1 57x33 57x33-i empty 0 0 0 10 -261135 -1 0
;
#X obj 646 514 cnv 1 1 1 58x33 58x33-i empty 0 0 0 10 -261135 -1 0
;
#X obj 647 514 cnv 1 1 1 59x33 59x33-i empty 0 0 0 10 -256974 -1 0
;
#X obj 648 514 cnv 1 1 1 60x33 60x33-i empty 0 0 0 10 -261135 -1 0
;
#X obj 649 514 cnv 1 1 1 61x33 61x33-i empty 0 0 0 10 -261135 -1 0
;
#X obj 650 514 cnv 1 1 1 62x33 62x33-i empty 0 0 0 10 -261135 -1 0
;
#X obj 651 514 cnv 1 1 1 63x33 63x33-i empty 0 0 0 10 -257039 -1 0
;
#X obj 652 514 cnv 1 1 1 64x33 64x33-i empty 0 0 0 10 -256974 -1 0
;
#X obj 653 514 cnv 1 1 1 65x33 65x33-i empty 0 0 0 10 -261135 -1 0
;
#X obj 654 514 cnv 1 1 1 66x33 66x33-i empty 0 0 0 10 -261135 -1 0
;
#X obj 655 514 cnv 1 1 1 67x33 67x33-i empty 0 0 0 10 -261135 -1 0
;
#X obj 656 514 cnv 1 1 1 71x33 71x33-i empty 0 0 0 10 -261135 -1 0
;
#X obj 657 514 cnv 1 1 1 72x33 72x33-i empty 0 0 0 10 -261135 -1 0
;
#X obj 658 514 cnv 1 1 1 73x33 73x33-i empty 0 0 0 10 -261135 -1 0
;
#X obj 659 514 cnv 1 1 1 74x33 74x33-i empty 0 0 0 10 -261135 -1 0
;
#X obj 660 514 cnv 1 1 1 75x33 75x33-i empty 0 0 0 10 -261135 -1 0
;
#X obj 661 514 cnv 1 1 1 76x33 76x33-i empty 0 0 0 10 -244558 -1 0
;
#X obj 662 514 cnv 1 1 1 77x33 77x33-i empty 0 0 0 10 -116103 -1 0
;
#X obj 611 513 cnv 1 1 1 20x32 20x32-i empty 0 0 0 10 -49731 -1 0;
#X obj 612 513 cnv 1 1 1 21x32 21x32-i empty 0 0 0 10 -240398 -1 0
;
#X obj 613 513 cnv 1 1 1 22x32 22x32-i empty 0 0 0 10 -252878 -1 0
;
#X obj 614 513 cnv 1 1 1 23x32 23x32-i empty 0 0 0 10 -261135 -1 0
;
#X obj 615 513 cnv 1 1 1 24x32 24x32-i empty 0 0 0 10 -261135 -1 0
;
#X obj 616 513 cnv 1 1 1 25x32 25x32-i empty 0 0 0 10 -261135 -1 0
;
#X obj 617 513 cnv 1 1 1 26x32 26x32-i empty 0 0 0 10 -261135 -1 0
;
#X obj 619 513 cnv 1 1 1 31x32 31x32-i empty 0 0 0 10 -261135 -1 0
;
#X obj 620 513 cnv 1 1 1 32x32 32x32-i empty 0 0 0 10 -236301 -1 0
;
#X obj 621 513 cnv 1 1 1 33x32 33x32-i empty 0 0 0 10 -165834 -1 0
;
#X obj 622 513 cnv 1 1 1 34x32 34x32-i empty 0 0 0 10 -161673 -1 0
;
#X obj 623 513 cnv 1 1 1 35x32 35x32-i empty 0 0 0 10 -169994 -1 0
;
#X obj 624 513 cnv 1 1 1 36x32 36x32-i empty 0 0 0 10 -198987 -1 0
;
#X obj 625 513 cnv 1 1 1 37x32 37x32-i empty 0 0 0 10 -252814 -1 0
;
#X obj 626 513 cnv 1 1 1 38x32 38x32-i empty 0 0 0 10 -261135 -1 0
;
#X obj 627 513 cnv 1 1 1 39x32 39x32-i empty 0 0 0 10 -257038 -1 0
;
#X obj 628 513 cnv 1 1 1 40x32 40x32-i empty 0 0 0 10 -198987 -1 0
;
#X obj 629 513 cnv 1 1 1 41x32 41x32-i empty 0 0 0 10 -153353 -1 0
;
#X obj 630 513 cnv 1 1 1 42x32 42x32-i empty 0 0 0 10 -161673 -1 0
;
#X obj 631 513 cnv 1 1 1 43x32 43x32-i empty 0 0 0 10 -227981 -1 0
;
#X obj 632 513 cnv 1 1 1 44x32 44x32-i empty 0 0 0 10 -261135 -1 0
;
#X obj 633 513 cnv 1 1 1 45x32 45x32-i empty 0 0 0 10 -227981 -1 0
;
#X obj 634 513 cnv 1 1 1 46x32 46x32-i empty 0 0 0 10 -169994 -1 0
;
#X obj 635 513 cnv 1 1 1 47x32 47x32-i empty 0 0 0 10 -236301 -1 0
;
#X obj 636 513 cnv 1 1 1 48x32 48x32-i empty 0 0 0 10 -240398 -1 0
;
#X obj 637 513 cnv 1 1 1 49x32 49x32-i empty 0 0 0 10 -178250 -1 0
;
#X obj 638 513 cnv 1 1 1 50x32 50x32-i empty 0 0 0 10 -223885 -1 0
;
#X obj 639 513 cnv 1 1 1 51x32 51x32-i empty 0 0 0 10 -248718 -1 0
;
#X obj 640 513 cnv 1 1 1 52x32 52x32-i empty 0 0 0 10 -174090 -1 0
;
#X obj 641 513 cnv 1 1 1 53x32 53x32-i empty 0 0 0 10 -157513 -1 0
;
#X obj 642 513 cnv 1 1 1 54x32 54x32-i empty 0 0 0 10 -178314 -1 0
;
#X obj 643 513 cnv 1 1 1 55x32 55x32-i empty 0 0 0 10 -174090 -1 0
;
#X obj 644 513 cnv 1 1 1 56x32 56x32-i empty 0 0 0 10 -248718 -1 0
;
#X obj 645 513 cnv 1 1 1 57x32 57x32-i empty 0 0 0 10 -252878 -1 0
;
#X obj 646 513 cnv 1 1 1 58x32 58x32-i empty 0 0 0 10 -190667 -1 0
;
#X obj 647 513 cnv 1 1 1 59x32 59x32-i empty 0 0 0 10 -149257 -1 0
;
#X obj 648 513 cnv 1 1 1 60x32 60x32-i empty 0 0 0 10 -194827 -1 0
;
#X obj 649 513 cnv 1 1 1 61x32 61x32-i empty 0 0 0 10 -252878 -1 0
;
#X obj 650 513 cnv 1 1 1 62x32 62x32-i empty 0 0 0 10 -232141 -1 0
;
#X obj 651 513 cnv 1 1 1 63x32 63x32-i empty 0 0 0 10 -161673 -1 0
;
#X obj 652 513 cnv 1 1 1 64x32 64x32-i empty 0 0 0 10 -149257 -1 0
;
#X obj 653 513 cnv 1 1 1 65x32 65x32-i empty 0 0 0 10 -186571 -1 0
;
#X obj 654 513 cnv 1 1 1 66x32 66x32-i empty 0 0 0 10 -244622 -1 0
;
#X obj 655 513 cnv 1 1 1 67x32 67x32-i empty 0 0 0 10 -261135 -1 0
;
#X obj 656 513 cnv 1 1 1 71x32 71x32-i empty 0 0 0 10 -261135 -1 0
;
#X obj 657 513 cnv 1 1 1 72x32 72x32-i empty 0 0 0 10 -261135 -1 0
;
#X obj 658 513 cnv 1 1 1 73x32 73x32-i empty 0 0 0 10 -261135 -1 0
;
#X obj 659 513 cnv 1 1 1 74x32 74x32-i empty 0 0 0 10 -261135 -1 0
;
#X obj 660 513 cnv 1 1 1 75x32 75x32-i empty 0 0 0 10 -261135 -1 0
;
#X obj 661 513 cnv 1 1 1 76x32 76x32-i empty 0 0 0 10 -252878 -1 0
;
#X obj 662 513 cnv 1 1 1 77x32 77x32-i empty 0 0 0 10 -240398 -1 0
;
#X obj 663 513 cnv 1 1 1 78x32 78x32-i empty 0 0 0 10 -49731 -1 0;
#X obj 611 512 cnv 1 1 1 20x31 20x31-i empty 0 0 0 10 -153417 -1 0
;
#X obj 612 512 cnv 1 1 1 21x31 21x31-i empty 0 0 0 10 -244558 -1 0
;
#X obj 613 512 cnv 1 1 1 22x31 22x31-i empty 0 0 0 10 -261135 -1 0
;
#X obj 614 512 cnv 1 1 1 23x31 23x31-i empty 0 0 0 10 -261135 -1 0
;
#X obj 615 512 cnv 1 1 1 24x31 24x31-i empty 0 0 0 10 -261135 -1 0
;
#X obj 616 512 cnv 1 1 1 25x31 25x31-i empty 0 0 0 10 -261135 -1 0
;
#X obj 617 512 cnv 1 1 1 26x31 26x31-i empty 0 0 0 10 -261135 -1 0
;
#X obj 619 512 cnv 1 1 1 31x31 31x31-i empty 0 0 0 10 -261135 -1 0
;
#X obj 620 512 cnv 1 1 1 32x31 32x31-i empty 0 0 0 10 -203148 -1 0
;
#X obj 621 512 cnv 1 1 1 33x31 33x31-i empty 0 0 0 10 -20738 -1 0;
#X obj 622 512 cnv 1 1 1 34x31 34x31-i empty 0 0 0 10 -45571 -1 0;
#X obj 623 512 cnv 1 1 1 35x31 35x31-i empty 0 0 0 10 -58052 -1 0;
#X obj 624 512 cnv 1 1 1 36x31 36x31-i empty 0 0 0 10 -45571 -1 0;
#X obj 625 512 cnv 1 1 1 37x31 37x31-i empty 0 0 0 10 -153353 -1 0
;
#X obj 626 512 cnv 1 1 1 38x31 38x31-i empty 0 0 0 10 -244622 -1 0
;
#X obj 627 512 cnv 1 1 1 39x31 39x31-i empty 0 0 0 10 -215564 -1 0
;
#X obj 628 512 cnv 1 1 1 40x31 40x31-i empty 0 0 0 10 -53891 -1 0;
#X obj 629 512 cnv 1 1 1 41x31 41x31-i empty 0 0 0 10 -57988 -1 0;
#X obj 630 512 cnv 1 1 1 42x31 42x31-i empty 0 0 0 10 -45571 -1 0;
#X obj 631 512 cnv 1 1 1 43x31 43x31-i empty 0 0 0 10 -87045 -1 0;
#X obj 632 512 cnv 1 1 1 44x31 44x31-i empty 0 0 0 10 -248718 -1 0
;
#X obj 633 512 cnv 1 1 1 45x31 45x31-i empty 0 0 0 10 -178250 -1 0
;
#X obj 634 512 cnv 1 1 1 46x31 46x31-i empty 0 0 0 10 -28994 -1 0;
#X obj 635 512 cnv 1 1 1 47x31 47x31-i empty 0 0 0 10 -198987 -1 0
;
#X obj 636 512 cnv 1 1 1 48x31 48x31-i empty 0 0 0 10 -207308 -1 0
;
#X obj 637 512 cnv 1 1 1 49x31 49x31-i empty 0 0 0 10 -41475 -1 0;
#X obj 638 512 cnv 1 1 1 50x31 50x31-i empty 0 0 0 10 -165770 -1 0
;
#X obj 639 512 cnv 1 1 1 51x31 51x31-i empty 0 0 0 10 -203147 -1 0
;
#X obj 640 512 cnv 1 1 1 52x31 52x31-i empty 0 0 0 10 -41411 -1 0;
#X obj 641 512 cnv 1 1 1 53x31 53x31-i empty 0 0 0 10 -95366 -1 0;
#X obj 642 512 cnv 1 1 1 54x31 54x31-i empty 0 0 0 10 -70468 -1 0;
#X obj 643 512 cnv 1 1 1 55x31 55x31-i empty 0 0 0 10 -33154 -1 0;
#X obj 644 512 cnv 1 1 1 56x31 56x31-i empty 0 0 0 10 -240398 -1 0
;
#X obj 645 512 cnv 1 1 1 57x31 57x31-i empty 0 0 0 10 -207308 -1 0
;
#X obj 646 512 cnv 1 1 1 58x31 58x31-i empty 0 0 0 10 -53891 -1 0;
#X obj 647 512 cnv 1 1 1 59x31 59x31-i empty 0 0 0 10 -66308 -1 0;
#X obj 648 512 cnv 1 1 1 60x31 60x31-i empty 0 0 0 10 -136776 -1 0
;
#X obj 649 512 cnv 1 1 1 61x31 61x31-i empty 0 0 0 10 -223885 -1 0
;
#X obj 650 512 cnv 1 1 1 62x31 62x31-i empty 0 0 0 10 -107782 -1 0
;
#X obj 651 512 cnv 1 1 1 63x31 63x31-i empty 0 0 0 10 -37315 -1 0;
#X obj 652 512 cnv 1 1 1 64x31 64x31-i empty 0 0 0 10 -91205 -1 0;
#X obj 653 512 cnv 1 1 1 65x31 65x31-i empty 0 0 0 10 -111943 -1 0
;
#X obj 654 512 cnv 1 1 1 66x31 66x31-i empty 0 0 0 10 -227981 -1 0
;
#X obj 655 512 cnv 1 1 1 67x31 67x31-i empty 0 0 0 10 -261135 -1 0
;
#X obj 656 512 cnv 1 1 1 71x31 71x31-i empty 0 0 0 10 -261135 -1 0
;
#X obj 657 512 cnv 1 1 1 72x31 72x31-i empty 0 0 0 10 -261135 -1 0
;
#X obj 658 512 cnv 1 1 1 73x31 73x31-i empty 0 0 0 10 -261135 -1 0
;
#X obj 659 512 cnv 1 1 1 74x31 74x31-i empty 0 0 0 10 -261135 -1 0
;
#X obj 660 512 cnv 1 1 1 75x31 75x31-i empty 0 0 0 10 -261135 -1 0
;
#X obj 661 512 cnv 1 1 1 76x31 76x31-i empty 0 0 0 10 -261135 -1 0
;
#X obj 662 512 cnv 1 1 1 77x31 77x31-i empty 0 0 0 10 -244558 -1 0
;
#X obj 663 512 cnv 1 1 1 78x31 78x31-i empty 0 0 0 10 -157513 -1 0
;
#X obj 611 511 cnv 1 1 1 20x30 20x30-i empty 0 0 0 10 -240398 -1 0
;
#X obj 612 511 cnv 1 1 1 21x30 21x30-i empty 0 0 0 10 -256974 -1 0
;
#X obj 613 511 cnv 1 1 1 22x30 22x30-i empty 0 0 0 10 -261135 -1 0
;
#X obj 614 511 cnv 1 1 1 23x30 23x30-i empty 0 0 0 10 -261135 -1 0
;
#X obj 615 511 cnv 1 1 1 24x30 24x30-i empty 0 0 0 10 -261135 -1 0
;
#X obj 616 511 cnv 1 1 1 25x30 25x30-i empty 0 0 0 10 -261135 -1 0
;
#X obj 617 511 cnv 1 1 1 26x30 26x30-i empty 0 0 0 10 -261135 -1 0
;
#X obj 619 511 cnv 1 1 1 31x30 31x30-i empty 0 0 0 10 -261135 -1 0
;
#X obj 620 511 cnv 1 1 1 32x30 32x30-i empty 0 0 0 10 -203148 -1 0
;
#X obj 621 511 cnv 1 1 1 33x30 33x30-i empty 0 0 0 10 -16577 -1 0;
#X obj 622 511 cnv 1 1 1 34x30 34x30-i empty 0 0 0 10 -145097 -1 0
;
#X obj 623 511 cnv 1 1 1 35x30 35x30-i empty 0 0 0 10 -215564 -1 0
;
#X obj 624 511 cnv 1 1 1 36x30 36x30-i empty 0 0 0 10 -107782 -1 0
;
#X obj 625 511 cnv 1 1 1 37x30 37x30-i empty 0 0 0 10 -49731 -1 0;
#X obj 626 511 cnv 1 1 1 38x30 38x30-i empty 0 0 0 10 -207308 -1 0
;
#X obj 627 511 cnv 1 1 1 39x30 39x30-i empty 0 0 0 10 -124359 -1 0
;
#X obj 628 511 cnv 1 1 1 40x30 40x30-i empty 0 0 0 10 -49731 -1 0;
#X obj 629 511 cnv 1 1 1 41x30 41x30-i empty 0 0 0 10 -207244 -1 0
;
#X obj 630 511 cnv 1 1 1 42x30 42x30-i empty 0 0 0 10 -161673 -1 0
;
#X obj 631 511 cnv 1 1 1 43x30 43x30-i empty 0 0 0 10 -28994 -1 0;
#X obj 632 511 cnv 1 1 1 44x30 44x30-i empty 0 0 0 10 -198987 -1 0
;
#X obj 633 511 cnv 1 1 1 45x30 45x30-i empty 0 0 0 10 -182410 -1 0
;
#X obj 634 511 cnv 1 1 1 46x30 46x30-i empty 0 0 0 10 -29058 -1 0;
#X obj 635 511 cnv 1 1 1 47x30 47x30-i empty 0 0 0 10 -207308 -1 0
;
#X obj 636 511 cnv 1 1 1 48x30 48x30-i empty 0 0 0 10 -207308 -1 0
;
#X obj 637 511 cnv 1 1 1 49x30 49x30-i empty 0 0 0 10 -41475 -1 0;
#X obj 638 511 cnv 1 1 1 50x30 50x30-i empty 0 0 0 10 -165770 -1 0
;
#X obj 639 511 cnv 1 1 1 51x30 51x30-i empty 0 0 0 10 -174154 -1 0
;
#X obj 640 511 cnv 1 1 1 52x30 52x30-i empty 0 0 0 10 -28994 -1 0;
#X obj 641 511 cnv 1 1 1 53x30 53x30-i empty 0 0 0 10 -153353 -1 0
;
#X obj 642 511 cnv 1 1 1 54x30 54x30-i empty 0 0 0 10 -116039 -1 0
;
#X obj 643 511 cnv 1 1 1 55x30 55x30-i empty 0 0 0 10 -33154 -1 0;
#X obj 644 511 cnv 1 1 1 56x30 56x30-i empty 0 0 0 10 -244558 -1 0
;
#X obj 645 511 cnv 1 1 1 57x30 57x30-i empty 0 0 0 10 -165769 -1 0
;
#X obj 646 511 cnv 1 1 1 58x30 58x30-i empty 0 0 0 10 -20738 -1 0;
#X obj 647 511 cnv 1 1 1 59x30 59x30-i empty 0 0 0 10 -211404 -1 0
;
#X obj 648 511 cnv 1 1 1 60x30 60x30-i empty 0 0 0 10 -240398 -1 0
;
#X obj 649 511 cnv 1 1 1 61x30 61x30-i empty 0 0 0 10 -174154 -1 0
;
#X obj 650 511 cnv 1 1 1 62x30 62x30-i empty 0 0 0 10 -28994 -1 0;
#X obj 651 511 cnv 1 1 1 63x30 63x30-i empty 0 0 0 10 -174154 -1 0
;
#X obj 652 511 cnv 1 1 1 64x30 64x30-i empty 0 0 0 10 -227981 -1 0
;
#X obj 653 511 cnv 1 1 1 65x30 65x30-i empty 0 0 0 10 -223885 -1 0
;
#X obj 654 511 cnv 1 1 1 66x30 66x30-i empty 0 0 0 10 -252878 -1 0
;
#X obj 655 511 cnv 1 1 1 67x30 67x30-i empty 0 0 0 10 -261135 -1 0
;
#X obj 656 511 cnv 1 1 1 71x30 71x30-i empty 0 0 0 10 -261135 -1 0
;
#X obj 657 511 cnv 1 1 1 72x30 72x30-i empty 0 0 0 10 -261135 -1 0
;
#X obj 658 511 cnv 1 1 1 73x30 73x30-i empty 0 0 0 10 -261135 -1 0
;
#X obj 659 511 cnv 1 1 1 74x30 74x30-i empty 0 0 0 10 -261135 -1 0
;
#X obj 660 511 cnv 1 1 1 75x30 75x30-i empty 0 0 0 10 -261135 -1 0
;
#X obj 661 511 cnv 1 1 1 76x30 76x30-i empty 0 0 0 10 -261135 -1 0
;
#X obj 662 511 cnv 1 1 1 77x30 77x30-i empty 0 0 0 10 -256974 -1 0
;
#X obj 663 511 cnv 1 1 1 78x30 78x30-i empty 0 0 0 10 -240398 -1 0
;
#X obj 611 510 cnv 1 1 1 20x29 20x29-i empty 0 0 0 10 -240398 -1 0
;
#X obj 612 510 cnv 1 1 1 21x29 21x29-i empty 0 0 0 10 -261135 -1 0
;
#X obj 613 510 cnv 1 1 1 22x29 22x29-i empty 0 0 0 10 -261135 -1 0
;
#X obj 614 510 cnv 1 1 1 23x29 23x29-i empty 0 0 0 10 -261135 -1 0
;
#X obj 615 510 cnv 1 1 1 24x29 24x29-i empty 0 0 0 10 -261135 -1 0
;
#X obj 616 510 cnv 1 1 1 25x29 25x29-i empty 0 0 0 10 -261135 -1 0
;
#X obj 617 510 cnv 1 1 1 26x29 26x29-i empty 0 0 0 10 -261135 -1 0
;
#X obj 619 510 cnv 1 1 1 31x29 31x29-i empty 0 0 0 10 -261135 -1 0
;
#X obj 620 510 cnv 1 1 1 32x29 32x29-i empty 0 0 0 10 -207244 -1 0
;
#X obj 621 510 cnv 1 1 1 33x29 33x29-i empty 0 0 0 10 -20738 -1 0;
#X obj 622 510 cnv 1 1 1 34x29 34x29-i empty 0 0 0 10 -169930 -1 0
;
#X obj 623 510 cnv 1 1 1 35x29 35x29-i empty 0 0 0 10 -261135 -1 0
;
#X obj 624 510 cnv 1 1 1 36x29 36x29-i empty 0 0 0 10 -194827 -1 0
;
#X obj 625 510 cnv 1 1 1 37x29 37x29-i empty 0 0 0 10 -4161 -1 0;
#X obj 626 510 cnv 1 1 1 38x29 38x29-i empty 0 0 0 10 -169930 -1 0
;
#X obj 627 510 cnv 1 1 1 39x29 39x29-i empty 0 0 0 10 -91205 -1 0;
#X obj 628 510 cnv 1 1 1 40x29 40x29-i empty 0 0 0 10 -66308 -1 0;
#X obj 629 510 cnv 1 1 1 41x29 41x29-i empty 0 0 0 10 -252878 -1 0
;
#X obj 630 510 cnv 1 1 1 42x29 42x29-i empty 0 0 0 10 -207244 -1 0
;
#X obj 631 510 cnv 1 1 1 43x29 43x29-i empty 0 0 0 10 -33154 -1 0;
#X obj 632 510 cnv 1 1 1 44x29 44x29-i empty 0 0 0 10 -165834 -1 0
;
#X obj 633 510 cnv 1 1 1 45x29 45x29-i empty 0 0 0 10 -182410 -1 0
;
#X obj 634 510 cnv 1 1 1 46x29 46x29-i empty 0 0 0 10 -29058 -1 0;
#X obj 635 510 cnv 1 1 1 47x29 47x29-i empty 0 0 0 10 -198987 -1 0
;
#X obj 636 510 cnv 1 1 1 48x29 48x29-i empty 0 0 0 10 -207244 -1 0
;
#X obj 637 510 cnv 1 1 1 49x29 49x29-i empty 0 0 0 10 -41411 -1 0;
#X obj 638 510 cnv 1 1 1 50x29 50x29-i empty 0 0 0 10 -165770 -1 0
;
#X obj 639 510 cnv 1 1 1 51x29 51x29-i empty 0 0 0 10 -248718 -1 0
;
#X obj 640 510 cnv 1 1 1 52x29 52x29-i empty 0 0 0 10 -145096 -1 0
;
#X obj 641 510 cnv 1 1 1 53x29 53x29-i empty 0 0 0 10 -58052 -1 0;
#X obj 642 510 cnv 1 1 1 54x29 54x29-i empty 0 0 0 10 -20738 -1 0;
#X obj 643 510 cnv 1 1 1 55x29 55x29-i empty 0 0 0 10 -28994 -1 0;
#X obj 644 510 cnv 1 1 1 56x29 56x29-i empty 0 0 0 10 -244622 -1 0
;
#X obj 645 510 cnv 1 1 1 57x29 57x29-i empty 0 0 0 10 -157513 -1 0
;
#X obj 646 510 cnv 1 1 1 58x29 58x29-i empty 0 0 0 10 -16578 -1 0;
#X obj 647 510 cnv 1 1 1 59x29 59x29-i empty 0 0 0 10 -240462 -1 0
;
#X obj 648 510 cnv 1 1 1 60x29 60x29-i empty 0 0 0 10 -261135 -1 0
;
#X obj 649 510 cnv 1 1 1 61x29 61x29-i empty 0 0 0 10 -157513 -1 0
;
#X obj 650 510 cnv 1 1 1 62x29 62x29-i empty 0 0 0 10 -16578 -1 0;
#X obj 651 510 cnv 1 1 1 63x29 63x29-i empty 0 0 0 10 -41411 -1 0;
#X obj 652 510 cnv 1 1 1 64x29 64x29-i empty 0 0 0 10 -37315 -1 0;
#X obj 653 510 cnv 1 1 1 65x29 65x29-i empty 0 0 0 10 -8257 -1 0;
#X obj 654 510 cnv 1 1 1 66x29 66x29-i empty 0 0 0 10 -194891 -1 0
;
#X obj 655 510 cnv 1 1 1 67x29 67x29-i empty 0 0 0 10 -261135 -1 0
;
#X obj 656 510 cnv 1 1 1 71x29 71x29-i empty 0 0 0 10 -256974 -1 0
;
#X obj 657 510 cnv 1 1 1 72x29 72x29-i empty 0 0 0 10 -248718 -1 0
;
#X obj 658 510 cnv 1 1 1 73x29 73x29-i empty 0 0 0 10 -261135 -1 0
;
#X obj 659 510 cnv 1 1 1 74x29 74x29-i empty 0 0 0 10 -261135 -1 0
;
#X obj 660 510 cnv 1 1 1 75x29 75x29-i empty 0 0 0 10 -261135 -1 0
;
#X obj 661 510 cnv 1 1 1 76x29 76x29-i empty 0 0 0 10 -261135 -1 0
;
#X obj 662 510 cnv 1 1 1 77x29 77x29-i empty 0 0 0 10 -261135 -1 0
;
#X obj 663 510 cnv 1 1 1 78x29 78x29-i empty 0 0 0 10 -240398 -1 0
;
#X obj 611 509 cnv 1 1 1 20x28 20x28-i empty 0 0 0 10 -240398 -1 0
;
#X obj 612 509 cnv 1 1 1 21x28 21x28-i empty 0 0 0 10 -261135 -1 0
;
#X obj 613 509 cnv 1 1 1 22x28 22x28-i empty 0 0 0 10 -261135 -1 0
;
#X obj 614 509 cnv 1 1 1 23x28 23x28-i empty 0 0 0 10 -261135 -1 0
;
#X obj 615 509 cnv 1 1 1 24x28 24x28-i empty 0 0 0 10 -261135 -1 0
;
#X obj 616 509 cnv 1 1 1 25x28 25x28-i empty 0 0 0 10 -261135 -1 0
;
#X obj 617 509 cnv 1 1 1 26x28 26x28-i empty 0 0 0 10 -252878 -1 0
;
#X obj 619 509 cnv 1 1 1 31x28 31x28-i empty 0 0 0 10 -261135 -1 0
;
#X obj 620 509 cnv 1 1 1 32x28 32x28-i empty 0 0 0 10 -203148 -1 0
;
#X obj 621 509 cnv 1 1 1 33x28 33x28-i empty 0 0 0 10 -16578 -1 0;
#X obj 622 509 cnv 1 1 1 34x28 34x28-i empty 0 0 0 10 -169930 -1 0
;
#X obj 623 509 cnv 1 1 1 35x28 35x28-i empty 0 0 0 10 -261135 -1 0
;
#X obj 624 509 cnv 1 1 1 36x28 36x28-i empty 0 0 0 10 -203147 -1 0
;
#X obj 625 509 cnv 1 1 1 37x28 37x28-i empty 0 0 0 10 -20738 -1 0;
#X obj 626 509 cnv 1 1 1 38x28 38x28-i empty 0 0 0 10 -161673 -1 0
;
#X obj 627 509 cnv 1 1 1 39x28 39x28-i empty 0 0 0 10 -149193 -1 0
;
#X obj 628 509 cnv 1 1 1 40x28 40x28-i empty 0 0 0 10 -33154 -1 0;
#X obj 629 509 cnv 1 1 1 41x28 41x28-i empty 0 0 0 10 -161673 -1 0
;
#X obj 630 509 cnv 1 1 1 42x28 42x28-i empty 0 0 0 10 -124359 -1 0
;
#X obj 631 509 cnv 1 1 1 43x28 43x28-i empty 0 0 0 10 -33154 -1 0;
#X obj 632 509 cnv 1 1 1 44x28 44x28-i empty 0 0 0 10 -207308 -1 0
;
#X obj 633 509 cnv 1 1 1 45x28 45x28-i empty 0 0 0 10 -182410 -1 0
;
#X obj 634 509 cnv 1 1 1 46x28 46x28-i empty 0 0 0 10 -29058 -1 0;
#X obj 635 509 cnv 1 1 1 47x28 47x28-i empty 0 0 0 10 -145097 -1 0
;
#X obj 636 509 cnv 1 1 1 48x28 48x28-i empty 0 0 0 10 -153353 -1 0
;
#X obj 637 509 cnv 1 1 1 49x28 49x28-i empty 0 0 0 10 -28994 -1 0;
#X obj 638 509 cnv 1 1 1 50x28 50x28-i empty 0 0 0 10 -174154 -1 0
;
#X obj 639 509 cnv 1 1 1 51x28 51x28-i empty 0 0 0 10 -248718 -1 0
;
#X obj 640 509 cnv 1 1 1 52x28 52x28-i empty 0 0 0 10 -169930 -1 0
;
#X obj 641 509 cnv 1 1 1 53x28 53x28-i empty 0 0 0 10 -182411 -1 0
;
#X obj 642 509 cnv 1 1 1 54x28 54x28-i empty 0 0 0 10 -78789 -1 0;
#X obj 643 509 cnv 1 1 1 55x28 55x28-i empty 0 0 0 10 -58052 -1 0;
#X obj 644 509 cnv 1 1 1 56x28 56x28-i empty 0 0 0 10 -248718 -1 0
;
#X obj 645 509 cnv 1 1 1 57x28 57x28-i empty 0 0 0 10 -132616 -1 0
;
#X obj 646 509 cnv 1 1 1 58x28 58x28-i empty 0 0 0 10 -12417 -1 0;
#X obj 647 509 cnv 1 1 1 59x28 59x28-i empty 0 0 0 10 -190731 -1 0
;
#X obj 648 509 cnv 1 1 1 60x28 60x28-i empty 0 0 0 10 -223885 -1 0
;
#X obj 649 509 cnv 1 1 1 61x28 61x28-i empty 0 0 0 10 -190731 -1 0
;
#X obj 650 509 cnv 1 1 1 62x28 62x28-i empty 0 0 0 10 -33155 -1 0;
#X obj 651 509 cnv 1 1 1 63x28 63x28-i empty 0 0 0 10 -157513 -1 0
;
#X obj 652 509 cnv 1 1 1 64x28 64x28-i empty 0 0 0 10 -149193 -1 0
;
#X obj 653 509 cnv 1 1 1 65x28 65x28-i empty 0 0 0 10 -49731 -1 0;
#X obj 654 509 cnv 1 1 1 66x28 66x28-i empty 0 0 0 10 -207308 -1 0
;
#X obj 655 509 cnv 1 1 1 67x28 67x28-i empty 0 0 0 10 -261135 -1 0
;
#X obj 656 509 cnv 1 1 1 71x28 71x28-i empty 0 0 0 10 -261135 -1 0
;
#X obj 657 509 cnv 1 1 1 72x28 72x28-i empty 0 0 0 10 -261135 -1 0
;
#X obj 658 509 cnv 1 1 1 73x28 73x28-i empty 0 0 0 10 -261135 -1 0
;
#X obj 659 509 cnv 1 1 1 74x28 74x28-i empty 0 0 0 10 -261135 -1 0
;
#X obj 660 509 cnv 1 1 1 75x28 75x28-i empty 0 0 0 10 -261135 -1 0
;
#X obj 661 509 cnv 1 1 1 76x28 76x28-i empty 0 0 0 10 -261135 -1 0
;
#X obj 662 509 cnv 1 1 1 77x28 77x28-i empty 0 0 0 10 -261135 -1 0
;
#X obj 663 509 cnv 1 1 1 78x28 78x28-i empty 0 0 0 10 -240398 -1 0
;
#X obj 611 508 cnv 1 1 1 20x27 20x27-i empty 0 0 0 10 -252878 -1 0
;
#X obj 612 508 cnv 1 1 1 21x27 21x27-i empty 0 0 0 10 -261135 -1 0
;
#X obj 613 508 cnv 1 1 1 22x27 22x27-i empty 0 0 0 10 -261135 -1 0
;
#X obj 614 508 cnv 1 1 1 23x27 23x27-i empty 0 0 0 10 -261135 -1 0
;
#X obj 615 508 cnv 1 1 1 24x27 24x27-i empty 0 0 0 10 -261135 -1 0
;
#X obj 616 508 cnv 1 1 1 25x27 25x27-i empty 0 0 0 10 -261135 -1 0
;
#X obj 617 508 cnv 1 1 1 26x27 26x27-i empty 0 0 0 10 -252878 -1 0
;
#X obj 619 508 cnv 1 1 1 31x27 31x27-i empty 0 0 0 10 -261135 -1 0
;
#X obj 620 508 cnv 1 1 1 32x27 32x27-i empty 0 0 0 10 -203148 -1 0
;
#X obj 621 508 cnv 1 1 1 33x27 33x27-i empty 0 0 0 10 -20674 -1 0;
#X obj 622 508 cnv 1 1 1 34x27 34x27-i empty 0 0 0 10 -169930 -1 0
;
#X obj 623 508 cnv 1 1 1 35x27 35x27-i empty 0 0 0 10 -257039 -1 0
;
#X obj 624 508 cnv 1 1 1 36x27 36x27-i empty 0 0 0 10 -169930 -1 0
;
#X obj 625 508 cnv 1 1 1 37x27 37x27-i empty 0 0 0 10 -16577 -1 0;
#X obj 626 508 cnv 1 1 1 38x27 38x27-i empty 0 0 0 10 -178250 -1 0
;
#X obj 627 508 cnv 1 1 1 39x27 39x27-i empty 0 0 0 10 -236301 -1 0
;
#X obj 628 508 cnv 1 1 1 40x27 40x27-i empty 0 0 0 10 -91205 -1 0;
#X obj 629 508 cnv 1 1 1 41x27 41x27-i empty 0 0 0 10 -41411 -1 0;
#X obj 630 508 cnv 1 1 1 42x27 42x27-i empty 0 0 0 10 -45635 -1 0;
#X obj 631 508 cnv 1 1 1 43x27 43x27-i empty 0 0 0 10 -136776 -1 0
;
#X obj 632 508 cnv 1 1 1 44x27 44x27-i empty 0 0 0 10 -252878 -1 0
;
#X obj 633 508 cnv 1 1 1 45x27 45x27-i empty 0 0 0 10 -186571 -1 0
;
#X obj 634 508 cnv 1 1 1 46x27 46x27-i empty 0 0 0 10 -45571 -1 0;
#X obj 635 508 cnv 1 1 1 47x27 47x27-i empty 0 0 0 10 -82949 -1 0;
#X obj 636 508 cnv 1 1 1 48x27 48x27-i empty 0 0 0 10 -53827 -1 0;
#X obj 637 508 cnv 1 1 1 49x27 49x27-i empty 0 0 0 10 -82885 -1 0;
#X obj 638 508 cnv 1 1 1 50x27 50x27-i empty 0 0 0 10 -219724 -1 0
;
#X obj 639 508 cnv 1 1 1 51x27 51x27-i empty 0 0 0 10 -240398 -1 0
;
#X obj 640 508 cnv 1 1 1 52x27 52x27-i empty 0 0 0 10 -62148 -1 0;
#X obj 641 508 cnv 1 1 1 53x27 53x27-i empty 0 0 0 10 -41475 -1 0;
#X obj 642 508 cnv 1 1 1 54x27 54x27-i empty 0 0 0 10 -37315 -1 0;
#X obj 643 508 cnv 1 1 1 55x27 55x27-i empty 0 0 0 10 -161673 -1 0
;
#X obj 644 508 cnv 1 1 1 56x27 56x27-i empty 0 0 0 10 -215564 -1 0
;
#X obj 645 508 cnv 1 1 1 57x27 57x27-i empty 0 0 0 10 -66308 -1 0;
#X obj 646 508 cnv 1 1 1 58x27 58x27-i empty 0 0 0 10 -4097 -1 0;
#X obj 647 508 cnv 1 1 1 59x27 59x27-i empty 0 0 0 10 -70468 -1 0;
#X obj 648 508 cnv 1 1 1 60x27 60x27-i empty 0 0 0 10 -136776 -1 0
;
#X obj 649 508 cnv 1 1 1 61x27 61x27-i empty 0 0 0 10 -244558 -1 0
;
#X obj 650 508 cnv 1 1 1 62x27 62x27-i empty 0 0 0 10 -140936 -1 0
;
#X obj 651 508 cnv 1 1 1 63x27 63x27-i empty 0 0 0 10 -49731 -1 0;
#X obj 652 508 cnv 1 1 1 64x27 64x27-i empty 0 0 0 10 -62148 -1 0;
#X obj 653 508 cnv 1 1 1 65x27 65x27-i empty 0 0 0 10 -124359 -1 0
;
#X obj 654 508 cnv 1 1 1 66x27 66x27-i empty 0 0 0 10 -240462 -1 0
;
#X obj 655 508 cnv 1 1 1 67x27 67x27-i empty 0 0 0 10 -261135 -1 0
;
#X obj 656 508 cnv 1 1 1 71x27 71x27-i empty 0 0 0 10 -261135 -1 0
;
#X obj 657 508 cnv 1 1 1 72x27 72x27-i empty 0 0 0 10 -261135 -1 0
;
#X obj 658 508 cnv 1 1 1 73x27 73x27-i empty 0 0 0 10 -261135 -1 0
;
#X obj 659 508 cnv 1 1 1 74x27 74x27-i empty 0 0 0 10 -248718 -1 0
;
#X obj 660 508 cnv 1 1 1 75x27 75x27-i empty 0 0 0 10 -261135 -1 0
;
#X obj 661 508 cnv 1 1 1 76x27 76x27-i empty 0 0 0 10 -261135 -1 0
;
#X obj 662 508 cnv 1 1 1 77x27 77x27-i empty 0 0 0 10 -261135 -1 0
;
#X obj 611 507 cnv 1 1 1 20x26 20x26-i empty 0 0 0 10 -257109 -1 0
;
#X obj 612 507 cnv 1 1 1 21x26 21x26-i empty 0 0 0 10 -248718 -1 0
;
#X obj 613 507 cnv 1 1 1 22x26 22x26-i empty 0 0 0 10 -261135 -1 0
;
#X obj 614 507 cnv 1 1 1 23x26 23x26-i empty 0 0 0 10 -261135 -1 0
;
#X obj 615 507 cnv 1 1 1 24x26 24x26-i empty 0 0 0 10 -261135 -1 0
;
#X obj 616 507 cnv 1 1 1 25x26 25x26-i empty 0 0 0 10 -261135 -1 0
;
#X obj 617 507 cnv 1 1 1 26x26 26x26-i empty 0 0 0 10 -261135 -1 0
;
#X obj 619 507 cnv 1 1 1 31x26 31x26-i empty 0 0 0 10 -261135 -1 0
;
#X obj 620 507 cnv 1 1 1 32x26 32x26-i empty 0 0 0 10 -207244 -1 0
;
#X obj 621 507 cnv 1 1 1 33x26 33x26-i empty 0 0 0 10 -20738 -1 0;
#X obj 622 507 cnv 1 1 1 34x26 34x26-i empty 0 0 0 10 -120199 -1 0
;
#X obj 623 507 cnv 1 1 1 35x26 35x26-i empty 0 0 0 10 -128520 -1 0
;
#X obj 624 507 cnv 1 1 1 36x26 36x26-i empty 0 0 0 10 -33154 -1 0;
#X obj 625 507 cnv 1 1 1 37x26 37x26-i empty 0 0 0 10 -70468 -1 0;
#X obj 626 507 cnv 1 1 1 38x26 38x26-i empty 0 0 0 10 -223885 -1 0
;
#X obj 627 507 cnv 1 1 1 39x26 39x26-i empty 0 0 0 10 -257039 -1 0
;
#X obj 628 507 cnv 1 1 1 40x26 40x26-i empty 0 0 0 10 -236237 -1 0
;
#X obj 629 507 cnv 1 1 1 41x26 41x26-i empty 0 0 0 10 -203148 -1 0
;
#X obj 630 507 cnv 1 1 1 42x26 42x26-i empty 0 0 0 10 -211404 -1 0
;
#X obj 631 507 cnv 1 1 1 43x26 43x26-i empty 0 0 0 10 -248718 -1 0
;
#X obj 632 507 cnv 1 1 1 44x26 44x26-i empty 0 0 0 10 -261135 -1 0
;
#X obj 633 507 cnv 1 1 1 45x26 45x26-i empty 0 0 0 10 -244558 -1 0
;
#X obj 634 507 cnv 1 1 1 46x26 46x26-i empty 0 0 0 10 -211404 -1 0
;
#X obj 635 507 cnv 1 1 1 47x26 47x26-i empty 0 0 0 10 -223821 -1 0
;
#X obj 636 507 cnv 1 1 1 48x26 48x26-i empty 0 0 0 10 -207244 -1 0
;
#X obj 637 507 cnv 1 1 1 49x26 49x26-i empty 0 0 0 10 -227981 -1 0
;
#X obj 638 507 cnv 1 1 1 50x26 50x26-i empty 0 0 0 10 -256974 -1 0
;
#X obj 639 507 cnv 1 1 1 51x26 51x26-i empty 0 0 0 10 -256974 -1 0
;
#X obj 640 507 cnv 1 1 1 52x26 52x26-i empty 0 0 0 10 -219724 -1 0
;
#X obj 641 507 cnv 1 1 1 53x26 53x26-i empty 0 0 0 10 -198987 -1 0
;
#X obj 642 507 cnv 1 1 1 54x26 54x26-i empty 0 0 0 10 -207308 -1 0
;
#X obj 643 507 cnv 1 1 1 55x26 55x26-i empty 0 0 0 10 -248718 -1 0
;
#X obj 644 507 cnv 1 1 1 56x26 56x26-i empty 0 0 0 10 -248718 -1 0
;
#X obj 645 507 cnv 1 1 1 57x26 57x26-i empty 0 0 0 10 -128520 -1 0
;
#X obj 646 507 cnv 1 1 1 58x26 58x26-i empty 0 0 0 10 -12417 -1 0;
#X obj 647 507 cnv 1 1 1 59x26 59x26-i empty 0 0 0 10 -194827 -1 0
;
#X obj 648 507 cnv 1 1 1 60x26 60x26-i empty 0 0 0 10 -223885 -1 0
;
#X obj 649 507 cnv 1 1 1 61x26 61x26-i empty 0 0 0 10 -261135 -1 0
;
#X obj 650 507 cnv 1 1 1 62x26 62x26-i empty 0 0 0 10 -248718 -1 0
;
#X obj 651 507 cnv 1 1 1 63x26 63x26-i empty 0 0 0 10 -207244 -1 0
;
#X obj 652 507 cnv 1 1 1 64x26 64x26-i empty 0 0 0 10 -207308 -1 0
;
#X obj 653 507 cnv 1 1 1 65x26 65x26-i empty 0 0 0 10 -240462 -1 0
;
#X obj 654 507 cnv 1 1 1 66x26 66x26-i empty 0 0 0 10 -261135 -1 0
;
#X obj 655 507 cnv 1 1 1 67x26 67x26-i empty 0 0 0 10 -261135 -1 0
;
#X obj 656 507 cnv 1 1 1 71x26 71x26-i empty 0 0 0 10 -261135 -1 0
;
#X obj 657 507 cnv 1 1 1 72x26 72x26-i empty 0 0 0 10 -261135 -1 0
;
#X obj 658 507 cnv 1 1 1 73x26 73x26-i empty 0 0 0 10 -261135 -1 0
;
#X obj 659 507 cnv 1 1 1 74x26 74x26-i empty 0 0 0 10 -256974 -1 0
;
#X obj 660 507 cnv 1 1 1 75x26 75x26-i empty 0 0 0 10 -261135 -1 0
;
#X obj 661 507 cnv 1 1 1 76x26 76x26-i empty 0 0 0 10 -261135 -1 0
;
#X obj 662 507 cnv 1 1 1 77x26 77x26-i empty 0 0 0 10 -261135 -1 0
;
#X obj 612 506 cnv 1 1 1 21x25 21x25-i empty 0 0 0 10 -257040 -1 0
;
#X obj 613 506 cnv 1 1 1 22x25 22x25-i empty 0 0 0 10 -261135 -1 0
;
#X obj 614 506 cnv 1 1 1 23x25 23x25-i empty 0 0 0 10 -244558 -1 0
;
#X obj 615 506 cnv 1 1 1 24x25 24x25-i empty 0 0 0 10 -261135 -1 0
;
#X obj 616 506 cnv 1 1 1 25x25 25x25-i empty 0 0 0 10 -261135 -1 0
;
#X obj 617 506 cnv 1 1 1 26x25 26x25-i empty 0 0 0 10 -261135 -1 0
;
#X obj 619 506 cnv 1 1 1 31x25 31x25-i empty 0 0 0 10 -261135 -1 0
;
#X obj 620 506 cnv 1 1 1 32x25 32x25-i empty 0 0 0 10 -215564 -1 0
;
#X obj 621 506 cnv 1 1 1 33x25 33x25-i empty 0 0 0 10 -62148 -1 0;
#X obj 622 506 cnv 1 1 1 34x25 34x25-i empty 0 0 0 10 -49731 -1 0;
#X obj 623 506 cnv 1 1 1 35x25 35x25-i empty 0 0 0 10 -70468 -1 0;
#X obj 624 506 cnv 1 1 1 36x25 36x25-i empty 0 0 0 10 -132616 -1 0
;
#X obj 625 506 cnv 1 1 1 37x25 37x25-i empty 0 0 0 10 -240462 -1 0
;
#X obj 626 506 cnv 1 1 1 38x25 38x25-i empty 0 0 0 10 -261135 -1 0
;
#X obj 627 506 cnv 1 1 1 39x25 39x25-i empty 0 0 0 10 -261135 -1 0
;
#X obj 628 506 cnv 1 1 1 40x25 40x25-i empty 0 0 0 10 -261135 -1 0
;
#X obj 629 506 cnv 1 1 1 41x25 41x25-i empty 0 0 0 10 -261135 -1 0
;
#X obj 630 506 cnv 1 1 1 42x25 42x25-i empty 0 0 0 10 -261135 -1 0
;
#X obj 631 506 cnv 1 1 1 43x25 43x25-i empty 0 0 0 10 -261135 -1 0
;
#X obj 632 506 cnv 1 1 1 44x25 44x25-i empty 0 0 0 10 -261135 -1 0
;
#X obj 633 506 cnv 1 1 1 45x25 45x25-i empty 0 0 0 10 -261135 -1 0
;
#X obj 634 506 cnv 1 1 1 46x25 46x25-i empty 0 0 0 10 -261135 -1 0
;
#X obj 635 506 cnv 1 1 1 47x25 47x25-i empty 0 0 0 10 -261135 -1 0
;
#X obj 636 506 cnv 1 1 1 48x25 48x25-i empty 0 0 0 10 -261135 -1 0
;
#X obj 637 506 cnv 1 1 1 49x25 49x25-i empty 0 0 0 10 -261135 -1 0
;
#X obj 638 506 cnv 1 1 1 50x25 50x25-i empty 0 0 0 10 -261135 -1 0
;
#X obj 639 506 cnv 1 1 1 51x25 51x25-i empty 0 0 0 10 -261135 -1 0
;
#X obj 640 506 cnv 1 1 1 52x25 52x25-i empty 0 0 0 10 -261135 -1 0
;
#X obj 641 506 cnv 1 1 1 53x25 53x25-i empty 0 0 0 10 -261135 -1 0
;
#X obj 642 506 cnv 1 1 1 54x25 54x25-i empty 0 0 0 10 -261135 -1 0
;
#X obj 643 506 cnv 1 1 1 55x25 55x25-i empty 0 0 0 10 -261135 -1 0
;
#X obj 644 506 cnv 1 1 1 56x25 56x25-i empty 0 0 0 10 -261135 -1 0
;
#X obj 645 506 cnv 1 1 1 57x25 57x25-i empty 0 0 0 10 -244558 -1 0
;
#X obj 646 506 cnv 1 1 1 58x25 58x25-i empty 0 0 0 10 -211404 -1 0
;
#X obj 647 506 cnv 1 1 1 59x25 59x25-i empty 0 0 0 10 -256974 -1 0
;
#X obj 648 506 cnv 1 1 1 60x25 60x25-i empty 0 0 0 10 -261135 -1 0
;
#X obj 649 506 cnv 1 1 1 61x25 61x25-i empty 0 0 0 10 -261135 -1 0
;
#X obj 650 506 cnv 1 1 1 62x25 62x25-i empty 0 0 0 10 -261135 -1 0
;
#X obj 651 506 cnv 1 1 1 63x25 63x25-i empty 0 0 0 10 -261135 -1 0
;
#X obj 652 506 cnv 1 1 1 64x25 64x25-i empty 0 0 0 10 -261135 -1 0
;
#X obj 653 506 cnv 1 1 1 65x25 65x25-i empty 0 0 0 10 -257038 -1 0
;
#X obj 654 506 cnv 1 1 1 66x25 66x25-i empty 0 0 0 10 -257039 -1 0
;
#X obj 655 506 cnv 1 1 1 67x25 67x25-i empty 0 0 0 10 -261135 -1 0
;
#X obj 656 506 cnv 1 1 1 71x25 71x25-i empty 0 0 0 10 -257039 -1 0
;
#X obj 657 506 cnv 1 1 1 72x25 72x25-i empty 0 0 0 10 -256974 -1 0
;
#X obj 658 506 cnv 1 1 1 73x25 73x25-i empty 0 0 0 10 -261135 -1 0
;
#X obj 659 506 cnv 1 1 1 74x25 74x25-i empty 0 0 0 10 -261135 -1 0
;
#X obj 660 506 cnv 1 1 1 75x25 75x25-i empty 0 0 0 10 -261135 -1 0
;
#X obj 661 506 cnv 1 1 1 76x25 76x25-i empty 0 0 0 10 -261135 -1 0
;
#X obj 662 506 cnv 1 1 1 77x25 77x25-i empty 0 0 0 10 -248719 -1 0
;
#X obj 612 505 cnv 1 1 1 21x24 21x24-i empty 0 0 0 10 -199056 -1 0
;
#X obj 613 505 cnv 1 1 1 22x24 22x24-i empty 0 0 0 10 -257107 -1 0
;
#X obj 614 505 cnv 1 1 1 23x24 23x24-i empty 0 0 0 10 -261135 -1 0
;
#X obj 615 505 cnv 1 1 1 24x24 24x24-i empty 0 0 0 10 -261135 -1 0
;
#X obj 616 505 cnv 1 1 1 25x24 25x24-i empty 0 0 0 10 -261135 -1 0
;
#X obj 617 505 cnv 1 1 1 26x24 26x24-i empty 0 0 0 10 -261135 -1 0
;
#X obj 619 505 cnv 1 1 1 31x24 31x24-i empty 0 0 0 10 -261135 -1 0
;
#X obj 620 505 cnv 1 1 1 32x24 32x24-i empty 0 0 0 10 -261135 -1 0
;
#X obj 621 505 cnv 1 1 1 33x24 33x24-i empty 0 0 0 10 -261135 -1 0
;
#X obj 622 505 cnv 1 1 1 34x24 34x24-i empty 0 0 0 10 -261135 -1 0
;
#X obj 623 505 cnv 1 1 1 35x24 35x24-i empty 0 0 0 10 -261135 -1 0
;
#X obj 624 505 cnv 1 1 1 36x24 36x24-i empty 0 0 0 10 -261135 -1 0
;
#X obj 625 505 cnv 1 1 1 37x24 37x24-i empty 0 0 0 10 -261135 -1 0
;
#X obj 626 505 cnv 1 1 1 38x24 38x24-i empty 0 0 0 10 -261135 -1 0
;
#X obj 627 505 cnv 1 1 1 39x24 39x24-i empty 0 0 0 10 -261135 -1 0
;
#X obj 628 505 cnv 1 1 1 40x24 40x24-i empty 0 0 0 10 -261135 -1 0
;
#X obj 629 505 cnv 1 1 1 41x24 41x24-i empty 0 0 0 10 -261135 -1 0
;
#X obj 630 505 cnv 1 1 1 42x24 42x24-i empty 0 0 0 10 -261135 -1 0
;
#X obj 631 505 cnv 1 1 1 43x24 43x24-i empty 0 0 0 10 -261135 -1 0
;
#X obj 632 505 cnv 1 1 1 44x24 44x24-i empty 0 0 0 10 -261135 -1 0
;
#X obj 633 505 cnv 1 1 1 45x24 45x24-i empty 0 0 0 10 -261135 -1 0
;
#X obj 634 505 cnv 1 1 1 46x24 46x24-i empty 0 0 0 10 -261135 -1 0
;
#X obj 635 505 cnv 1 1 1 47x24 47x24-i empty 0 0 0 10 -261135 -1 0
;
#X obj 636 505 cnv 1 1 1 48x24 48x24-i empty 0 0 0 10 -261135 -1 0
;
#X obj 637 505 cnv 1 1 1 49x24 49x24-i empty 0 0 0 10 -261135 -1 0
;
#X obj 638 505 cnv 1 1 1 50x24 50x24-i empty 0 0 0 10 -261135 -1 0
;
#X obj 639 505 cnv 1 1 1 51x24 51x24-i empty 0 0 0 10 -261135 -1 0
;
#X obj 640 505 cnv 1 1 1 52x24 52x24-i empty 0 0 0 10 -261135 -1 0
;
#X obj 641 505 cnv 1 1 1 53x24 53x24-i empty 0 0 0 10 -261135 -1 0
;
#X obj 642 505 cnv 1 1 1 54x24 54x24-i empty 0 0 0 10 -261135 -1 0
;
#X obj 643 505 cnv 1 1 1 55x24 55x24-i empty 0 0 0 10 -261135 -1 0
;
#X obj 644 505 cnv 1 1 1 56x24 56x24-i empty 0 0 0 10 -261135 -1 0
;
#X obj 645 505 cnv 1 1 1 57x24 57x24-i empty 0 0 0 10 -261135 -1 0
;
#X obj 646 505 cnv 1 1 1 58x24 58x24-i empty 0 0 0 10 -261135 -1 0
;
#X obj 647 505 cnv 1 1 1 59x24 59x24-i empty 0 0 0 10 -261135 -1 0
;
#X obj 648 505 cnv 1 1 1 60x24 60x24-i empty 0 0 0 10 -261135 -1 0
;
#X obj 649 505 cnv 1 1 1 61x24 61x24-i empty 0 0 0 10 -261135 -1 0
;
#X obj 650 505 cnv 1 1 1 62x24 62x24-i empty 0 0 0 10 -261135 -1 0
;
#X obj 651 505 cnv 1 1 1 63x24 63x24-i empty 0 0 0 10 -261135 -1 0
;
#X obj 652 505 cnv 1 1 1 64x24 64x24-i empty 0 0 0 10 -261135 -1 0
;
#X obj 653 505 cnv 1 1 1 65x24 65x24-i empty 0 0 0 10 -252814 -1 0
;
#X obj 654 505 cnv 1 1 1 66x24 66x24-i empty 0 0 0 10 -256974 -1 0
;
#X obj 655 505 cnv 1 1 1 67x24 67x24-i empty 0 0 0 10 -261135 -1 0
;
#X obj 656 505 cnv 1 1 1 71x24 71x24-i empty 0 0 0 10 -257038 -1 0
;
#X obj 657 505 cnv 1 1 1 72x24 72x24-i empty 0 0 0 10 -248718 -1 0
;
#X obj 658 505 cnv 1 1 1 73x24 73x24-i empty 0 0 0 10 -261135 -1 0
;
#X obj 659 505 cnv 1 1 1 74x24 74x24-i empty 0 0 0 10 -261135 -1 0
;
#X obj 660 505 cnv 1 1 1 75x24 75x24-i empty 0 0 0 10 -261135 -1 0
;
#X obj 661 505 cnv 1 1 1 76x24 76x24-i empty 0 0 0 10 -257107 -1 0
;
#X obj 662 505 cnv 1 1 1 77x24 77x24-i empty 0 0 0 10 -199056 -1 0
;
#X obj 613 504 cnv 1 1 1 22x23 22x23-i empty 0 0 0 10 -199121 -1 0
;
#X obj 614 504 cnv 1 1 1 23x23 23x23-i empty 0 0 0 10 -261269 -1 0
;
#X obj 615 504 cnv 1 1 1 24x23 24x23-i empty 0 0 0 10 -257106 -1 0
;
#X obj 616 504 cnv 1 1 1 25x23 25x23-i empty 0 0 0 10 -261135 -1 0
;
#X obj 617 504 cnv 1 1 1 26x23 26x23-i empty 0 0 0 10 -261135 -1 0
;
#X obj 619 504 cnv 1 1 1 31x23 31x23-i empty 0 0 0 10 -261135 -1 0
;
#X obj 620 504 cnv 1 1 1 32x23 32x23-i empty 0 0 0 10 -261135 -1 0
;
#X obj 621 504 cnv 1 1 1 33x23 33x23-i empty 0 0 0 10 -261135 -1 0
;
#X obj 622 504 cnv 1 1 1 34x23 34x23-i empty 0 0 0 10 -261135 -1 0
;
#X obj 623 504 cnv 1 1 1 35x23 35x23-i empty 0 0 0 10 -261135 -1 0
;
#X obj 624 504 cnv 1 1 1 36x23 36x23-i empty 0 0 0 10 -261135 -1 0
;
#X obj 625 504 cnv 1 1 1 37x23 37x23-i empty 0 0 0 10 -261135 -1 0
;
#X obj 626 504 cnv 1 1 1 38x23 38x23-i empty 0 0 0 10 -261135 -1 0
;
#X obj 627 504 cnv 1 1 1 39x23 39x23-i empty 0 0 0 10 -261135 -1 0
;
#X obj 628 504 cnv 1 1 1 40x23 40x23-i empty 0 0 0 10 -261135 -1 0
;
#X obj 629 504 cnv 1 1 1 41x23 41x23-i empty 0 0 0 10 -261135 -1 0
;
#X obj 630 504 cnv 1 1 1 42x23 42x23-i empty 0 0 0 10 -261135 -1 0
;
#X obj 631 504 cnv 1 1 1 43x23 43x23-i empty 0 0 0 10 -261135 -1 0
;
#X obj 632 504 cnv 1 1 1 44x23 44x23-i empty 0 0 0 10 -261135 -1 0
;
#X obj 633 504 cnv 1 1 1 45x23 45x23-i empty 0 0 0 10 -261135 -1 0
;
#X obj 634 504 cnv 1 1 1 46x23 46x23-i empty 0 0 0 10 -261135 -1 0
;
#X obj 635 504 cnv 1 1 1 47x23 47x23-i empty 0 0 0 10 -261135 -1 0
;
#X obj 636 504 cnv 1 1 1 48x23 48x23-i empty 0 0 0 10 -261135 -1 0
;
#X obj 637 504 cnv 1 1 1 49x23 49x23-i empty 0 0 0 10 -261135 -1 0
;
#X obj 638 504 cnv 1 1 1 50x23 50x23-i empty 0 0 0 10 -261135 -1 0
;
#X obj 639 504 cnv 1 1 1 51x23 51x23-i empty 0 0 0 10 -261135 -1 0
;
#X obj 640 504 cnv 1 1 1 52x23 52x23-i empty 0 0 0 10 -261135 -1 0
;
#X obj 641 504 cnv 1 1 1 53x23 53x23-i empty 0 0 0 10 -261135 -1 0
;
#X obj 642 504 cnv 1 1 1 54x23 54x23-i empty 0 0 0 10 -261135 -1 0
;
#X obj 643 504 cnv 1 1 1 55x23 55x23-i empty 0 0 0 10 -261135 -1 0
;
#X obj 644 504 cnv 1 1 1 56x23 56x23-i empty 0 0 0 10 -261135 -1 0
;
#X obj 645 504 cnv 1 1 1 57x23 57x23-i empty 0 0 0 10 -261135 -1 0
;
#X obj 646 504 cnv 1 1 1 58x23 58x23-i empty 0 0 0 10 -261135 -1 0
;
#X obj 647 504 cnv 1 1 1 59x23 59x23-i empty 0 0 0 10 -261135 -1 0
;
#X obj 648 504 cnv 1 1 1 60x23 60x23-i empty 0 0 0 10 -261135 -1 0
;
#X obj 649 504 cnv 1 1 1 61x23 61x23-i empty 0 0 0 10 -261135 -1 0
;
#X obj 650 504 cnv 1 1 1 62x23 62x23-i empty 0 0 0 10 -261135 -1 0
;
#X obj 651 504 cnv 1 1 1 63x23 63x23-i empty 0 0 0 10 -261135 -1 0
;
#X obj 652 504 cnv 1 1 1 64x23 64x23-i empty 0 0 0 10 -261135 -1 0
;
#X obj 653 504 cnv 1 1 1 65x23 65x23-i empty 0 0 0 10 -261135 -1 0
;
#X obj 654 504 cnv 1 1 1 66x23 66x23-i empty 0 0 0 10 -261135 -1 0
;
#X obj 655 504 cnv 1 1 1 67x23 67x23-i empty 0 0 0 10 -261135 -1 0
;
#X obj 656 504 cnv 1 1 1 71x23 71x23-i empty 0 0 0 10 -261135 -1 0
;
#X obj 657 504 cnv 1 1 1 72x23 72x23-i empty 0 0 0 10 -261135 -1 0
;
#X obj 658 504 cnv 1 1 1 73x23 73x23-i empty 0 0 0 10 -261135 -1 0
;
#X obj 614 503 cnv 1 1 1 23x22 23x22-i empty 0 0 0 10 -219791 -1 0
;
#X obj 615 503 cnv 1 1 1 24x22 24x22-i empty 0 0 0 10 -257242 -1 0
;
#X obj 616 503 cnv 1 1 1 25x22 25x22-i empty 0 0 0 10 -257241 -1 0
;
#X obj 617 503 cnv 1 1 1 26x22 26x22-i empty 0 0 0 10 -257108 -1 0
;
#X obj 619 503 cnv 1 1 1 31x22 31x22-i empty 0 0 0 10 -261135 -1 0
;
#X obj 620 503 cnv 1 1 1 32x22 32x22-i empty 0 0 0 10 -261135 -1 0
;
#X obj 621 503 cnv 1 1 1 33x22 33x22-i empty 0 0 0 10 -261135 -1 0
;
#X obj 622 503 cnv 1 1 1 34x22 34x22-i empty 0 0 0 10 -261135 -1 0
;
#X obj 623 503 cnv 1 1 1 35x22 35x22-i empty 0 0 0 10 -261135 -1 0
;
#X obj 624 503 cnv 1 1 1 36x22 36x22-i empty 0 0 0 10 -261135 -1 0
;
#X obj 625 503 cnv 1 1 1 37x22 37x22-i empty 0 0 0 10 -261135 -1 0
;
#X obj 626 503 cnv 1 1 1 38x22 38x22-i empty 0 0 0 10 -261135 -1 0
;
#X obj 627 503 cnv 1 1 1 39x22 39x22-i empty 0 0 0 10 -261135 -1 0
;
#X obj 628 503 cnv 1 1 1 40x22 40x22-i empty 0 0 0 10 -261135 -1 0
;
#X obj 629 503 cnv 1 1 1 41x22 41x22-i empty 0 0 0 10 -261135 -1 0
;
#X obj 630 503 cnv 1 1 1 42x22 42x22-i empty 0 0 0 10 -261135 -1 0
;
#X obj 631 503 cnv 1 1 1 43x22 43x22-i empty 0 0 0 10 -261135 -1 0
;
#X obj 632 503 cnv 1 1 1 44x22 44x22-i empty 0 0 0 10 -261135 -1 0
;
#X obj 633 503 cnv 1 1 1 45x22 45x22-i empty 0 0 0 10 -261135 -1 0
;
#X obj 634 503 cnv 1 1 1 46x22 46x22-i empty 0 0 0 10 -261135 -1 0
;
#X obj 635 503 cnv 1 1 1 47x22 47x22-i empty 0 0 0 10 -261135 -1 0
;
#X obj 636 503 cnv 1 1 1 48x22 48x22-i empty 0 0 0 10 -261135 -1 0
;
#X obj 637 503 cnv 1 1 1 49x22 49x22-i empty 0 0 0 10 -261135 -1 0
;
#X obj 638 503 cnv 1 1 1 50x22 50x22-i empty 0 0 0 10 -261135 -1 0
;
#X obj 639 503 cnv 1 1 1 51x22 51x22-i empty 0 0 0 10 -261135 -1 0
;
#X obj 640 503 cnv 1 1 1 52x22 52x22-i empty 0 0 0 10 -261135 -1 0
;
#X obj 641 503 cnv 1 1 1 53x22 53x22-i empty 0 0 0 10 -261135 -1 0
;
#X obj 642 503 cnv 1 1 1 54x22 54x22-i empty 0 0 0 10 -261135 -1 0
;
#X obj 643 503 cnv 1 1 1 55x22 55x22-i empty 0 0 0 10 -261135 -1 0
;
#X obj 644 503 cnv 1 1 1 56x22 56x22-i empty 0 0 0 10 -261135 -1 0
;
#X obj 645 503 cnv 1 1 1 57x22 57x22-i empty 0 0 0 10 -261135 -1 0
;
#X obj 646 503 cnv 1 1 1 58x22 58x22-i empty 0 0 0 10 -261135 -1 0
;
#X obj 647 503 cnv 1 1 1 59x22 59x22-i empty 0 0 0 10 -261135 -1 0
;
#X obj 648 503 cnv 1 1 1 60x22 60x22-i empty 0 0 0 10 -261135 -1 0
;
#X obj 649 503 cnv 1 1 1 61x22 61x22-i empty 0 0 0 10 -261135 -1 0
;
#X obj 650 503 cnv 1 1 1 62x22 62x22-i empty 0 0 0 10 -261135 -1 0
;
#X obj 651 503 cnv 1 1 1 63x22 63x22-i empty 0 0 0 10 -261135 -1 0
;
#X obj 652 503 cnv 1 1 1 64x22 64x22-i empty 0 0 0 10 -261135 -1 0
;
#X obj 653 503 cnv 1 1 1 65x22 65x22-i empty 0 0 0 10 -261135 -1 0
;
#X obj 654 503 cnv 1 1 1 66x22 66x22-i empty 0 0 0 10 -261135 -1 0
;
#X obj 655 503 cnv 1 1 1 67x22 67x22-i empty 0 0 0 10 -261135 -1 0
;
#X obj 656 503 cnv 1 1 1 71x22 71x22-i empty 0 0 0 10 -261135 -1 0
;
#X obj 657 503 cnv 1 1 1 72x22 72x22-i empty 0 0 0 10 -257173 -1 0
;
#X obj 658 503 cnv 1 1 1 73x22 73x22-i empty 0 0 0 10 -261271 -1 0
;
#X obj 614 502 cnv 1 1 1 23x21 23x21-i empty 0 0 0 10 -12417 -1 0;
#X obj 615 502 cnv 1 1 1 24x21 24x21-i empty 0 0 0 10 -219793 -1 0
;
#X obj 616 502 cnv 1 1 1 25x21 25x21-i empty 0 0 0 10 -236371 -1 0
;
#X obj 617 502 cnv 1 1 1 26x21 26x21-i empty 0 0 0 10 -257241 -1 0
;
#X obj 619 502 cnv 1 1 1 31x21 31x21-i empty 0 0 0 10 -261471 -1 0
;
#X obj 620 502 cnv 1 1 1 32x21 32x21-i empty 0 0 0 10 -257375 -1 0
;
#X obj 621 502 cnv 1 1 1 33x21 33x21-i empty 0 0 0 10 -257374 -1 0
;
#X obj 622 502 cnv 1 1 1 34x21 34x21-i empty 0 0 0 10 -261471 -1 0
;
#X obj 623 502 cnv 1 1 1 35x21 35x21-i empty 0 0 0 10 -257310 -1 0
;
#X obj 624 502 cnv 1 1 1 36x21 36x21-i empty 0 0 0 10 -261471 -1 0
;
#X obj 625 502 cnv 1 1 1 37x21 37x21-i empty 0 0 0 10 -257375 -1 0
;
#X obj 626 502 cnv 1 1 1 38x21 38x21-i empty 0 0 0 10 -257375 -1 0
;
#X obj 627 502 cnv 1 1 1 39x21 39x21-i empty 0 0 0 10 -261471 -1 0
;
#X obj 628 502 cnv 1 1 1 40x21 40x21-i empty 0 0 0 10 -257374 -1 0
;
#X obj 629 502 cnv 1 1 1 41x21 41x21-i empty 0 0 0 10 -261471 -1 0
;
#X obj 630 502 cnv 1 1 1 42x21 42x21-i empty 0 0 0 10 -257374 -1 0
;
#X obj 631 502 cnv 1 1 1 43x21 43x21-i empty 0 0 0 10 -261471 -1 0
;
#X obj 632 502 cnv 1 1 1 44x21 44x21-i empty 0 0 0 10 -257375 -1 0
;
#X obj 633 502 cnv 1 1 1 45x21 45x21-i empty 0 0 0 10 -257374 -1 0
;
#X obj 634 502 cnv 1 1 1 46x21 46x21-i empty 0 0 0 10 -261471 -1 0
;
#X obj 635 502 cnv 1 1 1 47x21 47x21-i empty 0 0 0 10 -257310 -1 0
;
#X obj 636 502 cnv 1 1 1 48x21 48x21-i empty 0 0 0 10 -261471 -1 0
;
#X obj 637 502 cnv 1 1 1 49x21 49x21-i empty 0 0 0 10 -257375 -1 0
;
#X obj 638 502 cnv 1 1 1 50x21 50x21-i empty 0 0 0 10 -257375 -1 0
;
#X obj 639 502 cnv 1 1 1 51x21 51x21-i empty 0 0 0 10 -261471 -1 0
;
#X obj 640 502 cnv 1 1 1 52x21 52x21-i empty 0 0 0 10 -257374 -1 0
;
#X obj 641 502 cnv 1 1 1 53x21 53x21-i empty 0 0 0 10 -261471 -1 0
;
#X obj 642 502 cnv 1 1 1 54x21 54x21-i empty 0 0 0 10 -257374 -1 0
;
#X obj 643 502 cnv 1 1 1 55x21 55x21-i empty 0 0 0 10 -261471 -1 0
;
#X obj 644 502 cnv 1 1 1 56x21 56x21-i empty 0 0 0 10 -261471 -1 0
;
#X obj 645 502 cnv 1 1 1 57x21 57x21-i empty 0 0 0 10 -257374 -1 0
;
#X obj 646 502 cnv 1 1 1 58x21 58x21-i empty 0 0 0 10 -257375 -1 0
;
#X obj 647 502 cnv 1 1 1 59x21 59x21-i empty 0 0 0 10 -261471 -1 0
;
#X obj 648 502 cnv 1 1 1 60x21 60x21-i empty 0 0 0 10 -257374 -1 0
;
#X obj 649 502 cnv 1 1 1 61x21 61x21-i empty 0 0 0 10 -261471 -1 0
;
#X obj 650 502 cnv 1 1 1 62x21 62x21-i empty 0 0 0 10 -257374 -1 0
;
#X obj 651 502 cnv 1 1 1 63x21 63x21-i empty 0 0 0 10 -261471 -1 0
;
#X obj 652 502 cnv 1 1 1 64x21 64x21-i empty 0 0 0 10 -257375 -1 0
;
#X obj 653 502 cnv 1 1 1 65x21 65x21-i empty 0 0 0 10 -257375 -1 0
;
#X obj 654 502 cnv 1 1 1 66x21 66x21-i empty 0 0 0 10 -261471 -1 0
;
#X obj 655 502 cnv 1 1 1 67x21 67x21-i empty 0 0 0 10 -261471 -1 0
;
#X obj 656 502 cnv 1 1 1 71x21 71x21-i empty 0 0 0 10 -261471 -1 0
;
#X obj 657 502 cnv 1 1 1 72x21 72x21-i empty 0 0 0 10 -257308 -1 0
;
#X obj 658 502 cnv 1 1 1 73x21 73x21-i empty 0 0 0 10 -236372 -1 0
;
#X obj 661 516 cnv 1 1 1 76x35 76x35-i empty 0 0 0 10 -78725 -1 0;
#X obj 661 515 cnv 1 1 1 76x34 76x34-i empty 0 0 0 10 -219724 -1 0
;
#X obj 659 504 cnv 1 1 1 74x23 74x23-i empty 0 0 0 10 -257106 -1 0
;
#X obj 660 504 cnv 1 1 1 75x23 75x23-i empty 0 0 0 10 -261269 -1 0
;
#X obj 659 503 cnv 1 1 1 74x22 74x22-i empty 0 0 0 10 -257240 -1 0
;
#X obj 659 502 cnv 1 1 1 74x21 74x21-i empty 0 0 0 10 -219794 -1 0
;
#X obj 662 515 cnv 1 1 1 77x34 77x34-i empty 0 0 0 10 -70468 -1 0;
#X text 330 517 Specific features can be commissioned from the author.
;
#X text 404 316 Display settings;
#N canvas 492 53 348 145 DISPLAY 0;
#X text 19 7 The display settings are divided in two parts:;
#X text 79 37 Window settings;
#N canvas 415 123 807 516 Window 0;
#X msg 18 47 window 200 140;
#X msg 28 67 window 300 70;
#X text 19 27 The message "window \$1 \$2" changes the window size.
;
#X text 117 47 default values;
#X text 19 7 GOP WINDOW SIZE;
#X obj 18 87 s \$0-messages;
#X floatatom 18 377 5 0 0 0 - - -;
#X obj 18 457 s \$0-messages;
#X obj 314 331 pd-colors;
#X text 19 107 !! Mind \, the object doesn't get saved with the new
parameters !! You must edit the object itself if you want to change
the display permanently.;
#X obj 18 257 s \$0-messages;
#X obj 18 217 tgl 15 0 empty empty empty 17 7 0 10 -262144 -1 -1 0
1;
#X msg 18 237 gop \$1;
#X text 19 187 The message "gop \$1" controls the window's GOP. You
might want to switch it off before doing intensive calculations.;
#X text 19 167 GOP WINDOW ON/OFF;
#X obj 418 157 s \$0-messages;
#X text 419 7 SCALING OF X-AXIS;
#X msg 428 77 x-display window;
#X msg 418 47 x-display absolute;
#X text 539 77 scaled to the window width;
#X obj 418 317 s \$0-messages;
#X text 539 60 (default);
#X text 539 47 scaled to the size of the biggest array;
#X text 419 197 SCALING OF Y-AXIS;
#X text 419 217 The Y axis is scaled to -1 and 1 You can change it
with the message;
#X msg 428 267 y-range -1 1;
#X msg 418 247 y-range 0 2;
#X msg 438 297 y-range window;
#X text 529 297 or scale all arrays to the window heigth;
#X text 509 267 (default);
#X text 19 297 BACKGROUND COLOR;
#X text 19 317 The message "background \$1" changes the background
color \, following the data structures color scheme as in;
#X text 19 347 The message "background menu" calls a GUI to select
the color.;
#X msg 18 397 background \$1;
#X msg 28 427 background menu;
#X floatatom 438 107 5 0 0 0 - - -;
#X text 419 27 The width of the arrays can be scaled in three ways:
;
#X text 474 107 scaled to a concrete limit;
#X msg 438 127 x-display \$1;
#X obj 418 477 s \$0-messages;
#X text 419 377 Horizontal line to have a reference for the Y axis:
;
#X obj 418 397 tgl 15 0 empty empty empty 17 7 0 10 -262144 -1 -1 0
1;
#X msg 418 417 y-ref vis \$1;
#X text 439 397 Show/hide;
#X floatatom 618 437 5 0 0 0 - - -;
#X text 658 437 color;
#X msg 618 457 y-ref color \$1;
#X msg 618 477 y-ref color menu;
#X floatatom 508 397 5 0 0 0 - - -;
#X msg 508 417 y-ref thick \$1;
#X text 545 397 thickness;
#X floatatom 618 397 5 0 0 0 - - -;
#X msg 618 417 y-ref value \$1;
#X text 655 397 value;
#X text 419 357 Y-AXIS REFERENCE LINE;
#X connect 0 0 5 0;
#X connect 1 0 5 0;
#X connect 6 0 33 0;
#X connect 11 0 12 0;
#X connect 12 0 10 0;
#X connect 17 0 15 0;
#X connect 18 0 15 0;
#X connect 25 0 20 0;
#X connect 26 0 20 0;
#X connect 27 0 20 0;
#X connect 33 0 7 0;
#X connect 34 0 7 0;
#X connect 35 0 38 0;
#X connect 38 0 15 0;
#X connect 41 0 42 0;
#X connect 42 0 39 0;
#X connect 44 0 46 0;
#X connect 46 0 39 0;
#X connect 47 0 39 0;
#X connect 48 0 49 0;
#X connect 49 0 39 0;
#X connect 51 0 52 0;
#X connect 52 0 39 0;
#X restore 18 37 pd Window;
#N canvas 606 131 409 527 Array 0;
#X floatatom 18 117 5 0 0 0 - - -;
#X msg 18 137 1 color \$1;
#X floatatom 98 117 5 0 0 0 - - -;
#X msg 98 137 2 color \$1;
#X obj 18 187 s \$0-messages;
#X text 19 17 ARRAY COLOR;
#X obj 254 51 pd-colors;
#X floatatom 18 427 5 0 0 0 - - -;
#X floatatom 98 427 5 0 0 0 - - -;
#X obj 18 477 s \$0-messages;
#X text 19 367 ARRAY THICKNESS;
#X msg 18 447 1 thick \$1;
#X msg 98 447 2 thick \$1;
#X obj 18 327 s \$0-messages;
#X msg 18 297 1 vis \$1;
#X obj 18 277 tgl 15 0 empty empty empty 17 7 0 10 -262144 -1 -1 0
1;
#X obj 98 277 tgl 15 0 empty empty empty 17 7 0 10 -262144 -1 -1 0
1;
#X msg 98 297 2 vis \$1;
#X text 19 227 ARRAY VISIBLITY;
#X text 19 37 The message "\$1 color \$2" changes the array color \,
following the data structures color scheme as in;
#X text 19 67 The message "\$1 color menu" calls a GUI to select the
color.;
#X text 19 87 The messages "all color \$1" and "all color menu" apply
the chosen color to all arrays.;
#X floatatom 208 117 5 0 0 0 - - -;
#X obj 208 187 s \$0-messages;
#X msg 208 137 all color \$1;
#X msg 218 157 all color menu;
#X obj 178 277 tgl 15 0 empty empty empty 17 7 0 10 -262144 -1 -1 0
1;
#X msg 178 297 all vis \$1;
#X text 19 247 The message "\$1 vis \$2" controls the array's visibility.
"all vis \$1" apples the setting to all arrays.;
#X floatatom 178 427 5 0 0 0 - - -;
#X msg 178 447 all thick \$1;
#X text 19 387 The message "\$1 thick \$2" changes the array thickness
(minimum is 1). "all thick \$1" apples the setting to all arrays.;
#X msg 98 167 1 color menu;
#X connect 0 0 1 0;
#X connect 1 0 4 0;
#X connect 2 0 3 0;
#X connect 3 0 4 0;
#X connect 7 0 11 0;
#X connect 8 0 12 0;
#X connect 11 0 9 0;
#X connect 12 0 9 0;
#X connect 14 0 13 0;
#X connect 15 0 14 0;
#X connect 16 0 17 0;
#X connect 17 0 13 0;
#X connect 22 0 24 0;
#X connect 24 0 23 0;
#X connect 25 0 23 0;
#X connect 26 0 27 0;
#X connect 27 0 13 0;
#X connect 29 0 30 0;
#X connect 30 0 9 0;
#X connect 32 0 4 0;
#X restore 18 67 pd Array;
#X text 79 67 Array settings;
#X text 19 97 Also \, see the SAVE+LOAD for a bug in Pd drawing the
background \, and how to circumvent it.;
#X restore 330 316 pd DISPLAY;
#X text 12 91 All methods are equal or similar to the ones offered
by the [array] object. [multiarray] works from Pd 0.50.0.;
#X text 328 196 If no arguments are used \, the default array dimensions
of 200x140 will be used.;
#X text 330 256 There is only one inlet \, which accepts several messages:
;
#X connect 0 0 29 0;
#X connect 0 0 30 0;
#X connect 11 0 0 0;
