#N canvas 0 38 756 916 12;
#X obj 263 353 catch~ bus;
#X obj 263 377 *~ 0.01;
#X obj 263 401 dac~;
#X obj 263 88 s play;
#N canvas 897 202 450 300 partial 1;
#X obj 120 93 *~ \$1;
#X obj 166 196 *~;
#X obj 166 220 throw~ bus;
#X obj 236 69 r play;
#X obj 236 92 del \$4;
#X obj 235 163 vline~;
#X msg 235 139 1 \$1 0 \, 0 \$2 \$1;
#X obj 120 69 r~ fundamental;
#X obj 120 117 osc~;
#X obj 236 115 pack \$2 \$3;
#X connect 0 0 8 0;
#X connect 1 0 2 0;
#X connect 3 0 4 0;
#X connect 4 0 9 0;
#X connect 5 0 1 1;
#X connect 6 0 5 0;
#X connect 7 0 0 0;
#X connect 8 0 1 0;
#X connect 9 0 6 0;
#X restore 259 24 pd partial;
#X obj 362 89 s~ fundamental;
#X obj 142 528 spectrogram~;
#X obj 263 113 partial 1 300 9000 400;
#X obj 262 137 partial 2.06 700 8000 100;
#X obj 263 161 partial 2.44 400 7000 32;
#X obj 263 185 partial 4.06 200 6000 20;
#X obj 263 209 partial 5.52 37 5000 17;
#X obj 263 233 partial 6.14 31 4000 12;
#X obj 263 257 partial 8.1 20 3000 7;
#X obj 263 281 partial 11.2 15 1500 5;
#X obj 263 305 partial 13.9 5 1000 2;
#X obj 263 329 partial 17 2 500 0;
#X obj 362 65 sig~ 300;
#X obj 526 78 vsl 19 162 0 1000 0 0 empty empty empty 0 -9 0 12 #fcfcfc #000000 #000000 0 1;
#X obj 203 25 bng 19 250 50 0 empty empty empty 0 -10 0 12 #fcfcfc #000000 #000000;
#X obj 262 59 metro 2000;
#X connect 0 0 1 0;
#X connect 1 0 2 0;
#X connect 1 0 2 1;
#X connect 1 0 6 0;
#X connect 17 0 5 0;
#X connect 18 0 17 0;
#X connect 19 0 20 0;
#X connect 20 0 3 0;
