#N canvas 369 62 731 605 10;
#X obj 86 85 pdcontrol;
#X msg 86 65 args 0;
#X obj 86 45 loadbang;
#X obj 201 285 inlet;
#X obj 222 125 inlet;
#X obj 30 125 inlet;
#X obj 69 445 outlet;
#X obj 86 125 unpack f f f;
#X obj 175 125 sel 0;
#X obj 123 385 f+;
#X obj 86 325 expr $f2 - $f1 + 1;
#X obj 123 365 until;
#X obj 86 345 sel 0;
#X obj 125 245 text define \$0-shuffle-list;
#X obj 123 405 text set \$0-shuffle-list 1e+015;
#X msg 125 225 clear;
#X obj 86 205 t f f b;
#X obj 202 165 print jmmmp/shuffle;
#X msg 202 145 ATTENTION 3rd parameter still not implemented;
#X obj 30 385 random;
#X obj 69 425 text get \$0-shuffle-list;
#X obj 49 465 text delete \$0-shuffle-list;
#X obj 30 485 text size \$0-shuffle-list;
#X obj 30 405 t b f f;
#X obj 86 185 f;
#X obj 191 305 f;
#X obj 191 265 r \$0-reset;
#X obj 96 165 r \$0-reset;
#X obj 30 505 sel 0;
#X obj 30 525 s \$0-reset;
#X text 349 381 ARGUMENTS;
#X text 349 181 INLETS;
#X text 349 331 OUTLETS;
#X text 11 11 [shuffle] - A no-repeat random number generator \, in
vanilla. shuffles a nuber series;
#X text 371 221 bang - output shuffled integer series;
#X text 350 261 1) int - upper limit;
#X text 350 281 2) float - fraction of the end of a series and beginning
of next (after reshuffle) where no repetitions occur (range betwwen
0 & 0.5). NOT IMPLEMENTED.;
#X text 350 351 int - shuffled number;
#X text 350 401 As in the inlets;
#X text 350 201 0) int - lower limit (activates changes);
#N canvas 0 0 426 446 license 0;
#X text 8 47 All rights reserved.;
#X text 8 227 The names of its contributors may not be used to endorse
or promote products derived from this software without specific prior
written permission.;
#X text 8 87 Redistribution and use in source and binary forms \, with
or without modification \, are permitted provided that the following
conditions are met:;
#X text 8 127 Redistributions of source code must retain the above
copyright notice \, this list of conditions and the following disclaimer.
;
#X text 8 297 THIS SOFTWARE IS PROVIDED BY THE COPYRIGHT HOLDERS AND
CONTRIBUTORS "AS IS" AND ANY EXPRESS OR IMPLIED WARRANTIES \, INCLUDING
\, BUT NOT LIMITED TO \, THE IMPLIED WARRANTIES OF MERCHANTABILITY
AND FITNESS FOR A PARTICULAR PURPOSE ARE DISCLAIMED. IN NO EVENT SHALL
THE COPYRIGHT OWNER OR CONTRIBUTORS BE LIABLE FOR ANY DIRECT \, INDIRECT
\, INCIDENTAL \, SPECIAL \, EXEMPLARY \, OR CONSEQUENTIAL DAMAGES (INCLUDING
\, BUT NOT LIMITED TO \, PROCUREMENT OF SUBSTITUTE GOODS OR SERVICES
;
#X text 8 167 Redistributions in binary form must reproduce the above
copyright notice \, this list of conditions and the following disclaimer
in the documentation and/or other materials provided with the distribution.
;
#X text 8 27 jmmmpais@gmail.com;
#X text 8 7 Copyright 2021 \, João Pais;
#X restore 12 578 pd license;
#X text 85 576 a fazer - 3o argumento;
#X text 9 558 (C) 2021 João Pais - jmmmpais@gmail.com;
#X obj 86 105 route bang;
#X obj 30 145 route bang float seed;
#X msg 50 295 seed \$1;
#X text 371 241 list "seed \$1" - seed for random object;
#X connect 0 0 43 0;
#X connect 1 0 0 0;
#X connect 2 0 1 0;
#X connect 3 0 25 0;
#X connect 4 0 18 0;
#X connect 5 0 44 0;
#X connect 7 0 24 0;
#X connect 7 1 25 0;
#X connect 7 2 8 0;
#X connect 8 1 18 0;
#X connect 9 0 14 0;
#X connect 10 0 12 0;
#X connect 11 0 9 0;
#X connect 12 1 11 0;
#X connect 12 1 19 1;
#X connect 15 0 13 0;
#X connect 16 0 10 0;
#X connect 16 1 9 1;
#X connect 16 2 15 0;
#X connect 18 0 17 0;
#X connect 19 0 23 0;
#X connect 20 0 6 0;
#X connect 22 0 28 0;
#X connect 23 0 22 0;
#X connect 23 1 21 0;
#X connect 23 2 20 0;
#X connect 24 0 16 0;
#X connect 25 0 10 1;
#X connect 26 0 25 0;
#X connect 27 0 24 0;
#X connect 28 0 29 0;
#X connect 28 1 19 1;
#X connect 43 1 7 0;
#X connect 44 0 19 0;
#X connect 44 1 24 0;
#X connect 44 2 45 0;
#X connect 45 0 19 0;
