#N canvas 756 38 756 916 12;
#N canvas 271 116 450 300 spartial 1;
#X obj 120 69 r~ phase;
#X obj 120 93 *~ \$1;
#X obj 120 117 cos~;
#X obj 166 196 *~;
#X obj 166 220 throw~ bus;
#X obj 217 74 r play;
#X obj 217 98 del \$4;
#X obj 216 168 vline~;
#X msg 216 144 1 \$1 0 \, 0 \$2 \$1;
#X obj 216 121 pack \$2 \$3;
#X connect 0 0 1 0;
#X connect 1 0 2 0;
#X connect 2 0 3 0;
#X connect 3 0 4 0;
#X connect 5 0 6 0;
#X connect 6 0 9 0;
#X connect 7 0 3 1;
#X connect 8 0 7 0;
#X connect 9 0 8 0;
#X restore 18 28 pd spartial;
#X obj 22 117 spartial 1 300 9000 400;
#X obj 21 141 spartial 2.01 700 8000 100;
#X obj 22 165 spartial 4.02 400 7000 32;
#X obj 22 189 spartial 6.06 200 6000 20;
#X obj 22 213 spartial 8.12 37 5000 17;
#X obj 22 237 spartial 10.25 31 33200 12;
#X obj 22 261 spartial 12.5 20 1600 7;
#X obj 22 285 spartial 14.8 15 800 5;
#X obj 22 309 spartial 17 5 600 2;
#X obj 22 333 spartial 19.02 2 300 0;
#X obj 22 357 catch~ bus;
#X obj 22 381 *~ 0.01;
#X obj 22 405 dac~;
#X obj 22 68 bng 19 250 50 0 empty empty empty 0 -10 0 12 #fcfcfc #000000 #000000;
#X obj 22 92 s play;
#X obj 121 69 phasor~ 100;
#X obj 121 93 s~ phase;
#X obj 19 480 spectrogram~;
#X connect 11 0 12 0;
#X connect 12 0 13 0;
#X connect 12 0 13 1;
#X connect 12 0 18 0;
#X connect 14 0 15 0;
#X connect 16 0 17 0;
