#N canvas 0 38 756 916 12;
#N canvas 756 38 756 916 timebase 1;
#X obj 45 68 inlet control;
#X obj 43 253 metro 125;
#X obj 43 325 t b b;
#X obj 42 381 t b b;
#X obj 42 415 outlet bangs;
#X obj 80 98 sel 0;
#X msg 80 122 0;
#X obj 140 391 f 0;
#X obj 139 454 outlet time;
#X obj 100 349 del;
#X obj 207 71 inlet bpm;
#X obj 207 95 f \$1;
#X obj 207 119 swap 60000;
#X obj 207 143 /;
#X obj 207 178 / 4;
#X obj 207 202 t f f;
#X obj 239 246 *;
#X obj 301 71 inlet beats;
#X obj 301 95 f \$2;
#X obj 301 119 t b f;
#X obj 408 71 inlet swing percent;
#X obj 408 95 f \$3;
#X obj 408 119 / 100;
#X obj 408 143 + 1;
#X obj 263 203 t b f;
#X obj 319 6 loadbang;
#X obj 319 30 t b b b;
#X obj 181 391 + 1;
#X floatatom 138 425 5 0 0 0 - - - 0;
#X connect 0 0 1 0;
#X connect 0 0 5 0;
#X connect 1 0 2 0;
#X connect 2 0 3 0;
#X connect 2 1 9 0;
#X connect 3 0 4 0;
#X connect 3 1 7 0;
#X connect 5 0 6 0;
#X connect 6 0 7 0;
#X connect 7 0 27 0;
#X connect 7 0 28 0;
#X connect 9 0 3 0;
#X connect 10 0 11 0;
#X connect 11 0 12 0;
#X connect 12 0 13 0;
#X connect 12 1 13 1;
#X connect 13 0 14 0;
#X connect 14 0 15 0;
#X connect 15 0 1 1;
#X connect 15 1 16 0;
#X connect 16 0 9 1;
#X connect 17 0 18 0;
#X connect 18 0 19 0;
#X connect 19 0 14 0;
#X connect 19 1 14 1;
#X connect 20 0 21 0;
#X connect 21 0 22 0;
#X connect 22 0 23 0;
#X connect 23 0 24 0;
#X connect 24 0 16 0;
#X connect 24 1 16 1;
#X connect 25 0 26 0;
#X connect 26 0 11 0;
#X connect 26 1 18 0;
#X connect 26 2 21 0;
#X connect 27 0 7 1;
#X connect 28 0 8 0;
#X restore 271 277 pd timebase;
#X obj 287 30 vsl 19 162 0 200 0 0 empty empty empty 0 -9 0 12 #fcfcfc #000000 #000000 0 1;
#X obj 333 30 vsl 19 162 0 200 0 0 empty empty empty 0 -9 0 12 #fcfcfc #000000 #000000 0 1;
#X obj 371 32 vsl 19 162 0 100 0 0 empty empty empty 0 -9 0 12 #fcfcfc #000000 #000000 0 1;
#X obj 233 26 vsl 19 162 0 127 0 0 empty empty empty 0 -9 0 12 #fcfcfc #000000 #000000 0 1;
#X obj 260 324 bng 19 250 50 0 empty empty empty 0 -10 0 12 #fcfcfc #000000 #000000;
#X floatatom 353 326 5 0 0 0 - - - 0;
#X floatatom 222 235 5 0 0 0 - - - 0;
#X floatatom 276 233 5 0 0 0 - - - 0;
#X floatatom 322 232 5 0 0 0 - - - 0;
#X floatatom 377 233 5 0 0 0 - - - 0;
#N canvas 0 22 450 278 (subpatch) 0;
#X array graph 100 float 3;
#A 0 0 1 0 1 0 1 0 1 0 1 0 1 0 1 0 1 0 1 0 1 0 1 0 1 0 1 0 1 0 1 0 1 0 1 0 1 0 1 0 1 0 1 0 1 0 1 0 1 0 1 0 1 0 1 0 1 0 1 0 1 0 1 0 1 0 1 0 1 0 1 0 1 0 1 0 1 0 1 0 1 0 1 0 1 0 1 0 1 0 1 0 1 0 1 0 1 0 1 0 1;
#A color 0;
#A width 2;
#X coords 0 1 100 -1 200 140 1;
#X restore 283 533 graph;
#X obj 251 439 tabwrite graph;
#X obj 350 370 mod 100;
#X obj 246 366 tgl 19 0 empty empty empty 0 -10 0 12 #fcfcfc #000000 #000000 0 1;
#X connect 0 0 5 0;
#X connect 0 1 6 0;
#X connect 1 0 8 0;
#X connect 2 0 9 0;
#X connect 3 0 10 0;
#X connect 4 0 7 0;
#X connect 5 0 14 0;
#X connect 6 0 13 0;
#X connect 7 0 0 0;
#X connect 8 0 0 1;
#X connect 9 0 0 2;
#X connect 10 0 0 3;
#X connect 13 0 12 1;
#X connect 14 0 12 0;
