#N canvas 0 38 1512 916 10;
#X obj 332 163 phasor~;
#X obj 309 330 *~;
#N canvas 0 22 450 300 (subpatch) 0;
#X array graph-output 441 float 0 black black;
#X coords 0 1 440 -1 100 100 1;
#X restore 538 336 graph;
#X obj 325 310 +~ 128;
#X obj 309 228 min~;
#X obj 474 450 metro 80;
#X obj 474 426 tgl 15 0 empty empty empty 0 -6 0 8 #fcfcfc #000000
#000000 1 1;
#X obj 332 188 *~ -1;
#X obj 332 208 +~ 1;
#X obj 474 497 tabwrite~ graph-output;
#X obj 292 556 dac~;
#X obj 292 530 *~ 0.2;
#X obj 482 471 r~ graphme;
#X obj 340 530 s~ graphme;
#X obj 309 248 *~ 2;
#X obj 447 152 openpanel;
#X obj 447 196 soundfiler;
#X obj 447 130 bng 15 250 50 0 empty empty empty 0 -6 0 8 #fcfcfc #000000
#000000;
#N canvas 0 22 450 300 (subpatch) 0;
#X array source-array 68537 float 2 black black;
#X coords 0 1 68537 -1 100 100 1;
#X restore 537 215 graph;
#X msg 447 173 read -resize \$1 source-array;
#X obj 447 218 s filesize;
#X obj 292 390 tabread4~ source-array;
#X obj 239 281 lop~ 0.5;
#X obj 239 257 sig~;
#X obj 293 369 +~;
#X obj 228 125 hsl 64 12 0 1 0 0 empty empty position 7 6 1 8 #fcfcfc
#000000 #000000 2150 1;
#X obj 225 162 t b f;
#X obj 239 236 *;
#X obj 225 207 f;
#X obj 241 184 r filesize;
#X obj 223 304 +~;
#X obj 137 205 *~;
#X obj 156 188 hsl 64 12 0 100 0 0 empty empty movement 7 6 1 8 #fcfcfc
#000000 #000000 4400 1;
#X obj 137 166 osc~ 1;
#X obj 140 125 hsl 64 12 0 10 0 0 empty empty movef 7 6 1 8 #fcfcfc
#000000 #000000 4550 1;
#X floatatom 143 141 5 0 0 0 - - -, f 5;
#X floatatom 233 142 5 0 0 0 - - -, f 5;
#X obj 293 488 vcf~ 1 2;
#X obj 328 274 hsl 64 12 0 1000 0 0 empty empty width 7 6 1 8 #fcfcfc
#000000 #000000 6000 1;
#X floatatom 333 291 5 0 0 0 - - -, f 5;
#X obj 335 125 hsl 64 12 0 400 0 0 empty empty fundamental 3 6 1 8
#fcfcfc #000000 #000000 1250 1;
#X floatatom 340 142 5 0 0 0 - - -, f 5;
#X obj 321 411 hsl 64 12 0 5000 0 0 empty empty filter 7 6 1 8 #fcfcfc
#000000 #000000 6300 1;
#X floatatom 326 427 5 0 0 0 - - -, f 5;
#X obj 344 446 loadbang;
#X msg 344 468 2;
#X connect 0 0 4 0;
#X connect 0 0 7 0;
#X connect 1 0 24 1;
#X connect 3 0 1 1;
#X connect 4 0 14 0;
#X connect 5 0 9 0;
#X connect 6 0 5 0;
#X connect 7 0 8 0;
#X connect 8 0 4 1;
#X connect 11 0 10 0;
#X connect 11 0 10 1;
#X connect 12 0 9 0;
#X connect 14 0 1 0;
#X connect 15 0 19 0;
#X connect 16 0 20 0;
#X connect 17 0 15 0;
#X connect 19 0 16 0;
#X connect 21 0 37 0;
#X connect 22 0 30 1;
#X connect 23 0 22 0;
#X connect 24 0 21 0;
#X connect 25 0 26 0;
#X connect 25 0 36 0;
#X connect 26 0 28 0;
#X connect 26 1 27 1;
#X connect 27 0 23 0;
#X connect 28 0 27 0;
#X connect 29 0 28 1;
#X connect 30 0 24 0;
#X connect 31 0 30 0;
#X connect 32 0 31 1;
#X connect 33 0 31 0;
#X connect 34 0 33 0;
#X connect 34 0 35 0;
#X connect 37 0 11 0;
#X connect 37 0 13 0;
#X connect 38 0 39 0;
#X connect 38 0 3 0;
#X connect 40 0 41 0;
#X connect 40 0 0 0;
#X connect 42 0 43 0;
#X connect 42 0 37 1;
#X connect 44 0 45 0;
#X connect 45 0 37 2;
